SplineFontDB: 3.0
FontName: MerriweatherSans-ExtraBold
FullName: Merriweather Sans ExtraBold
FamilyName: Merriweather Sans
Weight: Heavy
Copyright: Copyright (c) 2013, Sorkin Type Co (www.sorkintype.com) with Reserved Font Name 'Merriweather'
Version: 1.003; ttfautohint (v0.93.8-669f) -l 7 -r 28 -G 0 -x 13 -w "" -W -c
ItalicAngle: 0
UnderlinePosition: -212
UnderlineWidth: 137
Ascent: 1638
Descent: 410
sfntRevision: 0x000100c5
LayerCount: 2
Layer: 0 1 "Back"  1
Layer: 1 1 "Fore"  0
XUID: [1021 631 1661839179 13771064]
FSType: 0
OS2Version: 3
OS2_WeightWidthSlopeOnly: 0
OS2_UseTypoMetrics: 1
CreationTime: 1361885340
ModificationTime: 1361884070
PfmFamily: 17
TTFWeight: 800
TTFWidth: 5
LineGap: 0
VLineGap: 0
Panose: 2 0 5 3 6 0 0 2 0 4
OS2TypoAscent: 2014
OS2TypoAOffset: 0
OS2TypoDescent: -560
OS2TypoDOffset: 0
OS2TypoLinegap: 0
OS2WinAscent: 2014
OS2WinAOffset: 0
OS2WinDescent: 560
OS2WinDOffset: 0
HheadAscent: 2014
HheadAOffset: 0
HheadDescent: -560
HheadDOffset: 0
OS2SubXSize: 1331
OS2SubYSize: 1229
OS2SubXOff: 0
OS2SubYOff: 154
OS2SupXSize: 1331
OS2SupYSize: 1229
OS2SupXOff: 0
OS2SupYOff: 717
OS2StrikeYSize: 102
OS2StrikeYPos: 512
OS2FamilyClass: 768
OS2Vendor: 'STC '
OS2CodePages: 20000093.00000000
OS2UnicodeRanges: a00000af.5000204b.00000000.00000000
Lookup: 1 0 0 "'aalt' Access All Alternates in Latin lookup 0"  {"'aalt' Access All Alternates in Latin lookup 0 subtable"  } ['aalt' ('DFLT' <'dflt' > 'latn' <'AZE ' 'CRT ' 'MOL ' 'ROM ' 'TRK ' 'dflt' > ) ]
Lookup: 3 0 0 "'aalt' Access All Alternates in Latin lookup 1"  {"'aalt' Access All Alternates in Latin lookup 1 subtable"  } ['aalt' ('DFLT' <'dflt' > 'latn' <'AZE ' 'CRT ' 'MOL ' 'ROM ' 'TRK ' 'dflt' > ) ]
Lookup: 1 0 0 "'locl' Localized Forms lookup 2"  {"'locl' Localized Forms lookup 2 subtable"  } ['locl' ('DFLT' <'AZE ' > ) ]
Lookup: 1 0 0 "'locl' Localized Forms lookup 3"  {"'locl' Localized Forms lookup 3 subtable"  } ['locl' ('DFLT' <'TRK ' > ) ]

StartChar: .notdef
Encoding: 65536 -1 0
Width: 1878
Flags: W
LayerCount: 2
Fore
SplineSet
231 1416 m 1,0,-1
 1647 1416 l 1,1,-1
 1647 0 l 1,2,-1
 231 0 l 1,3,-1
 231 1416 l 1,0,-1
589 219 m 1,4,-1
 936 587 l 1,5,-1
 1298 219 l 1,6,-1
 1420 341 l 1,7,-1
 1057 709 l 1,8,-1
 1420 1067 l 1,9,-1
 1292 1191 l 1,10,-1
 940 825 l 1,11,-1
 583 1193 l 1,12,-1
 460 1068 l 1,13,-1
 819 705 l 1,14,-1
 461 363 l 1,15,-1
 589 219 l 1,4,-1
EndSplineSet
EndChar

StartChar: exclam
Encoding: 33 33 25
Width: 669
GlyphClass: 2
Flags: W
LayerCount: 2
Fore
SplineSet
133 1780 m 1,0,-1
 540 1780 l 1,1,-1
 500 590 l 1,2,-1
 186 590 l 1,3,-1
 133 1780 l 1,0,-1
120 189 m 0,4,5
 120 281 120 281 184 348 c 1,6,7
 251 416 251 416 344 416 c 256,8,9
 437 416 437 416 494 356 c 0,10,11
 548 298 548 298 548 206 c 256,12,13
 548 114 548 114 484 46 c 256,14,15
 420 -22 420 -22 326 -22 c 0,16,17
 235 -22 235 -22 178 38 c 0,18,19
 120 100 120 100 120 189 c 0,4,5
EndSplineSet
EndChar

StartChar: numbersign
Encoding: 35 35 27
Width: 1709
GlyphClass: 2
Flags: W
LayerCount: 2
Fore
SplineSet
383 305 m 1,0,-1
 206 305 l 1,1,-1
 206 553 l 1,2,-1
 407 553 l 1,3,-1
 435 838 l 1,4,-1
 247 838 l 1,5,-1
 247 1075 l 1,6,-1
 457 1075 l 1,7,-1
 486 1373 l 1,8,-1
 788 1373 l 1,9,-1
 759 1075 l 1,10,-1
 1022 1075 l 1,11,-1
 1050 1373 l 1,12,-1
 1349 1373 l 1,13,-1
 1320 1075 l 1,14,-1
 1511 1075 l 1,15,-1
 1511 838 l 1,16,-1
 1297 838 l 1,17,-1
 1269 553 l 1,18,-1
 1467 553 l 1,19,-1
 1467 305 l 1,20,-1
 1245 305 l 1,21,-1
 1216 0 l 1,22,-1
 922 0 l 1,23,-1
 950 305 l 1,24,-1
 683 305 l 1,25,-1
 653 0 l 1,26,-1
 354 0 l 1,27,-1
 383 305 l 1,0,-1
973 553 m 1,28,-1
 1000 838 l 1,29,-1
 735 838 l 1,30,-1
 707 553 l 1,31,-1
 973 553 l 1,28,-1
EndSplineSet
EndChar

StartChar: dollar
Encoding: 36 36 28
Width: 1409
GlyphClass: 2
Flags: W
LayerCount: 2
Fore
SplineSet
263 374 m 1,0,1
 371 312 371 312 545 286 c 0,2,3
 605 277 605 277 690 277 c 0,4,5
 871 277 871 277 871 406 c 0,6,7
 871 473 871 473 802 524 c 1,8,9
 761 553 761 553 625 618 c 128,-1,10
 489 683 489 683 424 727 c 128,-1,11
 359 771 359 771 310 828 c 0,12,13
 205 952 205 952 205 1121 c 0,14,15
 205 1383 205 1383 448 1485 c 0,16,17
 525 1517 525 1517 619 1529 c 1,18,-1
 628 1763 l 1,19,-1
 832 1763 l 1,20,-1
 823 1536 l 1,21,22
 1047 1523 1047 1523 1177 1451 c 1,23,-1
 1118 1165 l 1,24,25
 1039 1227 1039 1227 881 1254 c 0,26,27
 831 1262 831 1262 751.5 1262 c 128,-1,28
 672 1262 672 1262 621.5 1227 c 128,-1,29
 571 1192 571 1192 571 1145.5 c 128,-1,30
 571 1099 571 1099 586 1071.5 c 128,-1,31
 601 1044 601 1044 634 1018 c 0,32,33
 690 973 690 973 811 918.5 c 128,-1,34
 932 864 932 864 1009.5 818 c 128,-1,35
 1087 772 1087 772 1141 717 c 0,36,37
 1252 604 1252 604 1252 435 c 0,38,39
 1252 241 1252 241 1128 124 c 0,40,41
 999 3 999 3 769 -13 c 1,42,-1
 762 -225 l 1,43,-1
 557 -225 l 1,44,-1
 565 -9 l 1,45,46
 319 15 319 15 216 78 c 1,47,-1
 263 374 l 1,0,1
EndSplineSet
EndChar

StartChar: percent
Encoding: 37 37 29
Width: 2287
GlyphClass: 3
Flags: W
LayerCount: 2
Fore
SplineSet
521 589 m 0,0,1
 518 589 518 589 515 589 c 0,2,3
 312 589 312 589 201 724 c 0,4,5
 99 849 99 849 99 1057 c 0,6,7
 99 1276 99 1276 238 1408 c 0,8,9
 368 1532 368 1532 557 1532 c 0,10,11
 560 1532 560 1532 563 1532 c 0,12,13
 768 1532 768 1532 878 1396 c 0,14,15
 978 1271 978 1271 978 1063 c 0,16,17
 978 845 978 845 838 712 c 0,18,19
 709 589 709 589 521 589 c 0,0,1
1283 1530 m 1,20,-1
 1566 1530 l 1,21,-1
 1009 0 l 1,22,-1
 727 0 l 1,23,-1
 1283 1530 l 1,20,-1
653.5 884 m 128,-1,25
 694 946 694 946 694 1028 c 128,-1,26
 694 1110 694 1110 683.5 1155.5 c 128,-1,27
 673 1201 673 1201 654 1233 c 0,28,29
 613 1300 613 1300 538 1300 c 128,-1,30
 463 1300 463 1300 422.5 1238 c 128,-1,31
 382 1176 382 1176 382 1094 c 128,-1,32
 382 1012 382 1012 392.5 967 c 128,-1,33
 403 922 403 922 422 890 c 0,34,35
 463 822 463 822 538 822 c 128,-1,24
 613 822 613 822 653.5 884 c 128,-1,25
1309 472 m 0,36,37
 1309 579 1309 579 1347 667.5 c 128,-1,38
 1385 756 1385 756 1448 816 c 0,39,40
 1579 939 1579 939 1766 939 c 0,41,42
 1769 939 1769 939 1772 939 c 0,43,44
 1978 939 1978 939 2088 804 c 0,45,46
 2188 680 2188 680 2188 471 c 0,47,48
 2188 252 2188 252 2048 120 c 1,49,50
 1919 -4 1919 -4 1730 -4 c 0,51,52
 1521 -4 1521 -4 1410 132 c 1,53,54
 1309 258 1309 258 1309 472 c 0,36,37
1632.5 646 m 128,-1,56
 1592 584 1592 584 1592 501.5 c 128,-1,57
 1592 419 1592 419 1602.5 374 c 128,-1,58
 1613 329 1613 329 1632 297 c 0,59,60
 1673 230 1673 230 1748 230 c 128,-1,61
 1823 230 1823 230 1863 292 c 128,-1,62
 1903 354 1903 354 1903 436 c 128,-1,63
 1903 518 1903 518 1893 563 c 128,-1,64
 1883 608 1883 608 1864 640 c 0,65,66
 1823 708 1823 708 1748 708 c 128,-1,55
 1673 708 1673 708 1632.5 646 c 128,-1,56
EndSplineSet
Ligature2: "'frac' Diagonal Fractions in Latin lookup 10 subtable" zero slash zero
EndChar

StartChar: ampersand
Encoding: 38 38 30
Width: 1540
GlyphClass: 2
Flags: W
LayerCount: 2
Fore
SplineSet
1062 51 m 1,0,1
 903 -16 903 -16 736.5 -16 c 128,-1,2
 570 -16 570 -16 442.5 12.5 c 128,-1,3
 315 41 315 41 230 96 c 0,4,5
 61 204 61 204 61 410 c 0,6,7
 61 658 61 658 368 793 c 1,8,9
 237 982 237 982 237 1154 c 0,10,11
 237 1339 237 1339 362 1443 c 0,12,13
 487 1546 487 1546 698 1546 c 0,14,15
 899 1546 899 1546 1024 1438 c 0,16,17
 1146 1333 1146 1333 1146 1172 c 0,18,19
 1146 930 1146 930 948 801 c 0,20,21
 889 763 889 763 824 731 c 1,22,23
 943 568 943 568 1088 414 c 1,24,25
 1144 495 1144 495 1144 603 c 0,26,27
 1144 683 1144 683 1136 719 c 128,-1,28
 1128 755 1128 755 1127 766 c 1,29,-1
 1421 766 l 1,30,31
 1436 698 1436 698 1436 602 c 0,32,33
 1436 374 1436 374 1312 239 c 1,34,35
 1390 204 1390 204 1496 204 c 1,36,-1
 1496 -1 l 1,37,38
 1431 -16 1431 -16 1340 -16 c 0,39,40
 1189 -16 1189 -16 1062 51 c 1,0,1
687 910 m 1,41,42
 843 1010 843 1010 843 1169 c 0,43,44
 843 1262 843 1262 772 1299 c 0,45,46
 745 1313 745 1313 707 1313 c 128,-1,47
 669 1313 669 1313 642.5 1301.5 c 128,-1,48
 616 1290 616 1290 598 1270 c 0,49,50
 560 1228 560 1228 560 1179 c 128,-1,51
 560 1130 560 1130 567 1102 c 128,-1,52
 574 1074 574 1074 590 1046 c 1,53,54
 614 1000 614 1000 687 910 c 1,41,42
514 603 m 1,55,56
 404 532 404 532 404 428 c 0,57,58
 404 232 404 232 698 232 c 0,59,60
 773 232 773 232 827 244 c 1,61,62
 663 412 663 412 514 603 c 1,55,56
EndSplineSet
EndChar

StartChar: quotesingle
Encoding: 39 39 31
Width: 730
GlyphClass: 2
Flags: W
LayerCount: 2
Fore
SplineSet
198 1703 m 1,0,-1
 532 1703 l 1,1,-1
 491 950 l 1,2,-1
 240 950 l 1,3,-1
 198 1703 l 1,0,-1
EndSplineSet
EndChar

StartChar: parenleft
Encoding: 40 40 32
Width: 843
GlyphClass: 2
Flags: W
LayerCount: 2
Fore
SplineSet
572 -360 m 1,0,1
 425 -265 425 -265 294 -56 c 0,2,3
 179 128 179 128 126 398 c 0,4,5
 99 540 99 540 99 704 c 128,-1,6
 99 868 99 868 125.5 1001 c 128,-1,7
 152 1134 152 1134 194.5 1245 c 128,-1,8
 237 1356 237 1356 289.5 1444 c 128,-1,9
 342 1532 342 1532 394 1597 c 0,10,11
 488 1713 488 1713 572 1767 c 1,12,-1
 762 1637 l 1,13,14
 651 1544 651 1544 550 1342 c 0,15,16
 412 1063 412 1063 412 707 c 0,17,18
 412 359 412 359 534 91 c 1,19,20
 626 -114 626 -114 762 -229 c 1,21,-1
 572 -360 l 1,0,1
EndSplineSet
EndChar

StartChar: asterisk
Encoding: 42 42 34
Width: 1412
GlyphClass: 2
Flags: W
LayerCount: 2
Fore
SplineSet
140 992 m 1,0,-1
 429 1131 l 1,1,-1
 589 1173 l 1,2,3
 584 1174 584 1174 561 1179.5 c 128,-1,4
 538 1185 538 1185 510 1191 c 0,5,6
 435 1207 435 1207 427 1211 c 2,7,-1
 133 1342 l 1,8,-1
 257 1585 l 1,9,-1
 530 1396 l 1,10,-1
 648 1275 l 1,11,12
 647 1280 647 1280 640 1303.5 c 128,-1,13
 633 1327 633 1327 625 1354 c 0,14,15
 603 1428 603 1428 602 1437 c 2,16,-1
 562 1758 l 1,17,-1
 834 1758 l 1,18,-1
 807 1442 l 1,19,-1
 763 1277 l 1,20,21
 768 1280 768 1280 803 1321 c 1,22,23
 855 1379 855 1379 879 1403 c 1,24,-1
 1145 1595 l 1,25,-1
 1272 1353 l 1,26,-1
 985 1219 l 1,27,-1
 822 1174 l 1,28,-1
 987 1135 l 1,29,-1
 1279 1010 l 1,30,-1
 1142 759 l 1,31,-1
 888 947 l 1,32,-1
 765 1067 l 1,33,34
 766 1062 766 1062 773 1039 c 128,-1,35
 780 1016 780 1016 788 989 c 128,-1,36
 796 962 796 962 803.5 938 c 128,-1,37
 811 914 811 914 812 907 c 2,38,-1
 849 584 l 1,39,-1
 578 584 l 1,40,-1
 607 905 l 1,41,-1
 650 1068 l 1,42,-1
 534 941 l 1,43,-1
 274 748 l 1,44,-1
 140 992 l 1,0,-1
EndSplineSet
EndChar

StartChar: plus
Encoding: 43 43 35
Width: 1401
GlyphClass: 2
Flags: W
LayerCount: 2
Fore
SplineSet
560 440 m 1,0,-1
 566 645 l 1,1,-1
 406 640 l 1,2,-1
 188 640 l 1,3,-1
 188 911 l 1,4,-1
 406 911 l 1,5,-1
 566 906 l 1,6,-1
 560 1109 l 1,7,-1
 560 1309 l 1,8,-1
 839 1309 l 1,9,-1
 839 1109 l 1,10,-1
 833 906 l 1,11,-1
 990 911 l 1,12,-1
 1212 911 l 1,13,-1
 1212 640 l 1,14,-1
 990 640 l 1,15,-1
 833 645 l 1,16,-1
 839 440 l 1,17,-1
 839 247 l 1,18,-1
 560 247 l 1,19,-1
 560 440 l 1,0,-1
EndSplineSet
EndChar

StartChar: comma
Encoding: 44 44 36
Width: 700
GlyphClass: 2
Flags: W
LayerCount: 2
Fore
SplineSet
151 182 m 1,0,-1
 414 318 l 1,1,2
 493 288 493 288 540 182 c 0,3,4
 581 90 581 90 581 -3 c 128,-1,5
 581 -96 581 -96 559.5 -176.5 c 128,-1,6
 538 -257 538 -257 500 -324 c 1,7,8
 421 -468 421 -468 306 -512 c 1,9,-1
 174 -408 l 1,10,-1
 174 -382 l 1,11,12
 227 -343 227 -343 248 -213 c 0,13,14
 255 -170 255 -170 255 -128.5 c 128,-1,15
 255 -87 255 -87 245 -53.5 c 128,-1,16
 235 -20 235 -20 220 8 c 0,17,18
 187 69 187 69 151 75 c 1,19,-1
 151 182 l 1,0,-1
EndSplineSet
EndChar

StartChar: hyphen
Encoding: 45 45 37
Width: 1358
GlyphClass: 2
Flags: W
LayerCount: 2
Fore
SplineSet
254 904 m 1,0,-1
 1104 904 l 1,1,-1
 1104 626 l 1,2,-1
 254 626 l 1,3,-1
 254 904 l 1,0,-1
EndSplineSet
EndChar

StartChar: period
Encoding: 46 46 38
Width: 669
GlyphClass: 2
Flags: W
LayerCount: 2
Fore
SplineSet
120 189 m 0,0,1
 120 279 120 279 185 348 c 0,2,3
 250 416 250 416 344 416 c 0,4,5
 437 416 437 416 494 356 c 0,6,7
 548 298 548 298 548 206 c 0,8,9
 548 113 548 113 485 46 c 0,10,11
 420 -22 420 -22 327 -22 c 0,12,13
 235 -22 235 -22 178 38 c 0,14,15
 120 100 120 100 120 189 c 0,0,1
EndSplineSet
EndChar

StartChar: slash
Encoding: 47 47 39
Width: 862
GlyphClass: 2
Flags: W
LayerCount: 2
Fore
SplineSet
563 1599 m 1,0,-1
 854 1599 l 1,1,-1
 299 -363 l 1,2,-1
 8 -363 l 1,3,-1
 563 1599 l 1,0,-1
EndSplineSet
EndChar

StartChar: zero
Encoding: 48 48 40
Width: 1438
GlyphClass: 2
Flags: W
LayerCount: 2
Fore
SplineSet
167 320 m 0,0,1
 138 393 138 393 126 471.5 c 128,-1,2
 114 550 114 550 114 666 c 128,-1,3
 114 782 114 782 160.5 901 c 128,-1,4
 207 1020 207 1020 289 1102 c 0,5,6
 458 1271 458 1271 735 1271 c 0,7,8
 1150 1271 1150 1271 1274 948 c 0,9,10
 1324 816 1324 816 1324 639 c 0,11,12
 1324 338 1324 338 1156 160 c 0,13,14
 989 -16 989 -16 710 -16 c 0,15,16
 299 -16 299 -16 167 320 c 0,0,1
951 618 m 0,17,18
 951 892 951 892 825 988 c 0,19,20
 782 1020 782 1020 722 1020 c 0,21,22
 720 1020 720 1020 718 1020 c 0,23,24
 606 1020 606 1020 545 922 c 0,25,26
 485 826 485 826 485 651 c 0,27,28
 485 479 485 479 545.5 357.5 c 128,-1,29
 606 236 606 236 719.5 236 c 128,-1,30
 833 236 833 236 892 334 c 128,-1,31
 951 432 951 432 951 618 c 0,17,18
EndSplineSet
EndChar

StartChar: one
Encoding: 49 49 41
Width: 1058
GlyphClass: 2
Flags: W
LayerCount: 2
Fore
SplineSet
382 878 m 1,0,1
 300 859 300 859 155 836 c 1,2,-1
 125 1060 l 1,3,4
 262 1093 262 1093 456 1196 c 0,5,6
 539 1240 539 1240 585 1278 c 1,7,-1
 770 1249 l 1,8,-1
 767 0 l 1,9,-1
 382 0 l 1,10,-1
 382 878 l 1,0,1
EndSplineSet
Substitution2: "'sups' Superscript in Latin lookup 11 subtable" onesuperior
EndChar

StartChar: two
Encoding: 50 50 42
Width: 1418
GlyphClass: 2
Flags: W
LayerCount: 2
Fore
SplineSet
140 169 m 1,0,1
 359 277 359 277 545 436 c 1,2,3
 785 643 785 643 785 811 c 0,4,5
 785 941 785 941 688 984 c 0,6,7
 653 999 653 999 602 999 c 128,-1,8
 551 999 551 999 503.5 988.5 c 128,-1,9
 456 978 456 978 414 961 c 0,10,11
 326 926 326 926 272 874 c 1,12,-1
 147 1088 l 1,13,14
 271 1216 271 1216 505 1272 c 0,15,16
 589 1292 589 1292 707.5 1292 c 128,-1,17
 826 1292 826 1292 923 1257.5 c 128,-1,18
 1020 1223 1020 1223 1080 1166 c 0,19,20
 1190 1062 1190 1062 1190 889 c 0,21,22
 1190 629 1190 629 909 411 c 0,23,24
 820 342 820 342 709 276 c 1,25,-1
 1262 314 l 1,26,-1
 1262 0 l 1,27,-1
 190 0 l 1,28,-1
 140 169 l 1,0,1
EndSplineSet
Substitution2: "'sups' Superscript in Latin lookup 11 subtable" twosuperior
EndChar

StartChar: three
Encoding: 51 51 43
Width: 1201
GlyphClass: 2
Flags: W
LayerCount: 2
Fore
SplineSet
123 -38 m 1,0,1
 257 -69 257 -69 344 -69 c 128,-1,2
 431 -69 431 -69 498.5 -53 c 128,-1,3
 566 -37 566 -37 615 -6 c 0,4,5
 718 61 718 61 718 181 c 0,6,7
 718 335 718 335 592 378 c 0,8,9
 554 390 554 390 522.5 390 c 128,-1,10
 491 390 491 390 480 390 c 1,11,-1
 344 358 l 1,12,-1
 294 587 l 1,13,14
 436 613 436 613 514.5 655 c 128,-1,15
 593 697 593 697 624 744 c 1,16,17
 656 795 656 795 656 859 c 128,-1,18
 656 923 656 923 608.5 961 c 128,-1,19
 561 999 561 999 476 999 c 0,20,21
 315 999 315 999 174 896 c 1,22,-1
 68 1128 l 1,23,24
 116 1180 116 1180 256 1228 c 1,25,26
 412 1280 412 1280 539.5 1280 c 128,-1,27
 667 1280 667 1280 757 1255.5 c 128,-1,28
 847 1231 847 1231 908 1184 c 1,29,30
 1035 1089 1035 1089 1035 920 c 0,31,32
 1035 671 1035 671 784 532 c 1,33,34
 949 510 949 510 1038 399 c 0,35,36
 1114 305 1114 305 1114 185.5 c 128,-1,37
 1114 66 1114 66 1066 -27.5 c 128,-1,38
 1018 -121 1018 -121 930 -188 c 0,39,40
 743 -331 743 -331 441 -333 c 0,41,42
 292 -333 292 -333 124 -281 c 1,43,-1
 123 -38 l 1,0,1
EndSplineSet
Substitution2: "'sups' Superscript in Latin lookup 11 subtable" threesuperior
EndChar

StartChar: four
Encoding: 52 52 44
Width: 1452
GlyphClass: 2
Flags: W
LayerCount: 2
Fore
SplineSet
634 1342 m 1,0,-1
 711 1342 l 1,1,-1
 1001 1205 l 1,2,-1
 582 431 l 1,3,-1
 483 262 l 1,4,-1
 821 262 l 1,5,-1
 859 634 l 1,6,-1
 1177 634 l 1,7,-1
 1177 262 l 1,8,-1
 1399 262 l 1,9,-1
 1399 0 l 1,10,-1
 1177 0 l 1,11,-1
 1177 -376 l 1,12,-1
 821 -376 l 1,13,-1
 821 0 l 1,14,-1
 166 0 l 1,15,-1
 80 132 l 1,16,-1
 634 1342 l 1,0,-1
EndSplineSet
EndChar

StartChar: five
Encoding: 53 53 45
Width: 1320
GlyphClass: 2
Flags: W
LayerCount: 2
Fore
SplineSet
173 -97 m 1,0,1
 215 -99 215 -99 299.5 -99 c 128,-1,2
 384 -99 384 -99 485.5 -74.5 c 128,-1,3
 587 -50 587 -50 657 -6 c 0,4,5
 799 82 799 82 799 229 c 0,6,7
 799 323 799 323 738.5 371 c 128,-1,8
 678 419 678 419 557 419.5 c 128,-1,9
 436 420 436 420 252 355 c 1,10,-1
 186 389 l 1,11,-1
 249 1252 l 1,12,-1
 1134 1252 l 1,13,-1
 1102 951 l 1,14,-1
 515 951 l 1,15,-1
 484 644 l 1,16,17
 610 684 610 684 726 684 c 128,-1,18
 842 684 842 684 925.5 654 c 128,-1,19
 1009 624 1009 624 1065 567 c 0,20,21
 1179 451 1179 451 1179 243 c 0,22,23
 1179 -31 1179 -31 948 -197 c 0,24,25
 715 -365 715 -365 321 -365 c 0,26,27
 228 -365 228 -365 172 -351 c 1,28,-1
 173 -97 l 1,0,1
EndSplineSet
EndChar

StartChar: six
Encoding: 54 54 46
Width: 1456
GlyphClass: 2
Flags: W
LayerCount: 2
Fore
SplineSet
861 748 m 0,0,1
 829 762 829 762 780 762 c 128,-1,2
 731 762 731 762 662 729 c 1,3,-1
 594 921 l 1,4,5
 642 990 642 990 791 1026 c 0,6,7
 844 1038 844 1038 923.5 1038 c 128,-1,8
 1003 1038 1003 1038 1082 1003 c 128,-1,9
 1161 968 1161 968 1218 906 c 0,10,11
 1338 775 1338 775 1338 568 c 0,12,13
 1338 315 1338 315 1184 158 c 1,14,15
 1015 -16 1015 -16 714 -16 c 0,16,17
 455 -16 455 -16 286.5 164 c 128,-1,18
 118 344 118 344 118 623 c 0,19,20
 118 909 118 909 269 1150 c 1,21,22
 400 1361 400 1361 618 1501 c 0,23,24
 818 1630 818 1630 1012 1653 c 1,25,-1
 1096 1434 l 1,26,27
 821 1365 821 1365 662 1138 c 0,28,29
 511 924 511 924 511 674 c 0,30,31
 511 365 511 365 638 270 c 0,32,33
 683 237 683 237 748 237 c 0,34,35
 859 237 859 237 914.5 305 c 128,-1,36
 970 373 970 373 970 497 c 0,37,38
 970 700 970 700 861 748 c 0,0,1
EndSplineSet
EndChar

StartChar: seven
Encoding: 55 55 47
Width: 1334
GlyphClass: 2
Flags: W
LayerCount: 2
Fore
SplineSet
284 -292 m 1,0,1
 389 -73 389 -73 500.5 181.5 c 128,-1,2
 612 436 612 436 651 525 c 128,-1,3
 690 614 690 614 724 691 c 0,4,5
 788 840 788 840 824 928 c 1,6,-1
 122 929 l 1,7,-1
 122 1271 l 1,8,-1
 1161 1271 l 1,9,-1
 1242 1155 l 1,10,-1
 650 -394 l 1,11,-1
 284 -292 l 1,0,1
EndSplineSet
EndChar

StartChar: eight
Encoding: 56 56 48
Width: 1402
GlyphClass: 2
Flags: W
LayerCount: 2
Fore
SplineSet
393 770 m 1,0,1
 166 926 166 926 166 1163 c 0,2,3
 166 1336 166 1336 304 1448 c 0,4,5
 449 1565 449 1565 699 1565 c 256,6,7
 949 1565 949 1565 1090 1462 c 0,8,9
 1225 1363 1225 1363 1225 1202 c 0,10,11
 1225 1024 1225 1024 1087 900 c 0,12,13
 1039 857 1039 857 971 825 c 1,14,15
 1122 741 1122 741 1181 678 c 0,16,17
 1293 557 1293 557 1293 420 c 0,18,19
 1293 219 1293 219 1130 100 c 1,20,21
 973 -16 973 -16 716 -16 c 0,22,23
 437 -16 437 -16 277 96 c 0,24,25
 118 208 118 208 118 397 c 0,26,27
 118 638 118 638 393 770 c 1,0,1
751 938 m 1,28,29
 900 1012 900 1012 900 1179 c 0,30,31
 900 1183 900 1183 900 1187 c 0,32,33
 900 1254 900 1254 849 1297 c 128,-1,34
 798 1340 798 1340 704 1340 c 0,35,36
 618 1340 618 1340 562 1296 c 0,37,38
 509 1255 509 1255 509 1203.5 c 128,-1,39
 509 1152 509 1152 528 1117 c 128,-1,40
 547 1082 547 1082 580 1052 c 1,41,42
 635 999 635 999 751 938 c 1,28,29
619 647 m 1,43,44
 466 557 466 557 466 414 c 0,45,46
 466 285 466 285 600 242 c 0,47,48
 646 227 646 227 700 227 c 128,-1,49
 754 227 754 227 792 238 c 128,-1,50
 830 249 830 249 858 270 c 0,51,52
 919 316 919 316 919 387 c 0,53,54
 919 496 919 496 733 590 c 0,55,56
 679 618 679 618 619 647 c 1,43,44
EndSplineSet
EndChar

StartChar: nine
Encoding: 57 57 49
Width: 1455
GlyphClass: 2
Flags: W
LayerCount: 2
Fore
SplineSet
600 497.5 m 128,-1,1
 633 481 633 481 682 481 c 128,-1,2
 731 481 731 481 803 505 c 1,3,-1
 868 314 l 1,4,5
 819 247 819 247 673 217 c 0,6,7
 619 206 619 206 538.5 206 c 128,-1,8
 458 206 458 206 379 243.5 c 128,-1,9
 300 281 300 281 243 347 c 0,10,11
 123 486 123 486 123 698 c 0,12,13
 123 952 123 952 282 1106 c 0,14,15
 452 1270 452 1270 754 1270 c 0,16,17
 1016 1270 1016 1270 1178 1093 c 256,18,19
 1340 916 1340 916 1340 632 c 0,20,21
 1340 342 1340 342 1186 96 c 0,22,23
 1053 -116 1053 -116 828 -261 c 0,24,25
 623 -393 623 -393 431 -416 c 1,26,-1
 343 -204 l 1,27,28
 528 -159 528 -159 673 -29 c 0,29,30
 869 147 869 147 929 405 c 0,31,32
 948 488 948 488 948 577 c 128,-1,33
 948 666 948 666 935 747.5 c 128,-1,34
 922 829 922 829 894 890 c 0,35,36
 834 1016 834 1016 719.5 1016 c 128,-1,37
 605 1016 605 1016 547 951 c 128,-1,38
 489 886 489 886 489 789 c 128,-1,39
 489 692 489 692 503 638 c 128,-1,40
 517 584 517 584 542 549 c 128,-1,0
 567 514 567 514 600 497.5 c 128,-1,1
EndSplineSet
EndChar

StartChar: less
Encoding: 60 60 52
Width: 1376
GlyphClass: 2
Flags: W
LayerCount: 2
Fore
SplineSet
211 853 m 1,0,-1
 1155 1356 l 1,1,-1
 1155 1033 l 1,2,-1
 642 774 l 1,3,-1
 1155 547 l 1,4,-1
 1155 213 l 1,5,-1
 211 699 l 1,6,-1
 211 853 l 1,0,-1
EndSplineSet
EndChar

StartChar: equal
Encoding: 61 61 53
Width: 1430
GlyphClass: 2
Flags: W
LayerCount: 2
Fore
SplineSet
253 1155 m 1,0,-1
 1177 1155 l 1,1,-1
 1177 904 l 1,2,-1
 253 904 l 1,3,-1
 253 1155 l 1,0,-1
253 647 m 1,4,-1
 1177 647 l 1,5,-1
 1177 395 l 1,6,-1
 253 395 l 1,7,-1
 253 647 l 1,4,-1
EndSplineSet
EndChar

StartChar: question
Encoding: 63 63 55
Width: 1063
GlyphClass: 2
Flags: W
LayerCount: 2
Fore
SplineSet
342 1564 m 0,0,1
 216 1564 216 1564 106 1516 c 1,2,-1
 106 1784 l 1,3,4
 170 1825 170 1825 336 1841 c 0,5,6
 387 1846 387 1846 484.5 1846 c 128,-1,7
 582 1846 582 1846 691 1815 c 0,8,9
 1012 1724 1012 1724 1012 1422 c 0,10,11
 1012 1227 1012 1227 878 1105 c 0,12,13
 839 1070 839 1070 799 1038.5 c 128,-1,14
 759 1007 759 1007 720 976 c 128,-1,15
 681 945 681 945 650 909 c 0,16,17
 576 824 576 824 576 708 c 0,18,19
 576 672 576 672 587 632 c 128,-1,20
 598 592 598 592 613 535 c 1,21,-1
 329 535 l 1,22,23
 255 658 255 658 255 787 c 0,24,25
 255 938 255 938 368 1048 c 0,26,27
 400 1079 400 1079 433.5 1108 c 128,-1,28
 467 1137 467 1137 499.5 1165.5 c 128,-1,29
 532 1194 532 1194 558 1226 c 0,30,31
 614 1297 614 1297 614 1379 c 0,32,33
 614 1564 614 1564 342 1564 c 0,0,1
284 178 m 0,34,35
 284 264 284 264 348 329 c 0,36,37
 411 394 411 394 501 394 c 0,38,39
 637 394 637 394 684 274 c 0,40,41
 699 237 699 237 699 194 c 0,42,43
 699 107 699 107 637 43 c 0,44,45
 574 -22 574 -22 484 -22 c 0,46,47
 396 -22 396 -22 340 35 c 0,48,49
 284 93 284 93 284 178 c 0,34,35
EndSplineSet
EndChar

StartChar: at
Encoding: 64 64 56
Width: 2245
GlyphClass: 2
Flags: W
LayerCount: 2
Fore
SplineSet
1579 -319 m 1,0,1
 1366 -461 1366 -461 1040 -461 c 0,2,3
 655 -461 655 -461 411 -249 c 0,4,5
 241 -102 241 -102 176 147 c 0,6,7
 143 273 143 273 143 434 c 128,-1,8
 143 595 143 595 183.5 743 c 128,-1,9
 224 891 224 891 297.5 1014.5 c 128,-1,10
 371 1138 371 1138 473.5 1236 c 128,-1,11
 576 1334 576 1334 700 1402 c 0,12,13
 953 1543 953 1543 1255 1543 c 0,14,15
 1624 1543 1624 1543 1851 1352 c 0,16,17
 2090 1150 2090 1150 2090 797 c 0,18,19
 2090 409 2090 409 1894 190 c 0,20,21
 1720 -5 1720 -5 1476 -5 c 0,22,23
 1375 -5 1375 -5 1322 38 c 0,24,25
 1254 93 1254 93 1262 245 c 1,26,27
 1110 -5 1110 -5 906 -5 c 0,28,29
 784 -5 784 -5 696 106 c 1,30,31
 604 225 604 225 604 420 c 0,32,33
 604 671 604 671 753 864 c 0,34,35
 855 997 855 997 1024 1052 c 0,36,37
 1110 1080 1110 1080 1233 1080 c 128,-1,38
 1356 1080 1356 1080 1445 1025 c 1,39,-1
 1642 1056 l 1,40,41
 1634 1020 1634 1020 1624.5 972 c 128,-1,42
 1615 924 1615 924 1604 869 c 128,-1,43
 1593 814 1593 814 1581.5 754.5 c 128,-1,44
 1570 695 1570 695 1558 636 c 0,45,46
 1531 504 1531 504 1516 433 c 0,47,48
 1496 340 1496 340 1496 290 c 0,49,50
 1496 206 1496 206 1550 206 c 128,-1,51
 1604 206 1604 206 1661 243 c 128,-1,52
 1718 280 1718 280 1764 352 c 0,53,54
 1869 515 1869 515 1869 771 c 0,55,56
 1869 1176 1869 1176 1540 1302 c 0,57,58
 1411 1352 1411 1352 1273 1352 c 128,-1,59
 1135 1352 1135 1352 1025 1324.5 c 128,-1,60
 915 1297 915 1297 817 1243 c 128,-1,61
 719 1189 719 1189 637 1110 c 128,-1,62
 555 1031 555 1031 496 928 c 1,63,64
 369 711 369 711 369 427 c 0,65,66
 369 -52 369 -52 734 -209 c 0,67,68
 877 -271 877 -271 1060 -271 c 0,69,70
 1303 -271 1303 -271 1460 -192 c 0,71,72
 1501 -171 1501 -171 1533 -153 c 1,73,-1
 1579 -319 l 1,0,1
1321 814 m 1,74,75
 1278 861 1278 861 1198.5 861 c 128,-1,76
 1119 861 1119 861 1066 827 c 128,-1,77
 1013 793 1013 793 973 736 c 0,78,79
 886 614 886 614 886 453 c 0,80,81
 886 353 886 353 912.5 303 c 128,-1,82
 939 253 939 253 977.5 253 c 128,-1,83
 1016 253 1016 253 1052 278.5 c 128,-1,84
 1088 304 1088 304 1123 347 c 128,-1,85
 1158 390 1158 390 1191 447 c 128,-1,86
 1224 504 1224 504 1250 566 c 0,87,88
 1307 698 1307 698 1321 814 c 1,74,75
EndSplineSet
EndChar

StartChar: A
Encoding: 65 65 57
Width: 1460
GlyphClass: 2
Flags: W
LayerCount: 2
Fore
SplineSet
511 1532 m 1,0,-1
 945 1532 l 1,1,-1
 1479 0 l 1,2,-1
 1075 0 l 1,3,-1
 991 284 l 1,4,-1
 460 284 l 1,5,-1
 380 0 l 1,6,-1
 -19 0 l 1,7,-1
 511 1532 l 1,0,-1
912 550 m 1,8,-1
 771 1027 l 1,9,-1
 721 1224 l 1,10,-1
 670 1027 l 1,11,-1
 535 550 l 1,12,-1
 912 550 l 1,8,-1
EndSplineSet
EndChar

StartChar: B
Encoding: 66 66 58
Width: 1462
GlyphClass: 2
Flags: W
LayerCount: 2
Fore
SplineSet
1060 21 m 128,-1,1
 939 -14 939 -14 760.5 -14 c 128,-1,2
 582 -14 582 -14 365 0 c 1,3,-1
 173 0 l 1,4,-1
 173 1523 l 1,5,-1
 358 1522 l 1,6,-1
 721 1537 l 1,7,8
 1306 1537 1306 1537 1306 1145 c 0,9,10
 1306 951 1306 951 1178 852 c 0,11,12
 1135 820 1135 820 1078 804 c 1,13,14
 1213 788 1213 788 1298 697 c 0,15,16
 1387 603 1387 603 1387 479.5 c 128,-1,17
 1387 356 1387 356 1357 269 c 128,-1,18
 1327 182 1327 182 1254 119 c 128,-1,0
 1181 56 1181 56 1060 21 c 128,-1,1
875.5 1242.5 m 128,-1,20
 808 1281 808 1281 691 1281 c 128,-1,21
 574 1281 574 1281 551 1268 c 1,22,-1
 551 903 l 1,23,24
 583 895 583 895 671 895 c 128,-1,25
 759 895 759 895 804.5 906 c 128,-1,26
 850 917 850 917 881 942 c 0,27,28
 943 994 943 994 943 1099 c 128,-1,19
 943 1204 943 1204 875.5 1242.5 c 128,-1,20
997 458 m 0,29,30
 997 660 997 660 728 660 c 0,31,32
 587 660 587 660 551 652 c 1,33,-1
 551 258 l 1,34,35
 589 235 589 235 728.5 235 c 128,-1,36
 868 235 868 235 932.5 287 c 128,-1,37
 997 339 997 339 997 458 c 0,29,30
EndSplineSet
EndChar

StartChar: C
Encoding: 67 67 59
Width: 1306
GlyphClass: 2
Flags: W
LayerCount: 2
Fore
SplineSet
1212 1148 m 1,0,1
 1084 1236 1084 1236 895 1236 c 0,2,3
 714 1236 714 1236 600 1118 c 0,4,5
 480 995 480 995 480 781 c 0,6,7
 480 550 480 550 589 417 c 0,8,9
 703 278 703 278 911 278 c 0,10,11
 1051 278 1051 278 1186 343 c 0,12,13
 1222 360 1222 360 1241 376 c 1,14,-1
 1242 64 l 1,15,16
 1102 8 1102 8 1018.5 -4 c 128,-1,17
 935 -16 935 -16 868 -16 c 0,18,19
 496 -16 496 -16 288 194 c 0,20,21
 85 399 85 399 85 758 c 0,22,23
 85 1131 85 1131 312 1341 c 0,24,25
 524 1538 524 1538 864 1538 c 0,26,27
 1039 1538 1039 1538 1190 1494 c 0,28,29
 1227 1484 1227 1484 1262 1477 c 1,30,-1
 1212 1148 l 1,0,1
EndSplineSet
EndChar

StartChar: D
Encoding: 68 68 60
Width: 1561
GlyphClass: 2
Flags: W
LayerCount: 2
Fore
SplineSet
713 -16 m 1,0,-1
 307 0 l 1,1,-1
 173 0 l 1,2,-1
 173 1522 l 1,3,-1
 313 1522 l 1,4,-1
 730 1538 l 1,5,6
 1294 1538 1294 1538 1432 1112 c 0,7,8
 1477 974 1477 974 1477 789 c 128,-1,9
 1477 604 1477 604 1425 452 c 0,10,11
 1321 147 1321 147 1032 38 c 1,12,13
 892 -16 892 -16 713 -16 c 1,0,-1
724 1263 m 0,14,15
 640 1263 640 1263 556 1250 c 1,16,-1
 556 280 l 1,17,18
 610 265 610 265 710 265 c 128,-1,19
 810 265 810 265 875 295 c 128,-1,20
 940 325 940 325 986 386 c 0,21,22
 1081 514 1081 514 1081 765 c 0,23,24
 1081 1035 1081 1035 990 1152 c 1,25,26
 905 1263 905 1263 724 1263 c 0,14,15
EndSplineSet
EndChar

StartChar: E
Encoding: 69 69 61
Width: 1270
GlyphClass: 2
Flags: W
LayerCount: 2
Fore
SplineSet
173 1522 m 1,0,-1
 1135 1522 l 1,1,-1
 1135 1238 l 1,2,-1
 550 1238 l 1,3,-1
 550 916 l 1,4,-1
 1001 916 l 1,5,-1
 1001 639 l 1,6,-1
 550 639 l 1,7,-1
 550 291 l 1,8,-1
 1195 291 l 1,9,-1
 1195 0 l 1,10,-1
 173 0 l 1,11,-1
 173 1522 l 1,0,-1
EndSplineSet
EndChar

StartChar: F
Encoding: 70 70 62
Width: 1163
GlyphClass: 2
Flags: W
LayerCount: 2
Fore
SplineSet
173 1522 m 1,0,-1
 1123 1522 l 1,1,-1
 1123 1238 l 1,2,-1
 553 1238 l 1,3,-1
 553 875 l 1,4,-1
 986 875 l 1,5,-1
 986 592 l 1,6,-1
 553 592 l 1,7,-1
 553 0 l 1,8,-1
 173 0 l 1,9,-1
 173 1522 l 1,0,-1
EndSplineSet
EndChar

StartChar: G
Encoding: 71 71 63
Width: 1508
GlyphClass: 2
Flags: W
LayerCount: 2
Fore
SplineSet
673 306.5 m 128,-1,1
 738 268 738 268 851.5 268 c 128,-1,2
 965 268 965 268 1044 300 c 1,3,-1
 1044 566 l 1,4,-1
 827 582 l 1,5,-1
 827 854 l 1,6,-1
 1392 854 l 1,7,-1
 1392 86 l 1,8,9
 1350 85 1350 85 1293 65.5 c 128,-1,10
 1236 46 1236 46 1195.5 33 c 128,-1,11
 1155 20 1155 20 1102 9 c 0,12,13
 983 -16 983 -16 821.5 -16 c 128,-1,14
 660 -16 660 -16 522 36 c 128,-1,15
 384 88 384 88 287 186 c 0,16,17
 85 392 85 392 85 753 c 0,18,19
 85 1280 85 1280 474 1460 c 0,20,21
 643 1538 643 1538 873 1538 c 0,22,23
 1057 1538 1057 1538 1224 1496 c 0,24,25
 1267 1486 1267 1486 1310 1478 c 1,26,-1
 1300 1160 l 1,27,28
 1140 1240 1140 1240 888 1240 c 0,29,30
 691 1240 691 1240 582 1118 c 0,31,32
 474 996 474 996 474 780 c 0,33,34
 474 551 474 551 564 414 c 1,35,0
 608 345 608 345 673 306.5 c 128,-1,1
EndSplineSet
EndChar

StartChar: H
Encoding: 72 72 64
Width: 1631
GlyphClass: 2
Flags: W
LayerCount: 2
Fore
SplineSet
173 1522 m 1,0,-1
 556 1522 l 1,1,-1
 556 905 l 1,2,-1
 1078 905 l 1,3,-1
 1078 1522 l 1,4,-1
 1458 1522 l 1,5,-1
 1458 0 l 1,6,-1
 1078 0 l 1,7,-1
 1078 631 l 1,8,-1
 556 631 l 1,9,-1
 556 0 l 1,10,-1
 173 0 l 1,11,-1
 173 1522 l 1,0,-1
EndSplineSet
EndChar

StartChar: I
Encoding: 73 73 65
Width: 754
GlyphClass: 2
Flags: W
LayerCount: 2
Fore
SplineSet
185 1522 m 1,0,-1
 569 1522 l 1,1,-1
 569 0 l 1,2,-1
 185 0 l 1,3,-1
 185 1522 l 1,0,-1
EndSplineSet
EndChar

StartChar: J
Encoding: 74 74 66
Width: 800
GlyphClass: 2
Flags: W
LayerCount: 2
Fore
SplineSet
621 613 m 1,0,-1
 623 377 l 1,1,2
 623 195 623 195 605.5 107.5 c 128,-1,3
 588 20 588 20 553 -40.5 c 128,-1,4
 518 -101 518 -101 471 -149 c 128,-1,5
 424 -197 424 -197 368 -232 c 0,6,7
 211 -332 211 -332 62 -332 c 0,8,9
 55 -332 55 -332 48 -332 c 1,10,-1
 -35 -141 l 1,11,12
 55 -104 55 -104 97 -66 c 1,13,14
 200 31 200 31 224 196 c 1,15,16
 237 293 237 293 237 608 c 2,17,-1
 237 1522 l 1,18,-1
 621 1522 l 1,19,-1
 621 613 l 1,0,-1
EndSplineSet
EndChar

StartChar: K
Encoding: 75 75 67
Width: 1468
GlyphClass: 2
Flags: W
LayerCount: 2
Fore
SplineSet
173 1522 m 1,0,-1
 552 1522 l 1,1,-1
 552 881 l 1,2,-1
 1027 1522 l 1,3,-1
 1440 1522 l 1,4,-1
 941 866 l 1,5,6
 1030 740 1030 740 1189 470.5 c 128,-1,7
 1348 201 1348 201 1401 111 c 2,8,-1
 1466 0 l 1,9,-1
 1039 0 l 1,10,11
 1026 20 1026 20 1012.5 46.5 c 128,-1,12
 999 73 999 73 951 164 c 0,13,14
 839 374 839 374 690 597 c 1,15,-1
 552 432 l 1,16,-1
 552 0 l 1,17,-1
 173 0 l 1,18,-1
 173 1522 l 1,0,-1
EndSplineSet
EndChar

StartChar: L
Encoding: 76 76 68
Width: 1122
GlyphClass: 2
Flags: W
LayerCount: 2
Fore
SplineSet
173 1522 m 1,0,-1
 560 1522 l 1,1,-1
 560 287 l 1,2,-1
 1062 287 l 1,3,-1
 1062 0 l 1,4,-1
 173 0 l 1,5,-1
 173 1522 l 1,0,-1
EndSplineSet
EndChar

StartChar: M
Encoding: 77 77 69
Width: 1982
GlyphClass: 2
Flags: W
LayerCount: 2
Fore
SplineSet
240 1522 m 1,0,-1
 753 1522 l 1,1,-1
 938 741 l 1,2,-1
 1007 386 l 1,3,-1
 1062 741 l 1,4,-1
 1226 1522 l 1,5,-1
 1725 1522 l 1,6,-1
 1919 0 l 1,7,-1
 1553 0 l 1,8,-1
 1483 809 l 1,9,-1
 1460 1247 l 1,10,-1
 1365 797 l 1,11,-1
 1161 -9 l 1,12,-1
 824 -9 l 1,13,-1
 602 797 l 1,14,-1
 502 1247 l 1,15,-1
 476 809 l 1,16,-1
 416 0 l 1,17,-1
 64 -1 l 1,18,-1
 240 1522 l 1,0,-1
EndSplineSet
EndChar

StartChar: N
Encoding: 78 78 70
Width: 1631
GlyphClass: 2
Flags: W
LayerCount: 2
Fore
SplineSet
173 1522 m 1,0,-1
 529 1522 l 1,1,-1
 1048 687 l 1,2,-1
 1154 465 l 1,3,-1
 1113 852 l 1,4,-1
 1113 1522 l 1,5,-1
 1458 1522 l 1,6,-1
 1458 0 l 1,7,-1
 1075 0 l 1,8,-1
 582 815 l 1,9,-1
 471 1045 l 1,10,-1
 518 658 l 1,11,-1
 518 0 l 1,12,-1
 173 0 l 1,13,-1
 173 1522 l 1,0,-1
EndSplineSet
EndChar

StartChar: O
Encoding: 79 79 71
Width: 1603
GlyphClass: 2
Flags: W
LayerCount: 2
Fore
SplineSet
496 35 m 0,0,1
 93 199 93 199 93 769 c 0,2,3
 93 960 93 960 150.5 1109.5 c 128,-1,4
 208 1259 208 1259 304 1352 c 1,5,6
 499 1538 499 1538 849 1538 c 0,7,8
 1155 1538 1155 1538 1332 1336 c 256,9,10
 1509 1134 1509 1134 1509 785 c 0,11,12
 1509 380 1509 380 1305 174 c 0,13,14
 1117 -16 1117 -16 778 -16 c 0,15,16
 621 -16 621 -16 496 35 c 0,0,1
803 263 m 0,17,18
 1117 263 1117 263 1117 774 c 0,19,20
 1117 1115 1117 1115 951 1218 c 0,21,22
 895 1252 895 1252 822.5 1252 c 128,-1,23
 750 1252 750 1252 689 1227.5 c 128,-1,24
 628 1203 628 1203 583 1145 c 0,25,26
 485 1019 485 1019 485 758 c 0,27,28
 485 410 485 410 663 300 c 0,29,30
 723 263 723 263 803 263 c 0,17,18
EndSplineSet
EndChar

StartChar: P
Encoding: 80 80 72
Width: 1392
GlyphClass: 2
Flags: W
LayerCount: 2
Fore
SplineSet
980 476 m 0,0,1
 863 439 863 439 733 439 c 128,-1,2
 603 439 603 439 555 441 c 1,3,-1
 555 0 l 1,4,-1
 173 0 l 1,5,-1
 173 1522 l 1,6,-1
 321 1522 l 2,7,8
 426 1522 426 1522 530.5 1530 c 128,-1,9
 635 1538 635 1538 761 1538 c 128,-1,10
 887 1538 887 1538 995.5 1510 c 128,-1,11
 1104 1482 1104 1482 1180 1418 c 0,12,13
 1336 1287 1336 1287 1336 1001 c 0,14,15
 1336 589 1336 589 980 476 c 0,0,1
820 1255 m 0,16,17
 774 1272 774 1272 700.5 1272 c 128,-1,18
 627 1272 627 1272 555 1261 c 1,19,-1
 555 720 l 1,20,21
 640 712 640 712 702 712 c 128,-1,22
 764 712 764 712 810 727.5 c 128,-1,23
 856 743 856 743 890 778 c 0,24,25
 963 852 963 852 963 1003 c 0,26,27
 963 1201 963 1201 820 1255 c 0,16,17
EndSplineSet
EndChar

StartChar: Q
Encoding: 81 81 73
Width: 1603
GlyphClass: 2
Flags: W
LayerCount: 2
Fore
SplineSet
1233 -79 m 0,0,1
 1287 -82 1287 -82 1372 -82 c 128,-1,2
 1457 -82 1457 -82 1544 -53 c 1,3,-1
 1544 -309 l 1,4,5
 1452 -355 1452 -355 1315 -355 c 128,-1,6
 1178 -355 1178 -355 1079 -337 c 128,-1,7
 980 -319 980 -319 904 -278 c 0,8,9
 752 -197 752 -197 695 -12 c 1,10,11
 406 14 406 14 246 224 c 0,12,13
 93 425 93 425 93 745 c 0,14,15
 93 1149 93 1149 304 1352 c 1,16,17
 499 1538 499 1538 849 1538 c 0,18,19
 1155 1538 1155 1538 1332 1336 c 256,20,21
 1509 1134 1509 1134 1509 785 c 0,22,23
 1509 285 1509 285 1204 94 c 0,24,25
 1111 35 1111 35 997 8 c 1,26,27
 1056 -69 1056 -69 1233 -79 c 0,0,1
803 263 m 0,28,29
 1117 263 1117 263 1117 774 c 0,30,31
 1117 1115 1117 1115 951 1218 c 0,32,33
 895 1252 895 1252 822.5 1252 c 128,-1,34
 750 1252 750 1252 689 1227.5 c 128,-1,35
 628 1203 628 1203 583 1145 c 0,36,37
 485 1019 485 1019 485 758 c 0,38,39
 485 410 485 410 663 300 c 0,40,41
 723 263 723 263 803 263 c 0,28,29
EndSplineSet
EndChar

StartChar: R
Encoding: 82 82 74
Width: 1470
GlyphClass: 2
Flags: W
LayerCount: 2
Fore
SplineSet
717 542 m 1,0,1
 653 538 653 538 553 538 c 1,2,-1
 553 0 l 1,3,-1
 173 0 l 1,4,-1
 173 1522 l 1,5,-1
 304 1522 l 2,6,7
 344 1522 344 1522 390 1524.5 c 128,-1,8
 436 1527 436 1527 492 1530 c 0,9,10
 639 1538 639 1538 734 1538 c 128,-1,11
 829 1538 829 1538 897.5 1528.5 c 128,-1,12
 966 1519 966 1519 1029 1497.5 c 128,-1,13
 1092 1476 1092 1476 1146.5 1440 c 128,-1,14
 1201 1404 1201 1404 1242 1350 c 0,15,16
 1329 1233 1329 1233 1329 1055 c 0,17,18
 1329 727 1329 727 1087 617 c 1,19,20
 1157 562 1157 562 1235 394 c 0,21,22
 1267 325 1267 325 1298.5 251 c 128,-1,23
 1330 177 1330 177 1369 110 c 2,24,-1
 1432 0 l 1,25,-1
 1012 0 l 1,26,27
 994 24 994 24 960.5 100 c 128,-1,28
 927 176 927 176 903 251 c 128,-1,29
 879 326 879 326 853 390 c 128,-1,30
 827 454 827 454 795 496.5 c 128,-1,31
 763 539 763 539 717 542 c 1,0,1
715 1269 m 0,32,33
 616 1269 616 1269 553 1251 c 1,34,-1
 553 802 l 1,35,36
 606 795 606 795 663 795 c 2,37,-1
 740 795 l 2,38,39
 850 795 850 795 910 869 c 0,40,41
 963 935 963 935 963 1048 c 0,42,43
 963 1269 963 1269 715 1269 c 0,32,33
EndSplineSet
EndChar

StartChar: S
Encoding: 83 83 75
Width: 1229
GlyphClass: 2
Flags: W
LayerCount: 2
Fore
SplineSet
177 374 m 1,0,1
 285 312 285 312 459 286 c 0,2,3
 519 277 519 277 604 277 c 0,4,5
 785 277 785 277 785 406 c 0,6,7
 785 473 785 473 716 524 c 1,8,9
 675 553 675 553 539 618 c 128,-1,10
 403 683 403 683 338 727 c 128,-1,11
 273 771 273 771 224 828 c 0,12,13
 119 952 119 952 119 1121 c 0,14,15
 119 1323 119 1323 270 1434 c 0,16,17
 412 1538 412 1538 662 1538 c 0,18,19
 939 1538 939 1538 1091 1451 c 1,20,-1
 1032 1165 l 1,21,22
 953 1227 953 1227 795 1254 c 0,23,24
 745 1262 745 1262 665.5 1262 c 128,-1,25
 586 1262 586 1262 535.5 1227 c 128,-1,26
 485 1192 485 1192 485 1145.5 c 128,-1,27
 485 1099 485 1099 500 1071.5 c 128,-1,28
 515 1044 515 1044 548 1018 c 0,29,30
 604 973 604 973 725 918.5 c 128,-1,31
 846 864 846 864 923.5 818 c 128,-1,32
 1001 772 1001 772 1055 717 c 0,33,34
 1166 604 1166 604 1166 435 c 0,35,36
 1166 227 1166 227 1022 107 c 1,37,38
 876 -16 876 -16 611 -16 c 0,39,40
 382 -16 382 -16 200 48 c 0,41,42
 152 64 152 64 130 78 c 1,43,-1
 177 374 l 1,0,1
EndSplineSet
EndChar

StartChar: T
Encoding: 84 84 76
Width: 1253
GlyphClass: 2
Flags: W
LayerCount: 2
Fore
SplineSet
435 1228 m 1,0,-1
 28 1228 l 1,1,-1
 28 1522 l 1,2,-1
 1225 1522 l 1,3,-1
 1225 1228 l 1,4,-1
 819 1228 l 1,5,-1
 819 0 l 1,6,-1
 435 0 l 1,7,-1
 435 1228 l 1,0,-1
EndSplineSet
EndChar

StartChar: U
Encoding: 85 85 77
Width: 1545
GlyphClass: 2
Flags: W
LayerCount: 2
Fore
SplineSet
1408 632 m 2,0,1
 1408 -16 1408 -16 780 -16 c 0,2,3
 280 -16 280 -16 172 370 c 0,4,5
 138 491 138 491 138 638 c 2,6,-1
 142 1522 l 1,7,-1
 520 1522 l 1,8,-1
 517 685 l 2,9,10
 517 678 517 678 517 619.5 c 128,-1,11
 517 561 517 561 533 485.5 c 128,-1,12
 549 410 549 410 582 364 c 0,13,14
 639 284 639 284 775 284 c 0,15,16
 908 284 908 284 968 368 c 0,17,18
 1032 458 1032 458 1032 685 c 2,19,-1
 1032 1522 l 1,20,-1
 1408 1522 l 1,21,-1
 1408 632 l 2,0,1
EndSplineSet
EndChar

StartChar: V
Encoding: 86 86 78
Width: 1410
GlyphClass: 2
Flags: W
LayerCount: 2
Fore
SplineSet
-12 1522 m 1,0,-1
 394 1522 l 1,1,-1
 637 753 l 1,2,-1
 713 457 l 1,3,-1
 789 753 l 1,4,-1
 1016 1522 l 1,5,-1
 1422 1522 l 1,6,-1
 873 -4 l 1,7,-1
 541 -4 l 1,8,-1
 -12 1522 l 1,0,-1
EndSplineSet
EndChar

StartChar: W
Encoding: 87 87 79
Width: 1998
GlyphClass: 2
Flags: W
LayerCount: 2
Fore
SplineSet
-13 1522 m 1,0,-1
 369 1522 l 1,1,-1
 528 672 l 1,2,-1
 575 309 l 1,3,-1
 630 672 l 1,4,-1
 831 1522 l 1,5,-1
 1178 1522 l 1,6,-1
 1385 672 l 1,7,-1
 1441 329 l 1,8,-1
 1486 672 l 1,9,-1
 1644 1522 l 1,10,-1
 2011 1522 l 1,11,-1
 1610 -10 l 1,12,-1
 1235 -10 l 1,13,-1
 1040 785 l 1,14,-1
 991 1103 l 1,15,-1
 948 784 l 1,16,-1
 755 -10 l 1,17,-1
 387 -10 l 1,18,-1
 -13 1522 l 1,0,-1
EndSplineSet
EndChar

StartChar: X
Encoding: 88 88 80
Width: 1395
GlyphClass: 2
Flags: W
LayerCount: 2
Fore
SplineSet
463 779 m 1,0,-1
 26 1522 l 1,1,-1
 445 1523 l 1,2,-1
 654 1140 l 1,3,-1
 714 1024 l 1,4,-1
 970 1522 l 1,5,-1
 1370 1522 l 1,6,-1
 928 756 l 1,7,-1
 1384 0 l 1,8,-1
 962 0 l 1,9,-1
 749 392 l 1,10,-1
 685 523 l 1,11,-1
 622 392 l 1,12,-1
 416 0 l 1,13,-1
 14 0 l 1,14,-1
 463 779 l 1,0,-1
EndSplineSet
EndChar

StartChar: Y
Encoding: 89 89 81
Width: 1289
GlyphClass: 2
Flags: W
LayerCount: 2
Fore
SplineSet
448 536 m 1,0,-1
 -53 1522 l 1,1,-1
 364 1522 l 1,2,-1
 590 1030 l 1,3,-1
 654 860 l 1,4,-1
 708 1030 l 1,5,-1
 937 1522 l 1,6,-1
 1342 1522 l 1,7,-1
 837 534 l 1,8,-1
 837 0 l 1,9,-1
 448 0 l 1,10,-1
 448 536 l 1,0,-1
EndSplineSet
EndChar

StartChar: Z
Encoding: 90 90 82
Width: 1302
GlyphClass: 2
Flags: W
LayerCount: 2
Fore
SplineSet
36 84 m 1,0,-1
 661 1146 l 1,1,-1
 728 1244 l 1,2,-1
 108 1244 l 1,3,-1
 108 1522 l 1,4,-1
 1203 1522 l 1,5,-1
 1244 1441 l 1,6,-1
 631 389 l 1,7,-1
 557 284 l 1,8,-1
 1206 284 l 1,9,-1
 1206 0 l 1,10,-1
 78 0 l 1,11,-1
 36 84 l 1,0,-1
EndSplineSet
EndChar

StartChar: bracketleft
Encoding: 91 91 83
Width: 814
GlyphClass: 2
Flags: W
LayerCount: 2
Fore
SplineSet
700 -187 m 1,0,1
 476 -215 476 -215 374 -215 c 128,-1,2
 272 -215 272 -215 233.5 -198.5 c 128,-1,3
 195 -182 195 -182 172 -148 c 0,4,5
 128 -84 128 -84 128 68 c 2,6,-1
 128 1486 l 2,7,8
 128 1635 128 1635 172 1692 c 256,9,10
 216 1749 216 1749 330 1749 c 0,11,12
 460 1749 460 1749 560 1739 c 2,13,-1
 700 1725 l 1,14,-1
 700 1543 l 1,15,-1
 449 1543 l 1,16,-1
 449 -12 l 1,17,-1
 700 -13 l 1,18,-1
 700 -187 l 1,0,1
EndSplineSet
EndChar

StartChar: asciicircum
Encoding: 94 94 86
Width: 1390
GlyphClass: 2
Flags: W
LayerCount: 2
Fore
SplineSet
575 1531 m 1,0,-1
 816 1531 l 1,1,-1
 1252 490 l 1,2,-1
 927 490 l 1,3,-1
 694 1075 l 1,4,-1
 468 490 l 1,5,-1
 138 490 l 1,6,-1
 575 1531 l 1,0,-1
EndSplineSet
EndChar

StartChar: underscore
Encoding: 95 95 87
Width: 1700
GlyphClass: 2
Flags: W
LayerCount: 2
Fore
SplineSet
1736 -233 m 1,0,-1
 1736 -408 l 1,1,-1
 -36 -408 l 1,2,-1
 -36 -233 l 1,3,-1
 1736 -233 l 1,0,-1
EndSplineSet
EndChar

StartChar: grave
Encoding: 96 96 88
Width: 700
GlyphClass: 2
Flags: W
LayerCount: 2
Fore
SplineSet
483 1222 m 1,0,1
 406 1259 406 1259 266 1388 c 1,2,3
 111 1529 111 1529 65 1636 c 1,4,-1
 309 1825 l 1,5,6
 415 1647 415 1647 566 1470 c 0,7,8
 613 1415 613 1415 652 1380 c 1,9,-1
 483 1222 l 1,0,1
EndSplineSet
EndChar

StartChar: a
Encoding: 97 97 89
Width: 1263
GlyphClass: 2
Flags: W
LayerCount: 2
Fore
SplineSet
775 96 m 1,0,1
 647 -16 647 -16 457 -16 c 0,2,3
 289 -16 289 -16 186 86 c 1,4,5
 85 188 85 188 85 348 c 0,6,7
 85 449 85 449 140 522.5 c 128,-1,8
 195 596 195 596 268.5 627.5 c 128,-1,9
 342 659 342 659 401.5 673 c 128,-1,10
 461 687 461 687 522 694 c 0,11,12
 625 706 625 706 756 706 c 1,13,-1
 756 775 l 2,14,15
 756 850 756 850 716 874 c 0,16,17
 674 898 674 898 548 898 c 0,18,19
 446 898 446 898 289 850 c 0,20,21
 242 835 242 835 204 817 c 1,22,-1
 129 1035 l 1,23,24
 252 1110 252 1110 478 1148 c 0,25,26
 554 1160 554 1160 659.5 1160 c 128,-1,27
 765 1160 765 1160 859 1137 c 128,-1,28
 953 1114 953 1114 1012 1062 c 0,29,30
 1124 965 1124 965 1124 729 c 2,31,-1
 1124 -16 l 1,32,-1
 892 -16 l 2,33,34
 828 -16 828 -16 809 -4 c 0,35,36
 775 19 775 19 775 88 c 2,37,-1
 775 96 l 1,0,1
467 362 m 0,38,39
 467 326 467 326 479 297 c 128,-1,40
 491 268 491 268 512 249 c 0,41,42
 551 212 551 212 612 212 c 0,43,44
 677 212 677 212 733 244 c 0,45,46
 748 252 748 252 756 260 c 1,47,-1
 756 528 l 1,48,49
 631 528 631 528 556 493 c 1,50,51
 467 460 467 460 467 362 c 0,38,39
EndSplineSet
Substitution2: "Single Substitution lookup 16 subtable" ordfeminine
Substitution2: "'aalt' Access All Alternates in Latin lookup 0 subtable" ordfeminine
EndChar

StartChar: b
Encoding: 98 98 90
Width: 1381
GlyphClass: 2
Flags: W
LayerCount: 2
Fore
SplineSet
522 1041 m 1,0,1
 649 1156 649 1156 844 1156 c 0,2,3
 1038 1156 1038 1156 1161 1022 c 0,4,5
 1296 876 1296 876 1296 612 c 0,6,7
 1296 323 1296 323 1131 150 c 0,8,9
 967 -21 967 -21 692 -21 c 0,10,11
 475 -21 475 -21 256 32 c 0,12,13
 174 51 174 51 159 64 c 1,14,-1
 159 1661 l 1,15,-1
 530 1661 l 1,16,-1
 530 1250 l 1,17,-1
 522 1041 l 1,0,1
530 262 m 1,18,19
 560 228 560 228 686 228 c 0,20,21
 784 228 784 228 845 322 c 0,22,23
 909 420 909 420 909 590 c 0,24,25
 909 824 909 824 794 868 c 0,26,27
 759 881 759 881 723.5 881 c 128,-1,28
 688 881 688 881 660 875.5 c 128,-1,29
 632 870 632 870 608 861 c 0,30,31
 559 843 559 843 530 821 c 1,32,-1
 530 262 l 1,18,19
EndSplineSet
EndChar

StartChar: c
Encoding: 99 99 91
Width: 1048
GlyphClass: 2
Flags: W
LayerCount: 2
Fore
SplineSet
950 309 m 1,0,-1
 995 100 l 1,1,2
 916 21 916 21 746 -7 c 0,3,4
 692 -16 692 -16 637 -16 c 0,5,6
 365 -16 365 -16 220 148 c 1,7,8
 85 299 85 299 85 559 c 0,9,10
 85 824 85 824 225 982 c 0,11,12
 378 1156 378 1156 664 1156 c 0,13,14
 829 1156 829 1156 936 1119 c 0,15,16
 965 1109 965 1109 979 1099 c 1,17,-1
 937 821 l 1,18,19
 855 868 855 868 714 868 c 0,20,21
 549 868 549 868 484 720 c 0,22,23
 460 663 460 663 460 577.5 c 128,-1,24
 460 492 460 492 479 434 c 128,-1,25
 498 376 498 376 533 338 c 0,26,27
 599 268 599 268 730 268 c 128,-1,28
 861 268 861 268 950 309 c 1,0,-1
EndSplineSet
EndChar

StartChar: d
Encoding: 100 100 92
Width: 1381
GlyphClass: 2
Flags: W
LayerCount: 2
Fore
SplineSet
882 118 m 1,0,1
 748 -16 748 -16 537 -16 c 0,2,3
 343 -16 343 -16 220 119 c 0,4,5
 85 267 85 267 85 531 c 0,6,7
 85 819 85 819 244 988 c 0,8,9
 403 1156 403 1156 666 1156 c 0,10,11
 770 1156 770 1156 854 1128 c 1,12,-1
 851 1250 l 1,13,-1
 851 1662 l 1,14,-1
 1221 1662 l 1,15,-1
 1221 -16 l 1,16,-1
 937 -16 l 2,17,18
 882 -16 882 -16 882 38 c 2,19,-1
 882 118 l 1,0,1
851 868 m 1,20,21
 808 900 808 900 727 900 c 128,-1,22
 646 900 646 900 605.5 878 c 128,-1,23
 565 856 565 856 536 812 c 0,24,25
 473 720 473 720 473 549 c 0,26,27
 473 323 473 323 584 276 c 0,28,29
 620 261 620 261 664 261 c 0,30,31
 773 261 773 261 851 313 c 1,32,-1
 851 868 l 1,20,21
EndSplineSet
EndChar

StartChar: e
Encoding: 101 101 93
Width: 1221
GlyphClass: 2
Flags: W
LayerCount: 2
Fore
SplineSet
455 483 m 1,0,1
 477 246 477 246 740 246 c 0,2,3
 871 246 871 246 990 282 c 0,4,5
 1025 293 1025 293 1046 304 c 1,6,-1
 1103 107 l 1,7,8
 1004 26 1004 26 798 -6 c 0,9,10
 729 -16 729 -16 622 -16 c 128,-1,11
 515 -16 515 -16 409 24.5 c 128,-1,12
 303 65 303 65 231 141 c 0,13,14
 85 295 85 295 85 575 c 0,15,16
 85 830 85 830 235 990 c 0,17,18
 390 1156 390 1156 657 1156 c 0,19,20
 986 1156 986 1156 1094 920 c 0,21,22
 1135 830 1135 830 1135.5 701 c 128,-1,23
 1136 572 1136 572 1124 483 c 1,24,-1
 455 483 l 1,0,1
793 668 m 1,25,26
 794 690 794 690 794 710 c 0,27,28
 794 804 794 804 764 860.5 c 128,-1,29
 734 917 734 917 649 917 c 0,30,31
 525 917 525 917 481 786 c 0,32,33
 465 739 465 739 458 668 c 1,34,-1
 793 668 l 1,25,26
EndSplineSet
EndChar

StartChar: f
Encoding: 102 102 94
Width: 881
GlyphClass: 2
Flags: W
LayerCount: 2
Fore
SplineSet
884 1407 m 1,0,1
 837 1432 837 1432 754.5 1432 c 128,-1,2
 672 1432 672 1432 633 1387.5 c 128,-1,3
 594 1343 594 1343 594 1243 c 2,4,-1
 594 1140 l 1,5,-1
 841 1140 l 1,6,-1
 841 897 l 1,7,-1
 594 897 l 1,8,-1
 594 0 l 1,9,-1
 222 0 l 1,10,-1
 222 897 l 1,11,-1
 79 897 l 1,12,-1
 79 1113 l 1,13,-1
 222 1140 l 1,14,-1
 222 1257 l 2,15,16
 222 1482 222 1482 364 1594 c 1,17,18
 481 1684 481 1684 664 1684 c 0,19,20
 792 1684 792 1684 884 1661 c 1,21,-1
 884 1407 l 1,0,1
EndSplineSet
EndChar

StartChar: g
Encoding: 103 103 95
Width: 1361
GlyphClass: 2
Flags: W
LayerCount: 2
Fore
SplineSet
516 429 m 1,0,1
 480 397 480 397 480 352 c 128,-1,2
 480 307 480 307 512 290.5 c 128,-1,3
 544 274 544 274 625 274 c 2,4,-1
 851 274 l 2,5,6
 1098 274 1098 274 1210 169 c 0,7,8
 1302 82 1302 82 1302 -72 c 0,9,10
 1302 -286 1302 -286 1100 -408 c 0,11,12
 920 -516 920 -516 666 -516 c 0,13,14
 214 -516 214 -516 102 -312 c 0,15,16
 67 -249 67 -249 67 -172.5 c 128,-1,17
 67 -96 67 -96 110 -32 c 128,-1,18
 153 32 153 32 238 70 c 1,19,20
 146 121 146 121 146 236 c 0,21,22
 146 343 146 343 244 422 c 0,23,24
 279 450 279 450 332 473 c 1,25,26
 104 565 104 565 104 785 c 0,27,28
 104 1061 104 1061 406 1132 c 0,29,30
 504 1155 504 1155 630 1155 c 0,31,32
 879 1155 879 1155 1016 1071 c 1,33,34
 1099 1140 1099 1140 1210 1140 c 2,35,-1
 1338 1140 l 1,36,-1
 1338 885 l 1,37,-1
 1154 885 l 1,38,39
 1165 839 1165 839 1165 772 c 128,-1,40
 1165 705 1165 705 1133.5 637 c 128,-1,41
 1102 569 1102 569 1037 522 c 0,42,43
 902 423 902 423 630 423 c 0,44,45
 570 423 570 423 516 429 c 1,0,1
750 644 m 0,46,47
 808 692 808 692 808 787 c 0,48,49
 808 964 808 964 637 964 c 0,50,51
 507 964 507 964 472 873 c 0,52,53
 459 839 459 839 459 773 c 128,-1,54
 459 707 459 707 502 662 c 128,-1,55
 545 617 545 617 631.5 617 c 128,-1,56
 718 617 718 617 750 644 c 0,46,47
474 11 m 1,57,58
 439 -39 439 -39 439 -104 c 0,59,60
 439 -248 439 -248 556 -297 c 0,61,62
 601 -316 601 -316 665 -316 c 128,-1,63
 729 -316 729 -316 777 -307 c 128,-1,64
 825 -298 825 -298 860 -278 c 0,65,66
 934 -234 934 -234 934 -147 c 0,67,68
 934 -69 934 -69 903 -42 c 0,69,70
 844 11 844 11 717 11 c 2,71,-1
 474 11 l 1,57,58
EndSplineSet
EndChar

StartChar: h
Encoding: 104 104 96
Width: 1380
GlyphClass: 2
Flags: W
LayerCount: 2
Fore
SplineSet
159 1662 m 1,0,-1
 530 1662 l 1,1,-1
 530 1234 l 1,2,-1
 512 1021 l 1,3,4
 615 1109 615 1109 762 1144 c 0,5,6
 819 1158 819 1158 882 1158 c 0,7,8
 1058 1158 1058 1158 1144 1051 c 128,-1,9
 1230 944 1230 944 1230 715 c 2,10,-1
 1230 0 l 1,11,-1
 859 0 l 1,12,-1
 859 652 l 2,13,14
 859 833 859 833 777 859 c 0,15,16
 752 867 752 867 734 867 c 128,-1,17
 716 867 716 867 705.5 867 c 128,-1,18
 695 867 695 867 672 863 c 128,-1,19
 649 859 649 859 624 850 c 0,20,21
 568 831 568 831 530 793 c 1,22,-1
 530 0 l 1,23,-1
 159 0 l 1,24,-1
 159 1662 l 1,0,-1
EndSplineSet
EndChar

StartChar: k
Encoding: 107 107 99
Width: 1287
GlyphClass: 2
Flags: W
LayerCount: 2
Fore
SplineSet
159 1661 m 1,0,-1
 530 1661 l 1,1,-1
 530 1032 l 1,2,-1
 518 720 l 1,3,-1
 858 1140 l 1,4,-1
 1279 1140 l 1,5,-1
 874 699 l 1,6,-1
 1306 0 l 1,7,-1
 895 0 l 1,8,-1
 635 440 l 1,9,-1
 527 323 l 1,10,-1
 530 189 l 1,11,-1
 530 0 l 1,12,-1
 159 0 l 1,13,-1
 159 1661 l 1,0,-1
EndSplineSet
EndChar

StartChar: l
Encoding: 108 108 100
Width: 697
GlyphClass: 2
Flags: W
LayerCount: 2
Fore
SplineSet
163 1662 m 1,0,-1
 534 1662 l 1,1,-1
 534 0 l 1,2,-1
 163 0 l 1,3,-1
 163 1662 l 1,0,-1
EndSplineSet
EndChar

StartChar: m
Encoding: 109 109 101
Width: 2065
GlyphClass: 2
Flags: W
LayerCount: 2
Fore
SplineSet
1224 794 m 1,0,1
 1226 760 1226 760 1226 721 c 2,2,-1
 1226 0 l 1,3,-1
 858 0 l 1,4,-1
 858 652 l 2,5,6
 858 776 858 776 834.5 811.5 c 128,-1,7
 811 847 811 847 784.5 857 c 128,-1,8
 758 867 758 867 738.5 867 c 128,-1,9
 719 867 719 867 707.5 867 c 128,-1,10
 696 867 696 867 672 862 c 128,-1,11
 648 857 648 857 624 848 c 0,12,13
 571 829 571 829 533 793 c 1,14,-1
 533 0 l 1,15,-1
 163 0 l 1,16,-1
 163 1140 l 1,17,-1
 501 1140 l 1,18,-1
 510 1018 l 1,19,20
 617 1107 617 1107 772 1144 c 0,21,22
 831 1158 831 1158 894 1158 c 0,23,24
 1091 1158 1091 1158 1167 1026 c 1,25,26
 1334 1158 1334 1158 1548 1158 c 0,27,28
 1730 1158 1730 1158 1818 1064 c 0,29,30
 1915 959 1915 959 1915 719 c 2,31,-1
 1915 0 l 1,32,-1
 1544 0 l 1,33,-1
 1544 653 l 2,34,35
 1544 777 1544 777 1520.5 812.5 c 128,-1,36
 1497 848 1497 848 1470.5 857.5 c 128,-1,37
 1444 867 1444 867 1424 867 c 128,-1,38
 1404 867 1404 867 1400 867 c 0,39,40
 1308 867 1308 867 1224 794 c 1,0,1
EndSplineSet
EndChar

StartChar: n
Encoding: 110 110 102
Width: 1380
GlyphClass: 2
Flags: W
LayerCount: 2
Fore
SplineSet
163 1140 m 1,0,-1
 501 1140 l 1,1,-1
 510 1018 l 1,2,3
 617 1108 617 1108 778 1145 c 0,4,5
 835 1158 835 1158 904.5 1158 c 128,-1,6
 974 1158 974 1158 1037 1136.5 c 128,-1,7
 1100 1115 1100 1115 1144 1063 c 0,8,9
 1230 960 1230 960 1230 718 c 2,10,-1
 1230 0 l 1,11,-1
 860 0 l 1,12,-1
 860 652 l 2,13,14
 860 776 860 776 828 823 c 0,15,16
 798 867 798 867 722 867 c 0,17,18
 719 867 719 867 696.5 867 c 128,-1,19
 674 867 674 867 622.5 848 c 128,-1,20
 571 829 571 829 533 793 c 1,21,-1
 533 0 l 1,22,-1
 163 0 l 1,23,-1
 163 1140 l 1,0,-1
EndSplineSet
EndChar

StartChar: o
Encoding: 111 111 103
Width: 1330
GlyphClass: 2
Flags: W
LayerCount: 2
Fore
SplineSet
138 290 m 0,0,1
 110 357 110 357 98 431 c 128,-1,2
 86 505 86 505 86 615 c 128,-1,3
 86 725 86 725 131.5 832.5 c 128,-1,4
 177 940 177 940 255 1012 c 0,5,6
 413 1156 413 1156 676 1156 c 0,7,8
 1066 1156 1066 1156 1193 850 c 0,9,10
 1244 727 1244 727 1244 560 c 0,11,12
 1244 281 1244 281 1076 128 c 0,13,14
 918 -16 918 -16 655 -16 c 0,15,16
 265 -16 265 -16 138 290 c 0,0,1
471 582 m 0,17,18
 471 239 471 239 663 239 c 0,19,20
 770 239 770 239 816 320 c 0,21,22
 859 395 859 395 859 564 c 0,23,24
 859 899 859 899 669 899 c 0,25,26
 512 899 512 899 481 719 c 0,27,28
 471 660 471 660 471 582 c 0,17,18
EndSplineSet
Substitution2: "Single Substitution lookup 16 subtable" ordmasculine
Substitution2: "'aalt' Access All Alternates in Latin lookup 0 subtable" ordmasculine
EndChar

StartChar: p
Encoding: 112 112 104
Width: 1384
GlyphClass: 2
Flags: W
LayerCount: 2
Fore
SplineSet
953.5 28 m 128,-1,1
 846 -16 846 -16 728 -16 c 128,-1,2
 610 -16 610 -16 526 12 c 1,3,-1
 530 -139 l 1,4,-1
 530 -506 l 1,5,-1
 159 -506 l 1,6,-1
 159 1140 l 1,7,-1
 509 1140 l 1,8,-1
 509 1029 l 1,9,10
 643 1156 643 1156 844 1156 c 0,11,12
 1040 1156 1040 1156 1163 1022 c 0,13,14
 1299 874 1299 874 1299 612 c 0,15,16
 1299 324 1299 324 1138 154 c 0,17,0
 1061 72 1061 72 953.5 28 c 128,-1,1
530 275 m 1,18,19
 573 234 573 234 687 234 c 0,20,21
 787 234 787 234 846 325 c 1,22,23
 909 420 909 420 909 590 c 0,24,25
 909 819 909 819 798 866 c 0,26,27
 762 881 762 881 726.5 881 c 128,-1,28
 691 881 691 881 663.5 876 c 128,-1,29
 636 871 636 871 612 862 c 0,30,31
 559 844 559 844 530 821 c 1,32,-1
 530 275 l 1,18,19
EndSplineSet
EndChar

StartChar: q
Encoding: 113 113 105
Width: 1382
GlyphClass: 2
Flags: W
LayerCount: 2
Fore
SplineSet
858 95 m 1,0,1
 735 -16 735 -16 539 -16 c 0,2,3
 344 -16 344 -16 221 119 c 0,4,5
 85 268 85 268 85 531 c 0,6,7
 85 818 85 818 246 988 c 0,8,9
 404 1156 404 1156 668 1156 c 0,10,11
 820 1156 820 1156 955 1104 c 1,12,-1
 1223 1140 l 1,13,-1
 1223 -506 l 1,14,-1
 853 -506 l 1,15,-1
 853 -139 l 1,16,-1
 858 95 l 1,0,1
853 868 m 1,17,18
 810 900 810 900 729 900 c 128,-1,19
 648 900 648 900 607.5 878 c 128,-1,20
 567 856 567 856 538 812 c 0,21,22
 475 720 475 720 475 549 c 0,23,24
 475 323 475 323 586 276 c 0,25,26
 622 261 622 261 657.5 261 c 128,-1,27
 693 261 693 261 719.5 265.5 c 128,-1,28
 746 270 746 270 771 277 c 0,29,30
 822 291 822 291 853 314 c 1,31,-1
 853 868 l 1,17,18
EndSplineSet
EndChar

StartChar: r
Encoding: 114 114 106
Width: 966
GlyphClass: 2
Flags: W
LayerCount: 2
Fore
SplineSet
783 806 m 0,0,1
 620 806 620 806 524 698 c 1,2,-1
 524 0 l 1,3,-1
 153 0 l 1,4,-1
 153 1140 l 1,5,-1
 478 1140 l 1,6,-1
 494 957 l 1,7,8
 552 1096 552 1096 712 1143 c 0,9,10
 764 1158 764 1158 825 1158 c 128,-1,11
 886 1158 886 1158 905 1144 c 1,12,-1
 905 779 l 1,13,14
 858 806 858 806 783 806 c 0,0,1
EndSplineSet
EndChar

StartChar: s
Encoding: 115 115 107
Width: 1084
GlyphClass: 2
Flags: W
LayerCount: 2
Fore
SplineSet
143 332 m 1,0,1
 207 278 207 278 368 243 c 0,2,3
 423 231 423 231 497 231 c 0,4,5
 645 231 645 231 645 314 c 0,6,7
 645 375 645 375 502 428 c 0,8,9
 456 445 456 445 387.5 467.5 c 128,-1,10
 319 490 319 490 263 525 c 128,-1,11
 207 560 207 560 172 604 c 0,12,13
 104 689 104 689 104 824 c 0,14,15
 104 983 104 983 244 1072 c 1,16,17
 373 1156 373 1156 578 1156 c 0,18,19
 818 1156 818 1156 945 1086 c 1,20,-1
 912 826 l 1,21,22
 846 879 846 879 720 904 c 0,23,24
 678 913 678 913 610 913 c 0,25,26
 464 913 464 913 462 835 c 1,27,28
 462 791 462 791 512 760 c 0,29,30
 558 732 558 732 666.5 697.5 c 128,-1,31
 775 663 775 663 834 631.5 c 128,-1,32
 893 600 893 600 932 558 c 1,33,34
 1011 476 1011 476 1011 346 c 0,35,36
 1011 170 1011 170 880 76 c 0,37,38
 752 -17 752 -17 530 -17 c 0,39,40
 332 -17 332 -17 174 44 c 0,41,42
 131 61 131 61 107 76 c 1,43,-1
 143 332 l 1,0,1
EndSplineSet
EndChar

StartChar: t
Encoding: 116 116 108
Width: 926
GlyphClass: 2
Flags: W
LayerCount: 2
Fore
SplineSet
189 897 m 1,0,-1
 57 897 l 1,1,-1
 57 1093 l 1,2,3
 186 1131 186 1131 214 1157.5 c 128,-1,4
 242 1184 242 1184 252.5 1205 c 128,-1,5
 263 1226 263 1226 272.5 1249.5 c 128,-1,6
 282 1273 282 1273 292.5 1298.5 c 128,-1,7
 303 1324 303 1324 313.5 1350.5 c 128,-1,8
 324 1377 324 1377 334 1400 c 1,9,-1
 559 1400 l 1,10,-1
 559 1140 l 1,11,-1
 855 1140 l 1,12,-1
 855 897 l 1,13,-1
 559 897 l 1,14,-1
 559 491 l 2,15,16
 559 339 559 339 587 296 c 0,17,18
 602 273 602 273 627.5 267 c 128,-1,19
 653 261 653 261 681.5 261 c 128,-1,20
 710 261 710 261 733.5 264.5 c 128,-1,21
 757 268 757 268 780 274 c 0,22,23
 834 289 834 289 858 306 c 1,24,-1
 902 100 l 1,25,26
 827 29 827 29 644 -5 c 0,27,28
 584 -16 584 -16 507 -16 c 128,-1,29
 430 -16 430 -16 366.5 7 c 128,-1,30
 303 30 303 30 264 76 c 0,31,32
 189 164 189 164 189 355 c 2,33,-1
 189 897 l 1,0,-1
EndSplineSet
EndChar

StartChar: u
Encoding: 117 117 109
Width: 1362
GlyphClass: 2
Flags: W
LayerCount: 2
Fore
SplineSet
145 1140 m 1,0,-1
 516 1140 l 1,1,-1
 516 461 l 2,2,3
 516 336 516 336 553 291 c 0,4,5
 587 250 587 250 667 250 c 0,6,7
 738 250 738 250 802 285 c 0,8,9
 819 294 819 294 829 303 c 1,10,-1
 829 1140 l 1,11,-1
 1200 1140 l 1,12,-1
 1200 -16 l 1,13,-1
 932 -16 l 2,14,15
 897 -16 897 -16 880 -5.5 c 128,-1,16
 863 5 863 5 863 42 c 2,17,-1
 863 90 l 1,18,19
 770 19 770 19 616 -8 c 0,20,21
 571 -16 571 -16 531 -16 c 0,22,23
 300 -16 300 -16 213 122 c 0,24,25
 145 228 145 228 145 470 c 2,26,-1
 145 1140 l 1,0,-1
EndSplineSet
EndChar

StartChar: v
Encoding: 118 118 110
Width: 1203
GlyphClass: 2
Flags: W
LayerCount: 2
Fore
SplineSet
-5 1140 m 1,0,-1
 392 1140 l 1,1,-1
 539 643 l 1,2,-1
 611 352 l 1,3,-1
 678 643 l 1,4,-1
 820 1140 l 1,5,-1
 1208 1140 l 1,6,-1
 781 -16 l 1,7,-1
 427 -16 l 1,8,-1
 -5 1140 l 1,0,-1
EndSplineSet
EndChar

StartChar: w
Encoding: 119 119 111
Width: 1783
GlyphClass: 2
Flags: W
LayerCount: 2
Fore
SplineSet
-2 1140 m 1,0,-1
 359 1140 l 1,1,-1
 476 679 l 1,2,-1
 537 380 l 1,3,-1
 606 679 l 1,4,-1
 741 1140 l 1,5,-1
 1074 1140 l 1,6,-1
 1208 679 l 1,7,-1
 1273 380 l 1,8,-1
 1333 680 l 1,9,-1
 1441 1140 l 1,10,-1
 1785 1140 l 1,11,-1
 1426 -16 l 1,12,-1
 1101 -16 l 1,13,-1
 935 545 l 1,14,-1
 892 759 l 1,15,-1
 848 545 l 1,16,-1
 688 -16 l 1,17,-1
 353 -16 l 1,18,-1
 -2 1140 l 1,0,-1
EndSplineSet
EndChar

StartChar: x
Encoding: 120 120 112
Width: 1238
GlyphClass: 2
Flags: W
LayerCount: 2
Fore
SplineSet
407 574 m 1,0,-1
 8 1140 l 1,1,-1
 427 1140 l 1,2,-1
 585 893 l 1,3,-1
 630 817 l 1,4,-1
 670 893 l 1,5,-1
 820 1140 l 1,6,-1
 1233 1140 l 1,7,-1
 829 582 l 1,8,-1
 1241 0 l 1,9,-1
 819 0 l 1,10,-1
 614 328 l 1,11,-1
 589 279 l 1,12,-1
 431 0 l 1,13,-1
 6 0 l 1,14,-1
 407 574 l 1,0,-1
EndSplineSet
EndChar

StartChar: y
Encoding: 121 121 113
Width: 1208
GlyphClass: 2
Flags: W
LayerCount: 2
Fore
SplineSet
121 -203 m 1,0,1
 145 -212 145 -212 188.5 -218 c 128,-1,2
 232 -224 232 -224 257.5 -224 c 128,-1,3
 283 -224 283 -224 325.5 -218.5 c 128,-1,4
 368 -213 368 -213 407 -190 c 0,5,6
 495 -140 495 -140 531 0 c 1,7,-1
 389 0 l 1,8,-1
 -4 1140 l 1,9,-1
 387 1140 l 1,10,-1
 551 540 l 1,11,-1
 626 227 l 1,12,-1
 822 1140 l 1,13,-1
 1210 1140 l 1,14,-1
 851 -27 l 1,15,16
 740 -381 740 -381 487 -475 c 1,17,18
 411 -507 411 -507 290 -507 c 0,19,20
 237 -507 237 -507 181 -498.5 c 128,-1,21
 125 -490 125 -490 121 -487 c 1,22,-1
 121 -203 l 1,0,1
EndSplineSet
EndChar

StartChar: z
Encoding: 122 122 114
Width: 1110
GlyphClass: 2
Flags: W
LayerCount: 2
Fore
SplineSet
52 83 m 1,0,-1
 570 888 l 1,1,-1
 120 888 l 1,2,-1
 122 1140 l 1,3,-1
 1025 1140 l 1,4,-1
 1060 1045 l 1,5,-1
 613 352 l 1,6,-1
 547 260 l 1,7,-1
 1039 260 l 1,8,-1
 1039 0 l 1,9,-1
 94 0 l 1,10,-1
 52 83 l 1,0,-1
EndSplineSet
EndChar

StartChar: braceleft
Encoding: 123 123 115
Width: 998
GlyphClass: 2
Flags: W
LayerCount: 2
Fore
SplineSet
888 -186 m 1,0,1
 764 -221 764 -221 562 -221 c 0,2,3
 446 -221 446 -221 387 -154.5 c 128,-1,4
 328 -88 328 -88 328 60 c 2,5,-1
 328 529 l 2,6,7
 328 585 328 585 236 630 c 0,8,9
 162 666 162 666 69 676 c 1,10,-1
 69 878 l 1,11,12
 228 895 228 895 302 961 c 0,13,14
 328 985 328 985 328 1017 c 2,15,-1
 328 1486 l 2,16,17
 328 1698 328 1698 460 1746 c 0,18,19
 504 1761 504 1761 600 1761 c 128,-1,20
 696 1761 696 1761 888 1737 c 1,21,-1
 888 1550 l 1,22,-1
 641 1550 l 1,23,-1
 641 1009 l 2,24,25
 641 916 641 916 564 862 c 1,26,27
 494 811 494 811 388 776 c 1,28,29
 546 721 546 721 593.5 668 c 128,-1,30
 641 615 641 615 641 547 c 2,31,-1
 641 -12 l 1,32,-1
 888 -12 l 1,33,-1
 888 -186 l 1,0,1
EndSplineSet
EndChar

StartChar: bar
Encoding: 124 124 116
Width: 862
GlyphClass: 2
Flags: W
LayerCount: 2
Fore
SplineSet
287 1780 m 1,0,-1
 575 1780 l 1,1,-1
 575 -186 l 1,2,-1
 287 -186 l 1,3,-1
 287 1780 l 1,0,-1
EndSplineSet
EndChar

StartChar: asciitilde
Encoding: 126 126 118
Width: 1446
GlyphClass: 2
Flags: W
LayerCount: 2
Fore
SplineSet
932 913 m 0,0,1
 1031 913 1031 913 1129 1017 c 1,2,-1
 1256 855 l 1,3,4
 1237 782 1237 782 1146 713 c 0,5,6
 1039 632 1039 632 916 632 c 0,7,8
 800 632 800 632 704 711 c 0,9,10
 641 762 641 762 605 776 c 128,-1,11
 569 790 569 790 531 790 c 128,-1,12
 493 790 493 790 464 780 c 128,-1,13
 435 770 435 770 412 754 c 1,14,15
 385 737 385 737 334 686 c 1,16,-1
 190 834 l 1,17,18
 210 904 210 904 302 979 c 0,19,20
 413 1069 413 1069 535 1069 c 0,21,22
 655 1069 655 1069 758 991 c 0,23,24
 824 942 824 942 860 927.5 c 128,-1,25
 896 913 896 913 932 913 c 0,0,1
EndSplineSet
EndChar

StartChar: cent
Encoding: 162 162 122
Width: 1200
GlyphClass: 2
Flags: W
LayerCount: 2
Fore
SplineSet
1001 309 m 1,0,-1
 1046 100 l 1,1,2
 950 4 950 4 741 -13 c 1,3,-1
 737 -216 l 1,4,-1
 551 -216 l 1,5,-1
 556 -5 l 1,6,7
 349 32 349 32 239 188 c 0,8,9
 136 335 136 335 136 559 c 0,10,11
 136 919 136 919 384 1072 c 1,12,13
 468 1125 468 1125 583 1145 c 1,14,-1
 589 1377 l 1,15,-1
 774 1377 l 1,16,-1
 769 1154 l 1,17,18
 968 1146 968 1146 1030 1099 c 1,19,-1
 988 821 l 1,20,21
 906 868 906 868 765 868 c 0,22,23
 600 868 600 868 536 720 c 0,24,25
 511 663 511 663 511 577.5 c 128,-1,26
 511 492 511 492 530 434 c 128,-1,27
 549 376 549 376 584 338 c 0,28,29
 650 268 650 268 781 268 c 128,-1,30
 912 268 912 268 1001 309 c 1,0,-1
EndSplineSet
EndChar

StartChar: sterling
Encoding: 163 163 123
Width: 1616
GlyphClass: 2
Flags: W
LayerCount: 2
Fore
SplineSet
1374 630 m 1,0,1
 1527 534 1527 534 1527 354 c 0,2,3
 1527 92 1527 92 1264 12 c 0,4,5
 1173 -16 1173 -16 1055 -16 c 128,-1,6
 937 -16 937 -16 850.5 0 c 128,-1,7
 764 16 764 16 696 35 c 128,-1,8
 628 54 628 54 575 70 c 128,-1,9
 522 86 522 86 477 87 c 1,10,11
 418 28 418 28 324 1 c 0,12,13
 293 -8 293 -8 264.5 -8 c 128,-1,14
 236 -8 236 -8 208 -1.5 c 128,-1,15
 180 5 180 5 156 20 c 1,16,17
 103 56 103 56 103 112 c 128,-1,18
 103 168 103 168 127 202 c 128,-1,19
 151 236 151 236 189 260 c 0,20,21
 265 307 265 307 369 311 c 1,22,23
 404 343 404 343 404 550 c 2,24,-1
 404 689 l 1,25,-1
 229 689 l 1,26,-1
 229 891 l 1,27,-1
 404 891 l 1,28,-1
 404 1027 l 2,29,30
 404 1256 404 1256 550 1394 c 0,31,32
 702 1538 702 1538 974 1538 c 0,33,34
 1198 1538 1198 1538 1362 1435 c 1,35,-1
 1216 1164 l 1,36,37
 1156 1215 1156 1215 1066 1237 c 0,38,39
 1033 1245 1033 1245 991 1245 c 128,-1,40
 949 1245 949 1245 909 1236.5 c 128,-1,41
 869 1228 869 1228 840 1199 c 0,42,43
 778 1137 778 1137 778 964 c 2,44,-1
 778 891 l 1,45,-1
 1070 891 l 1,46,-1
 1070 689 l 1,47,-1
 778 689 l 1,48,-1
 778 573 l 2,49,50
 778 357 778 357 679 274 c 1,51,52
 714 266 714 266 747 256.5 c 128,-1,53
 780 247 780 247 814 240 c 0,54,55
 893 222 893 222 983 222 c 128,-1,56
 1073 222 1073 222 1126 261.5 c 128,-1,57
 1179 301 1179 301 1179 367 c 0,58,59
 1179 436 1179 436 1135 486 c 0,60,61
 1123 499 1123 499 1112 506 c 1,62,-1
 1374 630 l 1,0,1
EndSplineSet
EndChar

StartChar: currency
Encoding: 164 164 124
Width: 1565
GlyphClass: 2
Flags: W
LayerCount: 2
Fore
SplineSet
1000 367 m 1,0,1
 894 312 894 312 778 312 c 128,-1,2
 662 312 662 312 563 367 c 1,3,-1
 363 162 l 1,4,-1
 213 319 l 1,5,-1
 403 513 l 1,6,7
 325 629 325 629 325 771 c 128,-1,8
 325 913 325 913 402 1031 c 1,9,-1
 215 1225 l 1,10,-1
 363 1385 l 1,11,-1
 562 1178 l 1,12,13
 665 1235 665 1235 781 1235 c 0,14,15
 898 1235 898 1235 1004 1177 c 1,16,-1
 1221 1396 l 1,17,-1
 1371 1235 l 1,18,-1
 1164 1026 l 1,19,20
 1239 910 1239 910 1239 770 c 128,-1,21
 1239 630 1239 630 1161 514 c 1,22,-1
 1351 318 l 1,23,-1
 1203 160 l 1,24,-1
 1000 367 l 1,0,1
579 773 m 256,25,26
 579 688 579 688 638 628 c 1,27,28
 697 566 697 566 783 566 c 256,29,30
 869 566 869 566 927 628 c 0,31,32
 984 688 984 688 984 773 c 0,33,34
 984 859 984 859 927 918 c 0,35,36
 868 979 868 979 783 979 c 0,37,38
 697 979 697 979 638 918 c 0,39,40
 579 858 579 858 579 773 c 256,25,26
EndSplineSet
EndChar

StartChar: yen
Encoding: 165 165 125
Width: 1579
GlyphClass: 2
Flags: W
LayerCount: 2
Fore
SplineSet
264 460 m 1,0,-1
 618 460 l 1,1,-1
 618 642 l 1,2,-1
 264 642 l 1,3,-1
 264 851 l 1,4,-1
 554 851 l 1,5,-1
 130 1522 l 1,6,-1
 527 1522 l 1,7,-1
 727 1157 l 1,8,-1
 801 992 l 1,9,-1
 875 1156 l 1,10,-1
 1079 1522 l 1,11,-1
 1471 1522 l 1,12,-1
 1047 851 l 1,13,-1
 1305 851 l 1,14,-1
 1305 642 l 1,15,-1
 961 642 l 1,16,-1
 961 460 l 1,17,-1
 1305 460 l 1,18,-1
 1305 251 l 1,19,-1
 961 251 l 1,20,-1
 961 0 l 1,21,-1
 618 0 l 1,22,-1
 618 251 l 1,23,-1
 264 251 l 1,24,-1
 264 460 l 1,0,-1
EndSplineSet
EndChar

StartChar: brokenbar
Encoding: 166 166 126
Width: 862
GlyphClass: 2
Flags: W
LayerCount: 2
Fore
SplineSet
287 1780 m 1,0,-1
 575 1780 l 1,1,-1
 575 973 l 1,2,-1
 287 973 l 1,3,-1
 287 1780 l 1,0,-1
287 605 m 1,4,-1
 575 605 l 1,5,-1
 575 -186 l 1,6,-1
 287 -186 l 1,7,-1
 287 605 l 1,4,-1
EndSplineSet
EndChar

StartChar: section
Encoding: 167 167 127
Width: 1404
GlyphClass: 2
Flags: W
LayerCount: 2
Fore
SplineSet
1091 410 m 1,0,1
 1178 316 1178 316 1178 180 c 0,2,3
 1178 -5 1178 -5 1024 -105 c 0,4,5
 888 -193 888 -193 687 -193 c 0,6,7
 483 -193 483 -193 330 -132 c 0,8,9
 289 -116 289 -116 265 -100 c 1,10,-1
 315 167 l 1,11,12
 396 103 396 103 538 78 c 0,13,14
 592 68 592 68 642.5 68 c 128,-1,15
 693 68 693 68 726 74.5 c 128,-1,16
 759 81 759 81 784 94 c 0,17,18
 836 122 836 122 836 178 c 0,19,20
 836 209 836 209 807.5 232.5 c 128,-1,21
 779 256 779 256 732.5 277.5 c 128,-1,22
 686 299 686 299 627 320 c 128,-1,23
 568 341 568 341 506 367 c 128,-1,24
 444 393 444 393 385 426.5 c 128,-1,25
 326 460 326 460 280 506 c 0,26,27
 176 607 176 607 176 752 c 0,28,29
 176 926 176 926 364 1063 c 1,30,31
 240 1171 240 1171 240 1326 c 0,32,33
 240 1496 240 1496 390 1590 c 0,34,35
 521 1673 521 1673 719 1673 c 0,36,37
 968 1673 968 1673 1097 1600 c 1,38,-1
 1047 1333 l 1,39,40
 936 1416 936 1416 759 1416 c 128,-1,41
 582 1416 582 1416 582 1312 c 0,42,43
 582 1257 582 1257 684 1204 c 0,44,45
 730 1181 730 1181 788.5 1156.5 c 128,-1,46
 847 1132 847 1132 908.5 1103.5 c 128,-1,47
 970 1075 970 1075 1028.5 1039 c 128,-1,48
 1087 1003 1087 1003 1133 956 c 0,49,50
 1235 850 1235 850 1235 696.5 c 128,-1,51
 1235 543 1235 543 1091 410 c 1,0,1
528 958 m 1,52,53
 477 880 477 880 477 834 c 128,-1,54
 477 788 477 788 495.5 756.5 c 128,-1,55
 514 725 514 725 546.5 700 c 128,-1,56
 579 675 579 675 622 654.5 c 128,-1,57
 665 634 665 634 714 614.5 c 128,-1,58
 763 595 763 595 814.5 575 c 128,-1,59
 866 555 866 555 916 531 c 1,60,61
 943 594 943 594 943 645 c 128,-1,62
 943 696 943 696 905.5 740.5 c 128,-1,63
 868 785 868 785 808.5 821 c 128,-1,64
 749 857 749 857 675 889 c 128,-1,65
 601 921 601 921 528 958 c 1,52,53
EndSplineSet
EndChar

StartChar: dieresis
Encoding: 168 168 128
Width: 1034
GlyphClass: 2
Flags: W
LayerCount: 2
Fore
SplineSet
770 1281 m 0,0,1
 727 1281 727 1281 692 1295 c 128,-1,2
 657 1309 657 1309 632 1334 c 0,3,4
 580 1388 580 1388 580 1471 c 0,5,6
 580 1556 580 1556 640 1614 c 0,7,8
 702 1675 702 1675 786 1675 c 0,9,10
 871 1675 871 1675 922 1622 c 0,11,12
 972 1571 972 1571 972 1486 c 0,13,14
 972 1402 972 1402 914 1342 c 0,15,16
 854 1281 854 1281 770 1281 c 0,0,1
252 1281 m 0,17,18
 209 1281 209 1281 174 1295 c 128,-1,19
 139 1309 139 1309 114 1334 c 0,20,21
 62 1388 62 1388 62 1471 c 0,22,23
 62 1555 62 1555 123 1614 c 0,24,25
 185 1675 185 1675 268 1675 c 0,26,27
 400 1675 400 1675 442 1563 c 0,28,29
 455 1528 455 1528 455 1486 c 0,30,31
 455 1402 455 1402 396 1342 c 0,32,33
 337 1281 337 1281 252 1281 c 0,17,18
EndSplineSet
EndChar

StartChar: copyright
Encoding: 169 169 129
Width: 2091
GlyphClass: 2
Flags: W
LayerCount: 2
Fore
SplineSet
175 962 m 0,0,1
 175 1084 175 1084 205.5 1196.5 c 128,-1,2
 236 1309 236 1309 292.5 1406 c 128,-1,3
 349 1503 349 1503 428 1582.5 c 128,-1,4
 507 1662 507 1662 604 1719 c 0,5,6
 805 1838 805 1838 1045 1838 c 0,7,8
 1284 1838 1284 1838 1487 1719 c 0,9,10
 1790 1541 1790 1541 1885 1196 c 0,11,12
 1916 1084 1916 1084 1916 962.5 c 128,-1,13
 1916 841 1916 841 1885 728.5 c 128,-1,14
 1854 616 1854 616 1798 518.5 c 128,-1,15
 1742 421 1742 421 1663 341 c 128,-1,16
 1584 261 1584 261 1487 204 c 0,17,18
 1283 84 1283 84 1045 84 c 256,19,20
 807 84 807 84 604 204 c 0,21,22
 408 320 408 320 292 518 c 1,23,24
 175 721 175 721 175 962 c 0,0,1
317 962 m 0,25,26
 317 859 317 859 342 763.5 c 128,-1,27
 367 668 367 668 413 584.5 c 128,-1,28
 459 501 459 501 524 432.5 c 128,-1,29
 589 364 589 364 670 316 c 0,30,31
 841 213 841 213 1045 213 c 256,32,33
 1249 213 1249 213 1420 316 c 0,34,35
 1582 413 1582 413 1677 584 c 1,36,37
 1773 759 1773 759 1773 963 c 0,38,39
 1773 1274 1773 1274 1566 1492 c 0,40,41
 1435 1631 1435 1631 1244 1685 c 0,42,43
 1150 1712 1150 1712 1045 1712 c 0,44,45
 841 1712 841 1712 670 1610 c 0,46,47
 508 1513 508 1513 413 1341 c 0,48,49
 317 1168 317 1168 317 962 c 0,25,26
1324 747 m 1,50,-1
 1368 574 l 1,51,52
 1288 505 1288 505 1148 480 c 0,53,54
 1100 471 1100 471 1023.5 471 c 128,-1,55
 947 471 947 471 864 510 c 128,-1,56
 781 549 781 549 722 616 c 0,57,58
 599 754 599 754 599 954 c 0,59,60
 599 957 599 957 599 961 c 0,61,62
 599 1178 599 1178 724 1311 c 0,63,64
 858 1455 858 1455 1094 1455 c 0,65,66
 1207 1455 1207 1455 1307 1418 c 0,67,68
 1333 1409 1333 1409 1348 1400 c 1,69,-1
 1311 1195 l 1,70,71
 1231 1250 1231 1250 1098 1250 c 0,72,73
 989 1250 989 1250 920 1179 c 0,74,75
 850 1107 850 1107 850 992 c 0,76,77
 850 988 850 988 850 947 c 128,-1,78
 850 906 850 906 868 849 c 128,-1,79
 886 792 886 792 920 755 c 0,80,81
 984 684 984 684 1110.5 684 c 128,-1,82
 1237 684 1237 684 1324 747 c 1,50,-1
EndSplineSet
EndChar

StartChar: ordfeminine
Encoding: 170 170 130
Width: 1079
GlyphClass: 2
Flags: W
LayerCount: 2
Fore
SplineSet
498 674 m 0,0,1
 456 664 456 664 399 664 c 128,-1,2
 342 664 342 664 286.5 684 c 128,-1,3
 231 704 231 704 192 741 c 0,4,5
 112 817 112 817 112 946 c 0,6,7
 112 1090 112 1090 232 1174 c 0,8,9
 318 1234 318 1234 445.5 1253 c 128,-1,10
 573 1272 573 1272 665 1272 c 1,11,-1
 665 1309 l 2,12,13
 665 1374 665 1374 629 1397 c 0,14,15
 594 1419 594 1419 530.5 1419 c 128,-1,16
 467 1419 467 1419 421 1412 c 128,-1,17
 375 1405 375 1405 330 1394 c 0,18,19
 229 1367 229 1367 196 1344 c 1,20,-1
 139 1519 l 1,21,22
 172 1549 172 1549 265 1577 c 0,23,24
 438 1629 438 1629 547.5 1629 c 128,-1,25
 657 1629 657 1629 734.5 1612.5 c 128,-1,26
 812 1596 812 1596 863 1558 c 0,27,28
 965 1484 965 1484 965 1311 c 2,29,-1
 965 670 l 1,30,-1
 797 670 l 2,31,32
 726 670 726 670 710 677 c 0,33,34
 677 691 677 691 677 746 c 2,35,-1
 677 760 l 1,36,37
 630 705 630 705 498 674 c 0,0,1
665 905 m 1,38,-1
 665 1120 l 1,39,40
 535 1120 535 1120 472 1086 c 1,41,42
 406 1046 406 1046 406 968 c 0,43,44
 406 924 406 924 431 903 c 0,45,46
 474 867 474 867 542 867 c 128,-1,47
 610 867 610 867 665 905 c 1,38,-1
EndSplineSet
EndChar

StartChar: logicalnot
Encoding: 172 172 132
Width: 1478
GlyphClass: 2
Flags: W
LayerCount: 2
Fore
SplineSet
244 852 m 1,0,-1
 1234 852 l 1,1,-1
 1234 299 l 1,2,-1
 962 299 l 1,3,-1
 962 604 l 1,4,-1
 244 604 l 1,5,-1
 244 852 l 1,0,-1
EndSplineSet
EndChar

StartChar: registered
Encoding: 174 174 133
Width: 2091
GlyphClass: 2
Flags: W
LayerCount: 2
Fore
SplineSet
171 962 m 0,0,1
 171 1083 171 1083 202 1195.5 c 128,-1,2
 233 1308 233 1308 289.5 1405 c 128,-1,3
 346 1502 346 1502 425.5 1582 c 128,-1,4
 505 1662 505 1662 602 1719 c 0,5,6
 806 1838 806 1838 1045 1838 c 0,7,8
 1285 1838 1285 1838 1488 1719 c 0,9,10
 1684 1604 1684 1604 1801 1405 c 0,11,12
 1920 1202 1920 1202 1920 962 c 0,13,14
 1920 721 1920 721 1801 518 c 0,15,16
 1685 319 1685 319 1488 203 c 0,17,18
 1284 83 1284 83 1045 83 c 0,19,20
 808 83 808 83 602 203 c 1,21,22
 405 319 405 319 290 518 c 0,23,24
 171 722 171 722 171 962 c 0,0,1
313 962 m 0,25,26
 313 650 313 650 523 432 c 0,27,28
 734 213 734 213 1045 213 c 256,29,30
 1356 213 1356 213 1567 432 c 0,31,32
 1700 571 1700 571 1752 762 c 1,33,34
 1777 858 1777 858 1777 961.5 c 128,-1,35
 1777 1065 1777 1065 1751.5 1160.5 c 128,-1,36
 1726 1256 1726 1256 1679.5 1339.5 c 128,-1,37
 1633 1423 1633 1423 1567 1491 c 128,-1,38
 1501 1559 1501 1559 1420 1608 c 0,39,40
 1250 1710 1250 1710 1045 1710 c 0,41,42
 736 1710 736 1710 523 1491 c 0,43,44
 390 1354 390 1354 338 1160 c 0,45,46
 313 1065 313 1065 313 962 c 0,25,26
1016 835 m 1,47,-1
 974 834 l 2,48,49
 950 834 950 834 925 834 c 1,50,-1
 925 486 l 1,51,-1
 700 486 l 1,52,-1
 700 1449 l 1,53,-1
 797 1449 l 1,54,-1
 1061 1455 l 1,55,56
 1239 1455 1239 1455 1336 1376 c 1,57,58
 1428 1303 1428 1303 1428 1179 c 0,59,60
 1428 916 1428 916 1234 860 c 1,61,62
 1314 814 1314 814 1386 661 c 0,63,64
 1435 559 1435 559 1492 487 c 1,65,-1
 1237 487 l 1,66,67
 1221 504 1221 504 1211.5 525 c 128,-1,68
 1202 546 1202 546 1187.5 574.5 c 128,-1,69
 1173 603 1173 603 1157.5 642 c 128,-1,70
 1142 681 1142 681 1122 719 c 0,71,72
 1076 809 1076 809 1016 835 c 1,47,-1
1202 1150 m 0,73,74
 1202 1290 1202 1290 1041 1290 c 0,75,76
 958 1290 958 1290 925 1279 c 1,77,-1
 925 998 l 1,78,79
 956 991 956 991 1045 991 c 0,80,81
 1202 991 1202 991 1202 1150 c 0,73,74
EndSplineSet
EndChar

StartChar: macron
Encoding: 175 175 134
Width: 725
GlyphClass: 2
Flags: W
LayerCount: 2
Fore
SplineSet
53 1642 m 1,0,-1
 672 1642 l 1,1,-1
 672 1404 l 1,2,-1
 53 1404 l 1,3,-1
 53 1642 l 1,0,-1
EndSplineSet
EndChar

StartChar: degree
Encoding: 176 176 135
Width: 977
GlyphClass: 2
Flags: W
LayerCount: 2
Fore
SplineSet
490 908 m 0,0,1
 408 908 408 908 339.5 936.5 c 128,-1,2
 271 965 271 965 220 1015 c 0,3,4
 112 1122 112 1122 112 1278 c 0,5,6
 112 1436 112 1436 219 1542 c 0,7,8
 326 1647 326 1647 488 1647 c 0,9,10
 651 1647 651 1647 758 1540 c 128,-1,11
 865 1433 865 1433 865 1278 c 0,12,13
 865 1118 865 1118 759 1014 c 0,14,15
 652 908 652 908 490 908 c 0,0,1
425.5 1119.5 m 128,-1,17
 455 1107 455 1107 488.5 1107 c 128,-1,18
 522 1107 522 1107 552 1119 c 128,-1,19
 582 1131 582 1131 604 1154 c 1,20,21
 653 1202 653 1202 653 1278 c 0,22,23
 653 1352 653 1352 604 1402 c 1,24,25
 557 1448 557 1448 488 1448 c 0,26,27
 378 1448 378 1448 337 1348 c 0,28,29
 324 1317 324 1317 324 1278.5 c 128,-1,30
 324 1240 324 1240 337.5 1208.5 c 128,-1,31
 351 1177 351 1177 373.5 1154.5 c 128,-1,16
 396 1132 396 1132 425.5 1119.5 c 128,-1,17
EndSplineSet
EndChar

StartChar: plusminus
Encoding: 177 177 136
Width: 1401
GlyphClass: 2
Flags: W
LayerCount: 2
Fore
SplineSet
233 233 m 1,0,-1
 1154 233 l 1,1,-1
 1154 0 l 1,2,-1
 233 0 l 1,3,-1
 233 233 l 1,0,-1
560 440 m 1,4,-1
 566 645 l 1,5,-1
 406 640 l 1,6,-1
 188 640 l 1,7,-1
 188 911 l 1,8,-1
 406 911 l 1,9,-1
 566 906 l 1,10,-1
 560 1109 l 1,11,-1
 560 1309 l 1,12,-1
 839 1309 l 1,13,-1
 839 1109 l 1,14,-1
 833 906 l 1,15,-1
 990 911 l 1,16,-1
 1212 911 l 1,17,-1
 1212 640 l 1,18,-1
 990 640 l 1,19,-1
 833 645 l 1,20,-1
 839 440 l 1,21,-1
 839 247 l 1,22,-1
 560 247 l 1,23,-1
 560 440 l 1,4,-1
EndSplineSet
EndChar

StartChar: twosuperior
Encoding: 178 178 137
Width: 1252
GlyphClass: 2
Flags: W
LayerCount: 2
Fore
SplineSet
1029 1417 m 0,0,1
 1029 1146 1029 1146 627 918 c 1,2,-1
 1081 942 l 1,3,-1
 1081 680 l 1,4,-1
 206 680 l 1,5,-1
 166 850 l 1,6,7
 329 931 329 931 480 1059 c 0,8,9
 677 1226 677 1226 677 1356 c 0,10,11
 677 1497 677 1497 527 1497 c 128,-1,12
 377 1497 377 1497 264 1351 c 1,13,-1
 133 1523 l 1,14,15
 230 1660 230 1660 442 1715 c 0,16,17
 519 1735 519 1735 622 1735 c 128,-1,18
 725 1735 725 1735 805 1706 c 128,-1,19
 885 1677 885 1677 934 1631 c 0,20,21
 1029 1543 1029 1543 1029 1417 c 0,0,1
EndSplineSet
EndChar

StartChar: threesuperior
Encoding: 179 179 138
Width: 1262
GlyphClass: 2
Flags: W
LayerCount: 2
Fore
SplineSet
561 1507 m 1,0,1
 471 1507 471 1507 365 1462 c 0,2,3
 329 1446 329 1446 298 1425 c 1,4,-1
 229 1614 l 1,5,6
 315 1687 315 1687 507 1718 c 0,7,8
 565 1728 565 1728 645.5 1728 c 128,-1,9
 726 1728 726 1728 803.5 1707 c 128,-1,10
 881 1686 881 1686 930 1650 c 0,11,12
 1027 1581 1027 1581 1027 1470 c 0,13,14
 1027 1389 1027 1389 986.5 1324 c 128,-1,15
 946 1259 946 1259 846 1207 c 1,16,17
 1018 1180 1018 1180 1069 1048 c 0,18,19
 1085 1006 1085 1006 1085 944 c 128,-1,20
 1085 882 1085 882 1055 816 c 128,-1,21
 1025 750 1025 750 964 701 c 0,22,23
 832 596 832 596 583 596 c 0,24,25
 438 596 438 596 324 630 c 0,26,27
 292 640 292 640 266 648 c 1,28,-1
 265 858 l 1,29,30
 417 820 417 820 537 820.5 c 128,-1,31
 657 821 657 821 711 860 c 128,-1,32
 765 899 765 899 765 958 c 0,33,34
 765 1049 765 1049 620 1076 c 1,35,-1
 442 1048 l 1,36,-1
 419 1256 l 1,37,38
 526 1266 526 1266 588 1284 c 0,39,40
 725 1324 725 1324 725 1414.5 c 128,-1,41
 725 1505 725 1505 561 1507 c 1,0,1
EndSplineSet
EndChar

StartChar: acute
Encoding: 180 180 139
Width: 700
GlyphClass: 2
Flags: W
LayerCount: 2
Fore
SplineSet
37 1396 m 1,0,1
 222 1581 222 1581 376 1825 c 1,2,-1
 619 1636 l 1,3,4
 561 1499 561 1499 342 1326 c 0,5,6
 264 1265 264 1265 210 1238 c 1,7,-1
 37 1396 l 1,0,1
EndSplineSet
EndChar

StartChar: mu
Encoding: 181 181 140
Width: 1407
GlyphClass: 2
Flags: W
LayerCount: 2
Fore
SplineSet
664 -16 m 0,0,1
 523 -16 523 -16 456 44 c 1,2,-1
 485 -371 l 1,3,-1
 150 -371 l 1,4,-1
 150 1140 l 1,5,-1
 520 1140 l 1,6,-1
 520 490 l 2,7,8
 520 367 520 367 560 311.5 c 128,-1,9
 600 256 600 256 692 256 c 128,-1,10
 784 256 784 256 842 310 c 1,11,-1
 842 1140 l 1,12,-1
 1212 1140 l 1,13,-1
 1212 315 l 2,14,15
 1212 239 1212 239 1261 239 c 0,16,17
 1302 239 1302 239 1346 266 c 1,18,-1
 1377 87 l 1,19,20
 1360 59 1360 59 1308 34 c 0,21,22
 1200 -18 1200 -18 1096 -18 c 0,23,24
 928 -18 928 -18 913 120 c 1,25,26
 842 -16 842 -16 664 -16 c 0,0,1
EndSplineSet
EndChar

StartChar: paragraph
Encoding: 182 182 141
Width: 1439
GlyphClass: 2
Flags: W
LayerCount: 2
Fore
SplineSet
658 1711 m 1,0,-1
 1250 1691 l 1,1,-1
 1250 0 l 1,2,-1
 966 0 l 1,3,-1
 965 1496 l 1,4,-1
 765 1496 l 1,5,-1
 765 0 l 1,6,-1
 482 0 l 1,7,-1
 482 777 l 1,8,9
 174 777 174 777 80 1034 c 0,10,11
 48 1123 48 1123 48 1240 c 128,-1,12
 48 1357 48 1357 84 1443 c 128,-1,13
 120 1529 120 1529 194 1588 c 0,14,15
 348 1711 348 1711 658 1711 c 1,0,-1
EndSplineSet
EndChar

StartChar: cedilla
Encoding: 184 184 143
Width: 529
GlyphClass: 2
Flags: W
LayerCount: 2
Fore
SplineSet
206 30 m 1,0,-1
 367 34 l 1,1,-1
 419 30 l 1,2,3
 485 -28 485 -28 485 -216 c 1,4,5
 483 -339 483 -339 406 -404 c 0,6,7
 336 -464 336 -464 220 -464 c 0,8,9
 138 -464 138 -464 88.5 -453 c 128,-1,10
 39 -442 39 -442 29 -436 c 1,11,-1
 52 -255 l 1,12,13
 75 -269 75 -269 125 -269 c 128,-1,14
 175 -269 175 -269 208 -232 c 0,15,16
 243 -193 243 -193 243 -111 c 128,-1,17
 243 -29 243 -29 206 30 c 1,0,-1
EndSplineSet
EndChar

StartChar: onesuperior
Encoding: 185 185 144
Width: 1081
GlyphClass: 2
Flags: W
LayerCount: 2
Fore
SplineSet
393 1376 m 1,0,1
 315 1351 315 1351 205 1333 c 1,2,-1
 165 1530 l 1,3,4
 330 1578 330 1578 515 1689 c 0,5,6
 540 1704 540 1704 552 1714 c 1,7,-1
 726 1689 l 1,8,-1
 726 680 l 1,9,-1
 393 680 l 1,10,-1
 393 1376 l 1,0,1
EndSplineSet
EndChar

StartChar: ordmasculine
Encoding: 186 186 145
Width: 1077
GlyphClass: 2
Flags: W
LayerCount: 2
Fore
SplineSet
518 663 m 0,0,1
 417 663 417 663 330 698 c 0,2,3
 155 769 155 769 94 956 c 0,4,5
 65 1045 65 1045 65 1153 c 0,6,7
 65 1395 65 1395 225 1524 c 0,8,9
 358 1632 358 1632 554 1632 c 0,10,11
 768 1632 768 1632 888 1494 c 0,12,13
 999 1366 999 1366 999 1153 c 0,14,15
 999 902 999 902 850 773 c 0,16,17
 724 663 724 663 518 663 c 0,0,1
547 1409 m 0,18,19
 370 1409 370 1409 370 1160 c 0,20,21
 370 962 370 962 468 904 c 1,22,23
 498 885 498 885 519.5 885 c 128,-1,24
 541 885 541 885 543 885 c 0,25,26
 695 887 695 887 695 1137 c 0,27,28
 695 1264 695 1264 657 1336.5 c 128,-1,29
 619 1409 619 1409 547 1409 c 0,18,19
EndSplineSet
EndChar

StartChar: Aring
Encoding: 197 197 156
Width: 1460
GlyphClass: 2
Flags: W
LayerCount: 2
Fore
SplineSet
1090 1688 m 0,0,1
 1088 1532 1088 1532 971 1456 c 1,2,-1
 1479 0 l 1,3,-1
 1075 0 l 1,4,-1
 991 284 l 1,5,-1
 460 284 l 1,6,-1
 380 0 l 1,7,-1
 -19 0 l 1,8,-1
 483 1451 l 1,9,10
 363 1527 363 1527 363 1685 c 0,11,12
 363 1842 363 1842 482 1917 c 0,13,14
 578 1977 578 1977 732 1977 c 0,15,16
 993 1977 993 1977 1066 1816 c 0,17,18
 1090 1761 1090 1761 1090 1688 c 0,0,1
612.5 1595.5 m 128,-1,20
 657 1563 657 1563 709.5 1563 c 128,-1,21
 762 1563 762 1563 791.5 1567 c 128,-1,22
 821 1571 821 1571 842 1584 c 0,23,24
 886 1611 886 1611 886 1685 c 0,25,26
 886 1780 886 1780 790 1806 c 0,27,28
 760 1814 760 1814 727.5 1814 c 128,-1,29
 695 1814 695 1814 666.5 1809.5 c 128,-1,30
 638 1805 638 1805 616 1792 c 0,31,32
 568 1762 568 1762 568 1695 c 128,-1,19
 568 1628 568 1628 612.5 1595.5 c 128,-1,20
912 550 m 1,33,-1
 771 1027 l 1,34,-1
 721 1224 l 1,35,-1
 670 1027 l 1,36,-1
 535 550 l 1,37,-1
 912 550 l 1,33,-1
EndSplineSet
EndChar

StartChar: AE
Encoding: 198 198 157
Width: 1970
GlyphClass: 2
Flags: W
LayerCount: 2
Fore
SplineSet
602 1522 m 1,0,-1
 1822 1522 l 1,1,-1
 1822 1238 l 1,2,-1
 1244 1238 l 1,3,-1
 1244 919 l 1,4,-1
 1688 919 l 1,5,-1
 1688 642 l 1,6,-1
 1244 642 l 1,7,-1
 1244 291 l 1,8,-1
 1883 291 l 1,9,-1
 1883 0 l 1,10,-1
 866 0 l 1,11,-1
 866 318 l 1,12,-1
 428 318 l 1,13,-1
 291 0 l 1,14,-1
 -119 0 l 1,15,-1
 602 1522 l 1,0,-1
866 579 m 1,16,-1
 866 1334 l 1,17,-1
 540 579 l 1,18,-1
 866 579 l 1,16,-1
EndSplineSet
EndChar

StartChar: Ccedilla
Encoding: 199 199 158
Width: 1306
GlyphClass: 2
Flags: W
LayerCount: 2
Fore
SplineSet
537 -255 m 1,0,1
 560 -269 560 -269 610 -269 c 128,-1,2
 660 -269 660 -269 694 -232 c 1,3,4
 728 -193 728 -193 728 -107 c 0,5,6
 728 -50 728 -50 710 -5 c 1,7,8
 411 39 411 39 246 241 c 1,9,10
 85 440 85 440 85 758 c 0,11,12
 85 1131 85 1131 312 1341 c 0,13,14
 524 1538 524 1538 864 1538 c 0,15,16
 1039 1538 1039 1538 1190 1494 c 0,17,18
 1227 1484 1227 1484 1262 1477 c 1,19,-1
 1212 1148 l 1,20,21
 1084 1236 1084 1236 895 1236 c 0,22,23
 714 1236 714 1236 600 1118 c 0,24,25
 480 995 480 995 480 781 c 0,26,27
 480 550 480 550 589 417 c 0,28,29
 703 278 703 278 911 278 c 0,30,31
 1051 278 1051 278 1186 343 c 0,32,33
 1222 360 1222 360 1241 376 c 1,34,-1
 1242 64 l 1,35,36
 1084 -3 1084 -3 935 -14 c 1,37,38
 970 -92 970 -92 969.5 -186 c 128,-1,39
 969 -280 969 -280 948 -327 c 128,-1,40
 927 -374 927 -374 891 -404 c 0,41,42
 821 -464 821 -464 705 -464 c 0,43,44
 623 -464 623 -464 573.5 -453 c 128,-1,45
 524 -442 524 -442 514 -436 c 1,46,-1
 537 -255 l 1,0,1
EndSplineSet
EndChar

StartChar: Eth
Encoding: 208 208 167
Width: 1561
GlyphClass: 2
Flags: W
LayerCount: 2
Fore
SplineSet
713 -16 m 1,0,-1
 307 0 l 1,1,-1
 173 0 l 1,2,-1
 173 675 l 1,3,-1
 60 675 l 1,4,-1
 60 913 l 1,5,-1
 173 913 l 1,6,-1
 173 1522 l 1,7,-1
 313 1522 l 1,8,-1
 730 1538 l 1,9,10
 1294 1538 1294 1538 1432 1112 c 0,11,12
 1477 974 1477 974 1477 789 c 128,-1,13
 1477 604 1477 604 1425 452 c 0,14,15
 1321 147 1321 147 1032 38 c 1,16,17
 892 -16 892 -16 713 -16 c 1,0,-1
724 1263 m 0,18,19
 640 1263 640 1263 556 1250 c 1,20,-1
 556 913 l 1,21,-1
 850 913 l 1,22,-1
 850 675 l 1,23,-1
 556 675 l 1,24,-1
 556 280 l 1,25,26
 610 265 610 265 710 265 c 128,-1,27
 810 265 810 265 875 295 c 128,-1,28
 940 325 940 325 986 386 c 0,29,30
 1081 514 1081 514 1081 765 c 0,31,32
 1081 1035 1081 1035 990 1152 c 1,33,34
 905 1263 905 1263 724 1263 c 0,18,19
EndSplineSet
EndChar

StartChar: multiply
Encoding: 215 215 174
Width: 1402
GlyphClass: 2
Flags: W
LayerCount: 2
Fore
SplineSet
149 392 m 1,0,-1
 528 775 l 1,1,-1
 149 1172 l 1,2,-1
 335 1351 l 1,3,-1
 703 952 l 1,4,-1
 1069 1351 l 1,5,-1
 1255 1172 l 1,6,-1
 876 777 l 1,7,-1
 1254 392 l 1,8,-1
 1067 206 l 1,9,-1
 701 593 l 1,10,-1
 335 206 l 1,11,-1
 149 392 l 1,0,-1
EndSplineSet
EndChar

StartChar: Oslash
Encoding: 216 216 175
Width: 1603
GlyphClass: 2
Flags: W
LayerCount: 2
Fore
SplineSet
304 1352 m 1,0,1
 499 1538 499 1538 881 1538 c 0,2,3
 926 1538 926 1538 999 1524 c 1,4,-1
 1102 1811 l 1,5,-1
 1237 1783 l 1,6,-1
 1129 1484 l 1,7,8
 1314 1404 1314 1404 1414 1217 c 0,9,10
 1509 1038 1509 1038 1509 783 c 0,11,12
 1509 380 1509 380 1305 174 c 0,13,14
 1117 -16 1117 -16 786 -16 c 0,15,16
 686 -16 686 -16 595 4 c 1,17,-1
 509 -234 l 1,18,-1
 375 -209 l 1,19,-1
 467 47 l 1,20,21
 188 174 188 174 114 524 c 0,22,23
 93 625 93 625 93 690 c 0,24,25
 93 960 93 960 150.5 1109.5 c 128,-1,26
 208 1259 208 1259 304 1352 c 1,0,1
897 1241 m 1,27,28
 859 1252 859 1252 804.5 1252 c 128,-1,29
 750 1252 750 1252 689 1227.5 c 128,-1,30
 628 1203 628 1203 583 1145 c 0,31,32
 485 1019 485 1019 485 758 c 0,33,34
 485 502 485 502 584 372 c 1,35,-1
 897 1241 l 1,27,28
803 263 m 0,36,37
 1117 263 1117 263 1117 774 c 0,38,39
 1117 1039 1117 1039 1013 1163 c 1,40,-1
 696 283 l 1,41,42
 745 263 745 263 803 263 c 0,36,37
EndSplineSet
EndChar

StartChar: Thorn
Encoding: 222 222 181
Width: 1393
GlyphClass: 2
Flags: W
LayerCount: 2
Fore
SplineSet
782 235 m 0,0,1
 652 235 652 235 556 244 c 1,2,-1
 556 0 l 1,3,-1
 173 0 l 1,4,-1
 173 1522 l 1,5,-1
 556 1522 l 1,6,-1
 556 1286 l 1,7,8
 611 1289 611 1289 673.5 1294 c 128,-1,9
 736 1299 736 1299 830 1299 c 128,-1,10
 924 1299 924 1299 1023.5 1267 c 128,-1,11
 1123 1235 1123 1235 1192 1173 c 0,12,13
 1334 1045 1334 1045 1334 805 c 0,14,15
 1334 538 1334 538 1190 388 c 0,16,17
 1043 235 1043 235 782 235 c 0,0,1
693 1022 m 0,18,19
 622 1022 622 1022 556 1006 c 1,20,-1
 556 512 l 1,21,22
 604 504 604 504 674.5 504 c 128,-1,23
 745 504 745 504 794 517 c 128,-1,24
 843 530 843 530 880 562 c 0,25,26
 958 632 958 632 958 791 c 0,27,28
 958 1022 958 1022 693 1022 c 0,18,19
EndSplineSet
EndChar

StartChar: germandbls
Encoding: 223 223 182
Width: 1413
GlyphClass: 2
Flags: W
LayerCount: 2
Fore
SplineSet
176 897 m 1,0,-1
 41 897 l 1,1,-1
 41 1120 l 1,2,-1
 193 1150 l 1,3,4
 241 1369 241 1369 421 1480 c 0,5,6
 583 1579 583 1579 829 1579 c 0,7,8
 1043 1579 1043 1579 1168 1490 c 0,9,10
 1287 1406 1287 1406 1287 1271 c 0,11,12
 1287 1126 1287 1126 1170 1040 c 0,13,14
 1097 986 1097 986 1075.5 958.5 c 128,-1,15
 1054 931 1054 931 1054 900.5 c 128,-1,16
 1054 870 1054 870 1077.5 841.5 c 128,-1,17
 1101 813 1101 813 1136.5 780.5 c 128,-1,18
 1172 748 1172 748 1213 710.5 c 128,-1,19
 1254 673 1254 673 1290 624 c 0,20,21
 1372 510 1372 510 1372 382 c 128,-1,22
 1372 254 1372 254 1334 179.5 c 128,-1,23
 1296 105 1296 105 1234 62 c 0,24,25
 1122 -16 1122 -16 928 -16 c 0,26,27
 755 -16 755 -16 689 20 c 1,28,-1
 689 267 l 1,29,30
 741 230 741 230 833 230 c 0,31,32
 934 230 934 230 972 298 c 0,33,34
 987 323 987 323 987 366 c 128,-1,35
 987 409 987 409 968 446.5 c 128,-1,36
 949 484 949 484 920 517.5 c 128,-1,37
 891 551 891 551 858 583.5 c 128,-1,38
 825 616 825 616 796 654 c 0,39,40
 729 742 729 742 729 841 c 0,41,42
 729 943 729 943 825 1035 c 0,43,44
 884 1092 884 1092 902.5 1133.5 c 128,-1,45
 921 1175 921 1175 921 1225 c 128,-1,46
 921 1275 921 1275 884.5 1310.5 c 128,-1,47
 848 1346 848 1346 787 1346 c 128,-1,48
 726 1346 726 1346 683.5 1326 c 128,-1,49
 641 1306 641 1306 612 1260 c 0,50,51
 550 1164 550 1164 550 953 c 2,52,-1
 550 0 l 1,53,-1
 176 0 l 1,54,-1
 176 897 l 1,0,-1
EndSplineSet
EndChar

StartChar: ae
Encoding: 230 230 189
Width: 1877
GlyphClass: 2
Flags: W
LayerCount: 2
Fore
SplineSet
881 156 m 1,0,1
 724 -16 724 -16 462 -16 c 0,2,3
 299 -16 299 -16 198 76 c 1,4,5
 92 170 92 170 92 333 c 0,6,7
 92 487 92 487 216 584 c 0,8,9
 292 643 292 643 379.5 663.5 c 128,-1,10
 467 684 467 684 526 692 c 0,11,12
 629 706 629 706 751 706 c 1,13,-1
 751 767 l 2,14,15
 751 838 751 838 701.5 866 c 128,-1,16
 652 894 652 894 575.5 894 c 128,-1,17
 499 894 499 894 448 885.5 c 128,-1,18
 397 877 397 877 352 864 c 0,19,20
 259 839 259 839 214 813 c 1,21,-1
 135 1035 l 1,22,23
 259 1105 259 1105 461 1144 c 0,24,25
 547 1160 547 1160 647 1160 c 0,26,27
 889 1160 889 1160 983 1062 c 1,28,29
 1121 1156 1121 1156 1317 1156 c 0,30,31
 1645 1156 1645 1156 1751 920 c 0,32,33
 1791 830 1791 830 1791.5 699 c 128,-1,34
 1792 568 1792 568 1781 487 c 1,35,-1
 1117 487 l 1,36,37
 1135 250 1135 250 1400 250 c 0,38,39
 1528 250 1528 250 1648 286 c 0,40,41
 1682 297 1682 297 1703 308 c 1,42,-1
 1760 107 l 1,43,44
 1661 26 1661 26 1458 -6 c 0,45,46
 1390 -16 1390 -16 1314 -16 c 0,47,48
 1028 -16 1028 -16 881 156 c 1,0,1
1453 668 m 1,49,50
 1454 689 1454 689 1454 709 c 0,51,52
 1454 803 1454 803 1423.5 860 c 128,-1,53
 1393 917 1393 917 1309 917 c 0,54,55
 1185 917 1185 917 1142 786 c 0,56,57
 1127 739 1127 739 1120 668 c 1,58,-1
 1453 668 l 1,49,50
466 358 m 0,59,60
 466 322 466 322 478.5 294 c 128,-1,61
 491 266 491 266 511 248 c 0,62,63
 587 177 587 177 716 236 c 0,64,65
 769 261 769 261 797 299 c 1,66,67
 757 402 757 402 751 528 c 1,68,69
 616 526 616 526 526 477 c 0,70,71
 466 444 466 444 466 358 c 0,59,60
EndSplineSet
EndChar

StartChar: ccedilla
Encoding: 231 231 190
Width: 1048
GlyphClass: 2
Flags: W
LayerCount: 2
Fore
SplineSet
354 -255 m 1,0,1
 377 -269 377 -269 427 -269 c 128,-1,2
 477 -269 477 -269 510 -232 c 0,3,4
 545 -193 545 -193 545 -107 c 0,5,6
 545 -52 545 -52 528 -9 c 1,7,8
 309 22 309 22 193 180 c 0,9,10
 85 327 85 327 85 559 c 0,11,12
 85 824 85 824 225 982 c 0,13,14
 378 1156 378 1156 664 1156 c 0,15,16
 829 1156 829 1156 936 1119 c 0,17,18
 965 1109 965 1109 979 1099 c 1,19,-1
 937 821 l 1,20,21
 855 868 855 868 714 868 c 0,22,23
 549 868 549 868 484 720 c 0,24,25
 460 663 460 663 460 577.5 c 128,-1,26
 460 492 460 492 479 434 c 128,-1,27
 498 376 498 376 533 338 c 0,28,29
 599 268 599 268 730 268 c 128,-1,30
 861 268 861 268 950 309 c 1,31,-1
 995 100 l 1,32,33
 914 19 914 19 748 -6 c 1,34,35
 787 -86 787 -86 787 -206 c 0,36,37
 787 -337 787 -337 708 -404 c 0,38,39
 638 -464 638 -464 522 -464 c 0,40,41
 440 -464 440 -464 390.5 -453 c 128,-1,42
 341 -442 341 -442 331 -436 c 1,43,-1
 354 -255 l 1,0,1
EndSplineSet
EndChar

StartChar: idieresis
Encoding: 239 239 198
Width: 690
GlyphClass: 2
Flags: W
LayerCount: 2
Fore
SplineSet
584 1280 m 0,0,1
 542 1280 542 1280 507.5 1294 c 128,-1,2
 473 1308 473 1308 449 1334 c 0,3,4
 399 1387 399 1387 399 1470 c 0,5,6
 399 1555 399 1555 458 1614 c 0,7,8
 518 1674 518 1674 601 1674 c 0,9,10
 686 1674 686 1674 736 1622 c 0,11,12
 784 1572 784 1572 784 1485 c 0,13,14
 784 1400 784 1400 727 1341 c 0,15,16
 668 1280 668 1280 584 1280 c 0,0,1
90 1280 m 0,17,18
 47 1280 47 1280 12.5 1294 c 128,-1,19
 -22 1308 -22 1308 -46 1334 c 0,20,21
 -96 1387 -96 1387 -96 1470 c 0,22,23
 -96 1554 -96 1554 -38 1614 c 0,24,25
 21 1674 21 1674 107 1674 c 128,-1,26
 193 1674 193 1674 240.5 1621.5 c 128,-1,27
 288 1569 288 1569 288 1485 c 256,28,29
 288 1401 288 1401 232 1341 c 0,30,31
 174 1280 174 1280 90 1280 c 0,17,18
159 1140 m 1,32,-1
 531 1140 l 1,33,-1
 531 0 l 1,34,-1
 159 0 l 1,35,-1
 159 1140 l 1,32,-1
EndSplineSet
EndChar

StartChar: eth
Encoding: 240 240 199
Width: 1321
GlyphClass: 2
Flags: W
LayerCount: 2
Fore
SplineSet
856 1762 m 1,0,1
 773 1653 773 1653 736 1607 c 1,2,3
 972 1460 972 1460 1114 1200 c 1,4,5
 1254 947 1254 947 1254 665 c 0,6,7
 1254 320 1254 320 1077 136 c 0,8,9
 920 -27 920 -27 663 -27 c 0,10,11
 399 -27 399 -27 240 133 c 0,12,13
 84 291 84 291 84 550 c 0,14,15
 84 813 84 813 223 978 c 0,16,17
 368 1149 368 1149 617 1149 c 0,18,19
 728 1149 728 1149 813 1103 c 1,20,21
 751 1275 751 1275 582 1407 c 1,22,-1
 462 1246 l 1,23,-1
 298 1360 l 1,24,-1
 423 1520 l 1,25,26
 310 1588 310 1588 217 1617 c 1,27,-1
 277 1809 l 1,28,29
 457 1757 457 1757 563 1701 c 1,30,31
 614 1768 614 1768 689 1877 c 1,32,-1
 856 1762 l 1,0,1
590 248 m 0,33,34
 625 230 625 230 666.5 230 c 128,-1,35
 708 230 708 230 746 251 c 128,-1,36
 784 272 784 272 812 316 c 0,37,38
 875 414 875 414 875 592 c 2,39,-1
 875 644 l 2,40,41
 875 745 875 745 871 821 c 1,42,43
 832 881 832 881 741 904 c 0,44,45
 711 911 711 911 678 911 c 0,46,47
 584 911 584 911 529 817 c 128,-1,48
 474 723 474 723 474 536 c 0,49,50
 474 307 474 307 590 248 c 0,33,34
EndSplineSet
EndChar

StartChar: divide
Encoding: 247 247 206
Width: 1417
GlyphClass: 2
Flags: W
LayerCount: 2
Fore
SplineSet
726 1029 m 0,0,1
 679 1029 679 1029 641 1045 c 128,-1,2
 603 1061 603 1061 576 1088 c 0,3,4
 519 1147 519 1147 519 1237 c 0,5,6
 519 1328 519 1328 584 1394 c 1,7,8
 652 1461 652 1461 744 1461 c 0,9,10
 837 1461 837 1461 892 1402 c 0,11,12
 947 1344 947 1344 947 1254 c 0,13,14
 947 1162 947 1162 883 1096 c 0,15,16
 817 1029 817 1029 726 1029 c 0,0,1
190 908 m 1,17,-1
 1226 908 l 1,18,-1
 1226 639 l 1,19,-1
 190 639 l 1,20,-1
 190 908 l 1,17,-1
517 305 m 0,21,22
 517 394 517 394 582 461 c 0,23,24
 648 528 648 528 742 528 c 0,25,26
 884 528 884 528 930 404 c 0,27,28
 944 366 944 366 944 321 c 0,29,30
 944 230 944 230 880 164 c 0,31,32
 815 97 815 97 722 97 c 0,33,34
 632 97 632 97 574 156 c 0,35,36
 517 215 517 215 517 305 c 0,21,22
EndSplineSet
EndChar

StartChar: oslash
Encoding: 248 248 207
Width: 1335
GlyphClass: 2
Flags: W
LayerCount: 2
Fore
SplineSet
890.5 20.5 m 128,-1,1
 783 -16 783 -16 685 -16 c 128,-1,2
 587 -16 587 -16 527 -6 c 1,3,-1
 445 -234 l 1,4,-1
 314 -209 l 1,5,-1
 399 28 l 1,6,7
 86 152 86 152 86 582 c 0,8,9
 86 857 86 857 255 1012 c 0,10,11
 413 1156 413 1156 676 1156 c 0,12,13
 744 1156 744 1156 802 1146 c 1,14,-1
 888 1384 l 1,15,-1
 1021 1356 l 1,16,-1
 932 1111 l 1,17,18
 1244 984 1244 984 1244 558 c 0,19,20
 1244 281 1244 281 1076 128 c 0,21,0
 998 57 998 57 890.5 20.5 c 128,-1,1
711 894 m 1,22,23
 689 899 689 899 669 899 c 0,24,25
 557 899 557 899 507.5 818.5 c 128,-1,26
 458 738 458 738 458 582 c 0,27,28
 458 425 458 425 510 334 c 1,29,-1
 711 894 l 1,22,23
618 244 m 1,30,31
 641 239 641 239 663 239 c 0,32,33
 773 239 773 239 822.5 319 c 128,-1,34
 872 399 872 399 872 564 c 0,35,36
 872 715 872 715 821 805 c 1,37,-1
 618 244 l 1,30,31
EndSplineSet
EndChar

StartChar: thorn
Encoding: 254 254 213
Width: 1381
GlyphClass: 2
Flags: W
LayerCount: 2
Fore
SplineSet
940.5 23.5 m 128,-1,1
 829 -21 829 -21 724.5 -21 c 128,-1,2
 620 -21 620 -21 528 -12 c 1,3,-1
 533 -169 l 1,4,-1
 533 -507 l 1,5,-1
 159 -507 l 1,6,-1
 159 1661 l 1,7,-1
 530 1661 l 1,8,-1
 530 1250 l 1,9,-1
 522 1041 l 1,10,11
 649 1156 649 1156 844 1156 c 0,12,13
 1038 1156 1038 1156 1161 1022 c 0,14,15
 1296 876 1296 876 1296 612 c 0,16,17
 1296 323 1296 323 1131 150 c 0,18,0
 1052 68 1052 68 940.5 23.5 c 128,-1,1
530 262 m 1,19,20
 560 228 560 228 686 228 c 0,21,22
 784 228 784 228 845 322 c 0,23,24
 909 420 909 420 909 590 c 0,25,26
 909 824 909 824 794 868 c 0,27,28
 759 881 759 881 723.5 881 c 128,-1,29
 688 881 688 881 660 875.5 c 128,-1,30
 632 870 632 870 608 861 c 0,31,32
 559 843 559 843 530 821 c 1,33,-1
 530 262 l 1,19,20
EndSplineSet
EndChar

StartChar: Aogonek
Encoding: 260 260 219
Width: 1460
GlyphClass: 2
Flags: W
LayerCount: 2
Fore
SplineSet
1475 -449 m 1,0,1
 1368 -516 1368 -516 1217 -516 c 0,2,3
 1102 -516 1102 -516 1024 -461 c 0,4,5
 936 -400 936 -400 936 -298 c 0,6,7
 936 -118 936 -118 1172 0 c 1,8,-1
 1075 0 l 1,9,-1
 991 284 l 1,10,-1
 460 284 l 1,11,-1
 380 0 l 1,12,-1
 -19 0 l 1,13,-1
 511 1532 l 1,14,-1
 945 1532 l 1,15,-1
 1479 0 l 1,16,-1
 1412 0 l 1,17,18
 1241 -95 1241 -95 1241 -202 c 0,19,20
 1241 -299 1241 -299 1366 -299 c 0,21,22
 1413 -299 1413 -299 1475 -279 c 1,23,-1
 1475 -449 l 1,0,1
912 550 m 1,24,-1
 771 1027 l 1,25,-1
 721 1224 l 1,26,-1
 670 1027 l 1,27,-1
 535 550 l 1,28,-1
 912 550 l 1,24,-1
EndSplineSet
EndChar

StartChar: aogonek
Encoding: 261 261 220
Width: 1263
GlyphClass: 2
Flags: W
LayerCount: 2
Fore
SplineSet
775 96 m 1,0,1
 647 -16 647 -16 457 -16 c 0,2,3
 289 -16 289 -16 186 86 c 1,4,5
 85 188 85 188 85 348 c 0,6,7
 85 449 85 449 140 522.5 c 128,-1,8
 195 596 195 596 268.5 627.5 c 128,-1,9
 342 659 342 659 401.5 673 c 128,-1,10
 461 687 461 687 522 694 c 0,11,12
 625 706 625 706 756 706 c 1,13,-1
 756 775 l 2,14,15
 756 850 756 850 716 874 c 0,16,17
 674 898 674 898 548 898 c 0,18,19
 446 898 446 898 289 850 c 0,20,21
 242 835 242 835 204 817 c 1,22,-1
 129 1035 l 1,23,24
 252 1110 252 1110 478 1148 c 0,25,26
 554 1160 554 1160 659.5 1160 c 128,-1,27
 765 1160 765 1160 859 1137 c 128,-1,28
 953 1114 953 1114 1012 1062 c 0,29,30
 1124 965 1124 965 1124 729 c 2,31,-1
 1124 -16 l 1,32,-1
 1042 -16 l 1,33,34
 964 -61 964 -61 936 -93 c 0,35,36
 883 -153 883 -153 886.5 -206.5 c 128,-1,37
 890 -260 890 -260 924 -279.5 c 128,-1,38
 958 -299 958 -299 1008.5 -299 c 128,-1,39
 1059 -299 1059 -299 1121 -279 c 1,40,-1
 1121 -449 l 1,41,42
 1014 -516 1014 -516 863 -516 c 0,43,44
 748 -516 748 -516 670 -461 c 0,45,46
 582 -400 582 -400 582 -298 c 0,47,48
 582 -120 582 -120 809 -4 c 1,49,50
 775 14 775 14 775 88 c 2,51,-1
 775 96 l 1,0,1
467 362 m 0,52,53
 467 326 467 326 479 297 c 128,-1,54
 491 268 491 268 512 249 c 0,55,56
 551 212 551 212 612 212 c 0,57,58
 677 212 677 212 733 244 c 0,59,60
 748 252 748 252 756 260 c 1,61,-1
 756 528 l 1,62,63
 631 528 631 528 556 493 c 1,64,65
 467 460 467 460 467 362 c 0,52,53
EndSplineSet
EndChar

StartChar: dcroat
Encoding: 273 273 232
Width: 1381
GlyphClass: 2
Flags: W
LayerCount: 2
Fore
SplineSet
882 118 m 1,0,1
 748 -16 748 -16 537 -16 c 0,2,3
 343 -16 343 -16 220 119 c 0,4,5
 85 267 85 267 85 531 c 0,6,7
 85 819 85 819 244 988 c 0,8,9
 403 1156 403 1156 666 1156 c 0,10,11
 770 1156 770 1156 854 1128 c 1,12,-1
 851 1250 l 1,13,-1
 851 1292 l 1,14,-1
 634 1292 l 1,15,-1
 634 1492 l 1,16,-1
 851 1492 l 1,17,-1
 851 1662 l 1,18,-1
 1221 1662 l 1,19,-1
 1221 1492 l 1,20,-1
 1349 1492 l 1,21,-1
 1349 1292 l 1,22,-1
 1221 1292 l 1,23,-1
 1221 -16 l 1,24,-1
 937 -16 l 2,25,26
 882 -16 882 -16 882 38 c 2,27,-1
 882 118 l 1,0,1
851 868 m 1,28,29
 808 900 808 900 727 900 c 128,-1,30
 646 900 646 900 605.5 878 c 128,-1,31
 565 856 565 856 536 812 c 0,32,33
 473 720 473 720 473 549 c 0,34,35
 473 323 473 323 584 276 c 0,36,37
 620 261 620 261 664 261 c 0,38,39
 773 261 773 261 851 313 c 1,40,-1
 851 868 l 1,28,29
EndSplineSet
EndChar

StartChar: Eogonek
Encoding: 280 280 239
Width: 1257
GlyphClass: 2
Flags: W
LayerCount: 2
Fore
SplineSet
1198 -449 m 1,0,1
 1091 -516 1091 -516 940 -516 c 0,2,3
 825 -516 825 -516 746 -461 c 0,4,5
 659 -400 659 -400 659 -298 c 0,6,7
 659 -118 659 -118 895 0 c 1,8,-1
 173 0 l 1,9,-1
 173 1522 l 1,10,-1
 1135 1522 l 1,11,-1
 1135 1238 l 1,12,-1
 550 1238 l 1,13,-1
 550 916 l 1,14,-1
 1001 916 l 1,15,-1
 1001 639 l 1,16,-1
 550 639 l 1,17,-1
 550 291 l 1,18,-1
 1195 291 l 1,19,-1
 1195 0 l 1,20,-1
 1135 0 l 1,21,22
 964 -95 964 -95 964 -202 c 0,23,24
 964 -299 964 -299 1089 -299 c 0,25,26
 1136 -299 1136 -299 1198 -279 c 1,27,-1
 1198 -449 l 1,0,1
EndSplineSet
EndChar

StartChar: eogonek
Encoding: 281 281 240
Width: 1221
GlyphClass: 2
Flags: W
LayerCount: 2
Fore
SplineSet
1089 -449 m 1,0,1
 982 -516 982 -516 831 -516 c 0,2,3
 717 -516 717 -516 637 -460 c 0,4,5
 550 -398 550 -398 550 -292 c 0,6,7
 550 -127 550 -127 726 -13 c 1,8,9
 708 -14 708 -14 690 -15 c 128,-1,10
 672 -16 672 -16 653 -16 c 0,11,12
 380 -16 380 -16 231 141 c 0,13,14
 85 295 85 295 85 575 c 0,15,16
 85 830 85 830 235 990 c 0,17,18
 390 1156 390 1156 657 1156 c 0,19,20
 986 1156 986 1156 1094 920 c 0,21,22
 1135 830 1135 830 1135.5 701 c 128,-1,23
 1136 572 1136 572 1124 483 c 1,24,-1
 455 483 l 1,25,26
 477 246 477 246 740 246 c 0,27,28
 871 246 871 246 990 282 c 0,29,30
 1025 293 1025 293 1046 304 c 1,31,-1
 1103 107 l 1,32,33
 1065 77 1065 77 1006 51 c 1,34,35
 927 -19 927 -19 898 -61 c 0,36,37
 847 -136 847 -136 847 -201 c 0,38,39
 847 -299 847 -299 980 -299 c 0,40,41
 1025 -299 1025 -299 1089 -279 c 1,42,-1
 1089 -449 l 1,0,1
793 668 m 1,43,44
 794 690 794 690 794 710 c 0,45,46
 794 804 794 804 764 860.5 c 128,-1,47
 734 917 734 917 649 917 c 0,48,49
 525 917 525 917 481 786 c 0,50,51
 465 739 465 739 458 668 c 1,52,-1
 793 668 l 1,43,44
EndSplineSet
EndChar

StartChar: gcommaaccent
Encoding: 291 291 250
Width: 1361
GlyphClass: 2
Flags: W
LayerCount: 2
Fore
SplineSet
667 1270 m 1,0,1
 579 1277 579 1277 514 1348 c 0,2,3
 442 1427 442 1427 442 1551 c 0,4,5
 442 1669 442 1669 508 1766 c 0,6,7
 565 1849 565 1849 630 1870 c 1,8,-1
 774 1819 l 1,9,-1
 774 1798 l 1,10,11
 744 1750 744 1750 739.5 1713.5 c 128,-1,12
 735 1677 735 1677 735 1647 c 128,-1,13
 735 1617 735 1617 741.5 1589.5 c 128,-1,14
 748 1562 748 1562 760 1539 c 0,15,16
 785 1488 785 1488 824 1480 c 1,17,-1
 824 1403 l 1,18,-1
 667 1270 l 1,0,1
516 429 m 1,19,20
 480 397 480 397 480 352 c 128,-1,21
 480 307 480 307 512 290.5 c 128,-1,22
 544 274 544 274 625 274 c 2,23,-1
 851 274 l 2,24,25
 1098 274 1098 274 1210 169 c 0,26,27
 1302 82 1302 82 1302 -72 c 0,28,29
 1302 -286 1302 -286 1100 -408 c 0,30,31
 920 -516 920 -516 666 -516 c 0,32,33
 214 -516 214 -516 102 -312 c 0,34,35
 67 -249 67 -249 67 -172.5 c 128,-1,36
 67 -96 67 -96 110 -32 c 128,-1,37
 153 32 153 32 238 70 c 1,38,39
 146 121 146 121 146 236 c 0,40,41
 146 343 146 343 244 422 c 0,42,43
 279 450 279 450 332 473 c 1,44,45
 104 565 104 565 104 785 c 0,46,47
 104 1061 104 1061 406 1132 c 0,48,49
 504 1155 504 1155 630 1155 c 0,50,51
 879 1155 879 1155 1016 1071 c 1,52,53
 1099 1140 1099 1140 1210 1140 c 2,54,-1
 1338 1140 l 1,55,-1
 1338 885 l 1,56,-1
 1154 885 l 1,57,58
 1165 839 1165 839 1165 772 c 128,-1,59
 1165 705 1165 705 1133.5 637 c 128,-1,60
 1102 569 1102 569 1037 522 c 0,61,62
 902 423 902 423 630 423 c 0,63,64
 570 423 570 423 516 429 c 1,19,20
750 644 m 0,65,66
 808 692 808 692 808 787 c 0,67,68
 808 964 808 964 637 964 c 0,69,70
 507 964 507 964 472 873 c 0,71,72
 459 839 459 839 459 773 c 128,-1,73
 459 707 459 707 502 662 c 128,-1,74
 545 617 545 617 631.5 617 c 128,-1,75
 718 617 718 617 750 644 c 0,65,66
474 11 m 1,76,77
 439 -39 439 -39 439 -104 c 0,78,79
 439 -248 439 -248 556 -297 c 0,80,81
 601 -316 601 -316 665 -316 c 128,-1,82
 729 -316 729 -316 777 -307 c 128,-1,83
 825 -298 825 -298 860 -278 c 0,84,85
 934 -234 934 -234 934 -147 c 0,86,87
 934 -69 934 -69 903 -42 c 0,88,89
 844 11 844 11 717 11 c 2,90,-1
 474 11 l 1,76,77
EndSplineSet
EndChar

StartChar: Hbar
Encoding: 294 294 253
Width: 1643
GlyphClass: 2
Flags: W
LayerCount: 2
Fore
SplineSet
173 1035 m 1,0,-1
 28 1035 l 1,1,-1
 28 1255 l 1,2,-1
 173 1255 l 1,3,-1
 173 1522 l 1,4,-1
 558 1522 l 1,5,-1
 558 1255 l 1,6,-1
 1085 1255 l 1,7,-1
 1085 1522 l 1,8,-1
 1470 1522 l 1,9,-1
 1470 1255 l 1,10,-1
 1618 1255 l 1,11,-1
 1618 1035 l 1,12,-1
 1470 1035 l 1,13,-1
 1470 0 l 1,14,-1
 1085 0 l 1,15,-1
 1085 573 l 1,16,-1
 558 573 l 1,17,-1
 558 0 l 1,18,-1
 173 0 l 1,19,-1
 173 1035 l 1,0,-1
1085 839 m 1,20,-1
 1085 1035 l 1,21,-1
 558 1035 l 1,22,-1
 558 839 l 1,23,-1
 1085 839 l 1,20,-1
EndSplineSet
EndChar

StartChar: hbar
Encoding: 295 295 254
Width: 1380
GlyphClass: 2
Flags: W
LayerCount: 2
Fore
SplineSet
159 1297 m 1,0,-1
 30 1297 l 1,1,-1
 30 1499 l 1,2,-1
 159 1499 l 1,3,-1
 159 1662 l 1,4,-1
 530 1662 l 1,5,-1
 530 1499 l 1,6,-1
 743 1499 l 1,7,-1
 743 1297 l 1,8,-1
 530 1297 l 1,9,-1
 530 1234 l 1,10,-1
 512 1021 l 1,11,12
 615 1109 615 1109 762 1144 c 0,13,14
 819 1158 819 1158 882 1158 c 0,15,16
 1058 1158 1058 1158 1144 1051 c 128,-1,17
 1230 944 1230 944 1230 715 c 2,18,-1
 1230 0 l 1,19,-1
 859 0 l 1,20,-1
 859 652 l 2,21,22
 859 833 859 833 777 859 c 0,23,24
 752 867 752 867 734 867 c 128,-1,25
 716 867 716 867 705.5 867 c 128,-1,26
 695 867 695 867 672 863 c 128,-1,27
 649 859 649 859 624 850 c 0,28,29
 568 831 568 831 530 793 c 1,30,-1
 530 0 l 1,31,-1
 159 0 l 1,32,-1
 159 1297 l 1,0,-1
EndSplineSet
EndChar

StartChar: Iogonek
Encoding: 302 302 261
Width: 759
GlyphClass: 2
Flags: W
LayerCount: 2
Fore
SplineSet
577 -449 m 1,0,1
 470 -516 470 -516 319 -516 c 0,2,3
 204 -516 204 -516 124 -461 c 0,4,5
 34 -400 34 -400 34 -298 c 0,6,7
 34 -206 34 -206 106 -121 c 0,8,9
 164 -54 164 -54 262 0 c 1,10,-1
 185 0 l 1,11,-1
 185 1522 l 1,12,-1
 569 1522 l 1,13,-1
 569 0 l 1,14,-1
 502 0 l 1,15,16
 339 -91 339 -91 339 -197 c 0,17,18
 339 -299 339 -299 468 -299 c 0,19,20
 515 -299 515 -299 577 -279 c 1,21,-1
 577 -449 l 1,0,1
EndSplineSet
EndChar

StartChar: iogonek
Encoding: 303 303 262
Width: 690
GlyphClass: 2
Flags: W
LayerCount: 2
Fore
SplineSet
348 1279 m 0,0,1
 258 1279 258 1279 200 1332 c 1,2,3
 142 1387 142 1387 142 1471 c 256,4,5
 142 1555 142 1555 208.5 1616 c 128,-1,6
 275 1677 275 1677 365 1677 c 256,7,8
 455 1677 455 1677 512 1624 c 256,9,10
 569 1571 569 1571 569 1486 c 0,11,12
 569 1402 569 1402 504 1340 c 0,13,14
 439 1279 439 1279 348 1279 c 0,0,1
556 -449 m 1,15,16
 449 -516 449 -516 298 -516 c 0,17,18
 183 -516 183 -516 102 -461 c 0,19,20
 13 -400 13 -400 13 -298 c 0,21,22
 13 -206 13 -206 86 -121 c 0,23,24
 143 -54 143 -54 241 0 c 1,25,-1
 159 0 l 1,26,-1
 159 1140 l 1,27,-1
 531 1140 l 1,28,-1
 531 0 l 1,29,-1
 481 0 l 1,30,31
 318 -91 318 -91 318 -197 c 0,32,33
 318 -299 318 -299 447 -299 c 0,34,35
 494 -299 494 -299 556 -279 c 1,36,-1
 556 -449 l 1,15,16
EndSplineSet
EndChar

StartChar: dotlessi
Encoding: 305 305 264
Width: 690
GlyphClass: 2
Flags: W
LayerCount: 2
Fore
SplineSet
159 1140 m 1,0,-1
 531 1140 l 1,1,-1
 531 0 l 1,2,-1
 159 0 l 1,3,-1
 159 1140 l 1,0,-1
EndSplineSet
EndChar

StartChar: kgreenlandic
Encoding: 312 312 271
Width: 1282
GlyphClass: 2
Flags: W
LayerCount: 2
Fore
SplineSet
164 1140 m 1,0,-1
 534 1140 l 1,1,-1
 534 829 l 1,2,-1
 527 682 l 1,3,-1
 865 1140 l 1,4,-1
 1276 1140 l 1,5,-1
 880 678 l 1,6,-1
 1305 0 l 1,7,-1
 884 0 l 1,8,-1
 641 398 l 1,9,-1
 534 273 l 1,10,-1
 534 0 l 1,11,-1
 163 0 l 1,12,-1
 164 1140 l 1,0,-1
EndSplineSet
EndChar

StartChar: lacute
Encoding: 314 314 273
Width: 697
GlyphClass: 2
Flags: W
LayerCount: 2
Fore
SplineSet
163 1525 m 1,0,-1
 534 1525 l 1,1,-1
 534 0 l 1,2,-1
 163 0 l 1,3,-1
 163 1525 l 1,0,-1
179 1666 m 1,4,5
 341 1828 341 1828 414 1940 c 0,6,7
 432 1968 432 1968 439 1988 c 1,8,-1
 701 1858 l 1,9,10
 610 1724 610 1724 464 1603 c 0,11,12
 397 1548 397 1548 352 1534 c 1,13,-1
 179 1666 l 1,4,5
EndSplineSet
EndChar

StartChar: Lslash
Encoding: 321 321 280
Width: 1122
GlyphClass: 2
Flags: W
LayerCount: 2
Fore
SplineSet
173 598 m 1,0,-1
 91 568 l 1,1,-1
 18 762 l 1,2,-1
 173 819 l 1,3,-1
 173 1522 l 1,4,-1
 560 1522 l 1,5,-1
 560 962 l 1,6,-1
 812 1055 l 1,7,-1
 885 859 l 1,8,-1
 560 740 l 1,9,-1
 560 287 l 1,10,-1
 1062 287 l 1,11,-1
 1062 0 l 1,12,-1
 173 0 l 1,13,-1
 173 598 l 1,0,-1
EndSplineSet
EndChar

StartChar: lslash
Encoding: 322 322 281
Width: 697
GlyphClass: 2
Flags: W
LayerCount: 2
Fore
SplineSet
163 690 m 1,0,-1
 22 639 l 1,1,-1
 22 865 l 1,2,-1
 163 918 l 1,3,-1
 163 1662 l 1,4,-1
 534 1662 l 1,5,-1
 534 1060 l 1,6,-1
 708 1126 l 1,7,-1
 708 890 l 1,8,-1
 534 826 l 1,9,-1
 534 0 l 1,10,-1
 163 0 l 1,11,-1
 163 690 l 1,0,-1
EndSplineSet
EndChar

StartChar: Eng
Encoding: 330 330 289
Width: 1631
GlyphClass: 2
Flags: W
LayerCount: 2
Fore
SplineSet
172 1522 m 1,0,-1
 536 1522 l 1,1,-1
 1041 687 l 1,2,-1
 1143 473 l 1,3,-1
 1101 852 l 1,4,-1
 1101 1522 l 1,5,-1
 1457 1522 l 1,6,-1
 1457 317 l 2,7,8
 1457 84 1457 84 1443.5 16 c 128,-1,9
 1430 -52 1430 -52 1409.5 -114 c 128,-1,10
 1389 -176 1389 -176 1333.5 -243 c 128,-1,11
 1278 -310 1278 -310 1198 -360 c 0,12,13
 1025 -469 1025 -469 803 -469 c 1,14,-1
 729 -326 l 1,15,16
 865 -288 865 -288 967 -196 c 0,17,18
 1076 -98 1076 -98 1076 11 c 1,19,-1
 587 815 l 1,20,-1
 476 1053 l 1,21,-1
 528 659 l 1,22,-1
 528 0 l 1,23,-1
 173 0 l 1,24,-1
 172 1522 l 1,0,-1
EndSplineSet
EndChar

StartChar: eng
Encoding: 331 331 290
Width: 1382
GlyphClass: 2
Flags: W
LayerCount: 2
Fore
SplineSet
622 -256 m 1,0,1
 665 -272 665 -272 715.5 -272 c 128,-1,2
 766 -272 766 -272 789.5 -263 c 128,-1,3
 813 -254 813 -254 828 -228 c 0,4,5
 857 -178 857 -178 857 -27 c 2,6,-1
 857 650 l 2,7,8
 857 775 857 775 835.5 810 c 128,-1,9
 814 845 814 845 790 855 c 128,-1,10
 766 865 766 865 747.5 865 c 128,-1,11
 729 865 729 865 719 865 c 128,-1,12
 709 865 709 865 685 860 c 128,-1,13
 661 855 661 855 636 846 c 0,14,15
 575 823 575 823 538 786 c 1,16,-1
 538 0 l 1,17,-1
 163 0 l 1,18,-1
 163 1139 l 1,19,-1
 506 1139 l 1,20,-1
 515 1018 l 1,21,22
 620 1104 620 1104 768 1143 c 0,23,24
 824 1158 824 1158 896 1158 c 128,-1,25
 968 1158 968 1158 1032 1137.5 c 128,-1,26
 1096 1117 1096 1117 1141 1065 c 0,27,28
 1232 960 1232 960 1232 718 c 2,29,-1
 1232 -18 l 2,30,31
 1232 -382 1232 -382 1008 -477 c 0,32,33
 938 -507 938 -507 821 -507 c 128,-1,34
 704 -507 704 -507 622 -487 c 1,35,-1
 622 -256 l 1,0,1
EndSplineSet
EndChar

StartChar: OE
Encoding: 338 338 297
Width: 2156
GlyphClass: 2
Flags: W
LayerCount: 2
Fore
SplineSet
1050 51 m 1,0,1
 939 -16 939 -16 773 -16 c 128,-1,2
 607 -16 607 -16 481 41 c 0,3,4
 226 156 226 156 138 450 c 0,5,6
 97 586 97 586 97 747 c 0,7,8
 97 1140 97 1140 310 1350 c 0,9,10
 499 1536 499 1536 811 1538 c 0,11,12
 958 1538 958 1538 1050 1481 c 1,13,-1
 1050 1522 l 1,14,-1
 2007 1522 l 1,15,-1
 2007 1238 l 1,16,-1
 1428 1238 l 1,17,-1
 1428 919 l 1,18,-1
 1862 919 l 1,19,-1
 1862 642 l 1,20,-1
 1428 642 l 1,21,-1
 1428 291 l 1,22,-1
 2067 291 l 1,23,-1
 2067 0 l 1,24,-1
 1050 0 l 1,25,-1
 1050 51 l 1,0,1
1050 1138 m 1,26,27
 973 1244 973 1244 833 1244 c 0,28,29
 626 1244 626 1244 544 1073 c 0,30,31
 487 955 487 955 487 735.5 c 128,-1,32
 487 516 487 516 571.5 393 c 128,-1,33
 656 270 656 270 819 270 c 128,-1,34
 982 270 982 270 1050 372 c 1,35,-1
 1050 1138 l 1,26,27
EndSplineSet
EndChar

StartChar: oe
Encoding: 339 339 298
Width: 1993
GlyphClass: 2
Flags: W
LayerCount: 2
Fore
SplineSet
1046 109 m 1,0,1
 895 -16 895 -16 654 -16 c 0,2,3
 264 -16 264 -16 137 290 c 0,4,5
 86 413 86 413 86 580 c 0,6,7
 86 857 86 857 254 1012 c 1,8,9
 412 1156 412 1156 666.5 1156 c 128,-1,10
 921 1156 921 1156 1060 1030 c 1,11,12
 1207 1156 1207 1156 1434 1156 c 0,13,14
 1763 1156 1763 1156 1869 920 c 0,15,16
 1909 830 1909 830 1909 699 c 128,-1,17
 1909 568 1909 568 1898 487 c 1,18,-1
 1233 487 l 1,19,20
 1250 303 1250 303 1404 263 c 0,21,22
 1454 250 1454 250 1505.5 250 c 128,-1,23
 1557 250 1557 250 1602 255 c 128,-1,24
 1647 260 1647 260 1688 268 c 0,25,26
 1776 285 1776 285 1820 308 c 1,27,-1
 1876 107 l 1,28,29
 1777 26 1777 26 1574 -6 c 0,30,31
 1506 -16 1506 -16 1430 -16 c 0,32,33
 1187 -16 1187 -16 1046 109 c 1,0,1
1569 668 m 1,34,35
 1570 690 1570 690 1570 710 c 0,36,37
 1570 803 1570 803 1540 860 c 128,-1,38
 1510 917 1510 917 1426 917 c 0,39,40
 1261 917 1261 917 1236 668 c 1,41,-1
 1569 668 l 1,34,35
474 582 m 0,42,43
 474 239 474 239 662 239 c 0,44,45
 769 239 769 239 814 320 c 0,46,47
 855 394 855 394 855 564 c 0,48,49
 855 899 855 899 667 899 c 0,50,51
 560 899 560 899 515 818 c 0,52,53
 474 743 474 743 474 582 c 0,42,43
EndSplineSet
EndChar

StartChar: Scedilla
Encoding: 350 350 309
Width: 1229
GlyphClass: 2
Flags: W
LayerCount: 2
Fore
SplineSet
354 -255 m 1,0,1
 377 -269 377 -269 427 -269 c 128,-1,2
 477 -269 477 -269 510.5 -231.5 c 128,-1,3
 544 -194 544 -194 545 -138 c 0,4,5
 547 -52 547 -52 530 -13 c 1,6,7
 331 -2 331 -2 188 52 c 0,8,9
 149 66 149 66 130 78 c 1,10,-1
 177 374 l 1,11,12
 285 312 285 312 459 286 c 0,13,14
 519 277 519 277 604 277 c 0,15,16
 785 277 785 277 785 406 c 0,17,18
 785 473 785 473 716 524 c 1,19,20
 675 553 675 553 539 618 c 128,-1,21
 403 683 403 683 338 727 c 128,-1,22
 273 771 273 771 224 828 c 0,23,24
 119 952 119 952 119 1121 c 0,25,26
 119 1323 119 1323 270 1434 c 0,27,28
 412 1538 412 1538 662 1538 c 0,29,30
 939 1538 939 1538 1091 1451 c 1,31,-1
 1032 1165 l 1,32,33
 953 1227 953 1227 795 1254 c 0,34,35
 745 1262 745 1262 665.5 1262 c 128,-1,36
 586 1262 586 1262 535.5 1227 c 128,-1,37
 485 1192 485 1192 485 1145.5 c 128,-1,38
 485 1099 485 1099 500 1071.5 c 128,-1,39
 515 1044 515 1044 548 1018 c 0,40,41
 604 973 604 973 725 918.5 c 128,-1,42
 846 864 846 864 923.5 818 c 128,-1,43
 1001 772 1001 772 1055 717 c 0,44,45
 1166 604 1166 604 1166 435 c 0,46,47
 1166 161 1166 161 928 46 c 0,48,49
 850 9 850 9 748 -6 c 1,50,51
 787 -86 787 -86 787 -206 c 0,52,53
 787 -337 787 -337 708 -404 c 0,54,55
 638 -464 638 -464 522 -464 c 0,56,57
 440 -464 440 -464 390.5 -453 c 128,-1,58
 341 -442 341 -442 331 -436 c 1,59,-1
 354 -255 l 1,0,1
EndSplineSet
Substitution2: "'locl' Localized Forms lookup 7 subtable" uni0218
Substitution2: "'locl' Localized Forms lookup 6 subtable" uni0218
Substitution2: "'aalt' Access All Alternates in Latin lookup 0 subtable" uni0218
EndChar

StartChar: scedilla
Encoding: 351 351 310
Width: 1084
GlyphClass: 2
Flags: W
LayerCount: 2
Fore
SplineSet
268 -255 m 1,0,1
 291 -269 291 -269 341 -269 c 128,-1,2
 391 -269 391 -269 424.5 -231.5 c 128,-1,3
 458 -194 458 -194 459 -138 c 0,4,5
 461 -52 461 -52 444 -13 c 1,6,7
 291 -2 291 -2 161 50 c 0,8,9
 127 63 127 63 107 76 c 1,10,-1
 143 332 l 1,11,12
 207 278 207 278 368 243 c 0,13,14
 423 231 423 231 497 231 c 0,15,16
 645 231 645 231 645 314 c 0,17,18
 645 375 645 375 502 428 c 0,19,20
 456 445 456 445 387.5 467.5 c 128,-1,21
 319 490 319 490 263 525 c 128,-1,22
 207 560 207 560 172 604 c 0,23,24
 104 689 104 689 104 824 c 0,25,26
 104 983 104 983 244 1072 c 1,27,28
 373 1156 373 1156 578 1156 c 0,29,30
 818 1156 818 1156 945 1086 c 1,31,-1
 912 826 l 1,32,33
 846 879 846 879 720 904 c 0,34,35
 678 913 678 913 610 913 c 0,36,37
 464 913 464 913 462 835 c 1,38,39
 462 791 462 791 512 760 c 0,40,41
 558 732 558 732 666.5 697.5 c 128,-1,42
 775 663 775 663 834 631.5 c 128,-1,43
 893 600 893 600 932 558 c 1,44,45
 1011 476 1011 476 1011 346 c 0,46,47
 1011 125 1011 125 808 34 c 0,48,49
 743 5 743 5 662 -7 c 1,50,51
 701 -85 701 -85 700.5 -182.5 c 128,-1,52
 700 -280 700 -280 679 -327 c 128,-1,53
 658 -374 658 -374 622 -404 c 0,54,55
 552 -464 552 -464 436 -464 c 0,56,57
 354 -464 354 -464 304.5 -453 c 128,-1,58
 255 -442 255 -442 245 -436 c 1,59,-1
 268 -255 l 1,0,1
EndSplineSet
Substitution2: "'locl' Localized Forms lookup 7 subtable" uni0219
Substitution2: "'locl' Localized Forms lookup 6 subtable" uni0219
Substitution2: "'aalt' Access All Alternates in Latin lookup 0 subtable" uni0219
EndChar

StartChar: uni0162
Encoding: 354 354 313
Width: 1253
GlyphClass: 2
Flags: W
LayerCount: 2
Fore
SplineSet
337 -255 m 1,0,1
 360 -269 360 -269 410 -269 c 128,-1,2
 460 -269 460 -269 494 -232 c 1,3,4
 528 -193 528 -193 528 -117.5 c 128,-1,5
 528 -42 528 -42 507 0 c 1,6,-1
 435 0 l 1,7,-1
 435 1228 l 1,8,-1
 28 1228 l 1,9,-1
 28 1522 l 1,10,-1
 1225 1522 l 1,11,-1
 1225 1228 l 1,12,-1
 819 1228 l 1,13,-1
 819 0 l 1,14,-1
 727 0 l 1,15,16
 770 -78 770 -78 769.5 -179 c 128,-1,17
 769 -280 769 -280 748 -327 c 128,-1,18
 727 -374 727 -374 691 -404 c 0,19,20
 621 -464 621 -464 505 -464 c 0,21,22
 423 -464 423 -464 373.5 -453 c 128,-1,23
 324 -442 324 -442 314 -436 c 1,24,-1
 337 -255 l 1,0,1
EndSplineSet
Substitution2: "'locl' Localized Forms lookup 7 subtable" uni021A
Substitution2: "'aalt' Access All Alternates in Latin lookup 0 subtable" uni021A
EndChar

StartChar: uni0163
Encoding: 355 355 314
Width: 926
GlyphClass: 2
Flags: W
LayerCount: 2
Fore
SplineSet
206 -255 m 1,0,1
 229 -269 229 -269 279 -269 c 128,-1,2
 329 -269 329 -269 362 -232 c 0,3,4
 397 -193 397 -193 397 -131 c 0,5,6
 397 -38 397 -38 374 4 c 1,7,8
 273 37 273 37 231 124.5 c 128,-1,9
 189 212 189 212 189 355 c 2,10,-1
 189 897 l 1,11,-1
 57 897 l 1,12,-1
 57 1093 l 1,13,14
 186 1131 186 1131 214 1157.5 c 128,-1,15
 242 1184 242 1184 252.5 1205 c 128,-1,16
 263 1226 263 1226 272.5 1249.5 c 128,-1,17
 282 1273 282 1273 292.5 1298.5 c 128,-1,18
 303 1324 303 1324 313.5 1350.5 c 128,-1,19
 324 1377 324 1377 334 1400 c 1,20,-1
 559 1400 l 1,21,-1
 559 1140 l 1,22,-1
 855 1140 l 1,23,-1
 855 897 l 1,24,-1
 559 897 l 1,25,-1
 559 491 l 2,26,27
 559 339 559 339 587 296 c 0,28,29
 602 273 602 273 627.5 267 c 128,-1,30
 653 261 653 261 681.5 261 c 128,-1,31
 710 261 710 261 733.5 264.5 c 128,-1,32
 757 268 757 268 780 274 c 0,33,34
 834 289 834 289 858 306 c 1,35,-1
 902 100 l 1,36,37
 847 45 847 45 700 7 c 0,38,39
 653 -5 653 -5 602 -11 c 1,40,41
 639 -85 639 -85 638.5 -182.5 c 128,-1,42
 638 -280 638 -280 617 -327 c 128,-1,43
 596 -374 596 -374 560 -404 c 0,44,45
 490 -464 490 -464 374 -464 c 0,46,47
 292 -464 292 -464 242.5 -453 c 128,-1,48
 193 -442 193 -442 183 -436 c 1,49,-1
 206 -255 l 1,0,1
EndSplineSet
Substitution2: "'locl' Localized Forms lookup 7 subtable" uni021B
Substitution2: "'aalt' Access All Alternates in Latin lookup 0 subtable" uni021B
EndChar

StartChar: Tbar
Encoding: 358 358 317
Width: 1253
GlyphClass: 2
Flags: W
LayerCount: 2
Fore
SplineSet
435 558 m 1,0,-1
 177 558 l 1,1,-1
 177 796 l 1,2,-1
 435 796 l 1,3,-1
 435 1228 l 1,4,-1
 28 1228 l 1,5,-1
 28 1522 l 1,6,-1
 1225 1522 l 1,7,-1
 1225 1228 l 1,8,-1
 819 1228 l 1,9,-1
 819 796 l 1,10,-1
 1104 796 l 1,11,-1
 1104 558 l 1,12,-1
 819 558 l 1,13,-1
 819 0 l 1,14,-1
 435 0 l 1,15,-1
 435 558 l 1,0,-1
EndSplineSet
EndChar

StartChar: tbar
Encoding: 359 359 318
Width: 926
GlyphClass: 2
Flags: W
LayerCount: 2
Fore
SplineSet
189 492 m 1,0,-1
 59 492 l 1,1,-1
 59 738 l 1,2,-1
 189 738 l 1,3,-1
 189 897 l 1,4,-1
 57 897 l 1,5,-1
 57 1093 l 1,6,7
 186 1131 186 1131 214 1157.5 c 128,-1,8
 242 1184 242 1184 252.5 1205 c 128,-1,9
 263 1226 263 1226 272.5 1249.5 c 128,-1,10
 282 1273 282 1273 292.5 1298.5 c 128,-1,11
 303 1324 303 1324 313.5 1350.5 c 128,-1,12
 324 1377 324 1377 334 1400 c 1,13,-1
 559 1400 l 1,14,-1
 559 1140 l 1,15,-1
 855 1140 l 1,16,-1
 855 897 l 1,17,-1
 559 897 l 1,18,-1
 559 738 l 1,19,-1
 857 738 l 1,20,-1
 857 492 l 1,21,-1
 559 492 l 1,22,-1
 559 491 l 2,23,24
 559 339 559 339 587 296 c 0,25,26
 602 273 602 273 627.5 267 c 128,-1,27
 653 261 653 261 681.5 261 c 128,-1,28
 710 261 710 261 733.5 264.5 c 128,-1,29
 757 268 757 268 780 274 c 0,30,31
 834 289 834 289 858 306 c 1,32,-1
 902 100 l 1,33,34
 827 29 827 29 644 -5 c 0,35,36
 584 -16 584 -16 507 -16 c 128,-1,37
 430 -16 430 -16 366.5 7 c 128,-1,38
 303 30 303 30 264 76 c 0,39,40
 189 164 189 164 189 355 c 2,41,-1
 189 492 l 1,0,-1
EndSplineSet
EndChar

StartChar: Uogonek
Encoding: 370 370 329
Width: 1545
GlyphClass: 2
Flags: W
LayerCount: 2
Fore
SplineSet
604 -280 m 0,0,1
 604 -125 604 -125 774 -16 c 1,2,3
 278 -13 278 -13 172 370 c 0,4,5
 138 491 138 491 138 638 c 2,6,-1
 142 1522 l 1,7,-1
 520 1522 l 1,8,-1
 517 685 l 2,9,10
 517 678 517 678 517 619.5 c 128,-1,11
 517 561 517 561 533 485.5 c 128,-1,12
 549 410 549 410 582 364 c 0,13,14
 639 284 639 284 775 284 c 0,15,16
 908 284 908 284 968 368 c 0,17,18
 1032 458 1032 458 1032 685 c 2,19,-1
 1032 1522 l 1,20,-1
 1408 1522 l 1,21,-1
 1408 632 l 2,22,23
 1408 122 1408 122 1019 14 c 1,24,25
 898 -103 898 -103 901 -207 c 1,26,27
 907 -299 907 -299 1034 -299 c 0,28,29
 1081 -299 1081 -299 1143 -279 c 1,30,-1
 1143 -449 l 1,31,32
 1036 -516 1036 -516 885 -516 c 0,33,34
 773 -516 773 -516 691 -453 c 0,35,36
 604 -386 604 -386 604 -280 c 0,0,1
EndSplineSet
EndChar

StartChar: uogonek
Encoding: 371 371 330
Width: 1362
GlyphClass: 2
Flags: W
LayerCount: 2
Fore
SplineSet
896 -12 m 1,0,1
 863 -2 863 -2 863 42 c 2,2,-1
 863 90 l 1,3,4
 770 19 770 19 616 -8 c 0,5,6
 571 -16 571 -16 531 -16 c 0,7,8
 300 -16 300 -16 213 122 c 0,9,10
 145 228 145 228 145 470 c 2,11,-1
 145 1140 l 1,12,-1
 516 1140 l 1,13,-1
 516 461 l 2,14,15
 516 336 516 336 553 291 c 0,16,17
 587 250 587 250 667 250 c 0,18,19
 738 250 738 250 802 285 c 0,20,21
 819 294 819 294 829 303 c 1,22,-1
 829 1140 l 1,23,-1
 1200 1140 l 1,24,-1
 1200 -16 l 1,25,-1
 1144 -16 l 1,26,27
 979 -111 979 -111 989 -211 c 1,28,29
 993 -299 993 -299 1114 -299 c 0,30,31
 1161 -299 1161 -299 1223 -279 c 1,32,-1
 1223 -449 l 1,33,34
 1116 -516 1116 -516 965 -516 c 0,35,36
 850 -516 850 -516 772 -461 c 0,37,38
 684 -399 684 -399 684 -298 c 0,39,40
 684 -131 684 -131 896 -12 c 1,0,1
EndSplineSet
EndChar

StartChar: florin
Encoding: 402 402 342
Width: 1196
GlyphClass: 2
Flags: W
LayerCount: 2
Fore
SplineSet
1101 1395 m 1,0,1
 1063 1422 1063 1422 967.5 1422 c 128,-1,2
 872 1422 872 1422 823 1367.5 c 128,-1,3
 774 1313 774 1313 763 1202 c 1,4,-1
 756 1140 l 1,5,-1
 1016 1140 l 1,6,-1
 996 893 l 1,7,-1
 736 893 l 1,8,-1
 625 -356 l 1,9,-1
 250 -356 l 1,10,-1
 360 893 l 1,11,-1
 203 893 l 1,12,-1
 221 1107 l 1,13,-1
 381 1140 l 1,14,-1
 390 1237 l 2,15,16
 412 1475 412 1475 576 1590 c 0,17,18
 710 1684 710 1684 917 1684 c 0,19,20
 1054 1684 1054 1684 1123 1661 c 1,21,-1
 1101 1395 l 1,0,1
EndSplineSet
EndChar

StartChar: dotlessj
Encoding: 567 567 349
Width: 677
GlyphClass: 2
Flags: W
LayerCount: 2
Fore
SplineSet
275 -478 m 0,0,1
 194 -507 194 -507 84 -507 c 128,-1,2
 -26 -507 -26 -507 -104 -481 c 1,3,-1
 -104 -247 l 1,4,5
 -71 -269 -71 -269 -9 -269 c 128,-1,6
 53 -269 53 -269 81 -256 c 128,-1,7
 109 -243 109 -243 126 -212 c 0,8,9
 159 -150 159 -150 159 2 c 2,10,-1
 159 1140 l 1,11,-1
 531 1140 l 1,12,-1
 531 82 l 2,13,14
 531 -384 531 -384 275 -478 c 0,0,1
EndSplineSet
EndChar

StartChar: circumflex
Encoding: 710 710 350
Width: 894
GlyphClass: 2
Flags: W
LayerCount: 2
Fore
SplineSet
31 1363 m 1,0,-1
 336 1733 l 1,1,-1
 559 1733 l 1,2,-1
 863 1363 l 1,3,-1
 686 1249 l 1,4,-1
 447 1476 l 1,5,-1
 207 1249 l 1,6,-1
 31 1363 l 1,0,-1
EndSplineSet
EndChar

StartChar: caron
Encoding: 711 711 351
Width: 830
GlyphClass: 2
Flags: W
LayerCount: 2
Fore
SplineSet
31 1619 m 1,0,-1
 207 1732 l 1,1,-1
 447 1505 l 1,2,-1
 686 1732 l 1,3,-1
 863 1618 l 1,4,-1
 559 1249 l 1,5,-1
 336 1249 l 1,6,-1
 31 1619 l 1,0,-1
EndSplineSet
EndChar

StartChar: uni02c9
Encoding: 713 713 352
Width: 701
GlyphClass: 2
Flags: W
LayerCount: 2
Fore
SplineSet
41 1967 m 1,0,-1
 660 1967 l 1,1,-1
 660 1721 l 1,2,-1
 41 1721 l 1,3,-1
 41 1967 l 1,0,-1
EndSplineSet
EndChar

StartChar: breve
Encoding: 728 728 353
Width: 825
GlyphClass: 2
Flags: W
LayerCount: 2
Fore
SplineSet
412 1286 m 0,0,1
 319 1286 319 1286 246 1316 c 0,2,3
 102 1375 102 1375 52 1528 c 1,4,5
 28 1598 28 1598 28 1681 c 0,6,7
 28 1685 28 1685 28 1688 c 1,8,-1
 255 1688 l 1,9,10
 262 1624 262 1624 281 1594 c 0,11,12
 322 1529 322 1529 414 1529 c 0,13,14
 503 1529 503 1529 542 1590 c 0,15,16
 563 1622 563 1622 574 1688 c 1,17,-1
 798 1688 l 1,18,19
 798 1685 798 1685 798 1682 c 0,20,21
 798 1510 798 1510 698 1400 c 0,22,23
 593 1286 593 1286 412 1286 c 0,0,1
EndSplineSet
EndChar

StartChar: dotaccent
Encoding: 729 729 354
Width: 533
GlyphClass: 2
Flags: W
LayerCount: 2
Fore
SplineSet
259 1279 m 0,0,1
 169 1279 169 1279 112 1332 c 0,2,3
 53 1387 53 1387 53 1471 c 256,4,5
 53 1555 53 1555 119.5 1616 c 128,-1,6
 186 1677 186 1677 276 1677 c 256,7,8
 366 1677 366 1677 423 1624 c 256,9,10
 480 1571 480 1571 480 1486 c 0,11,12
 480 1402 480 1402 415 1340 c 0,13,14
 350 1279 350 1279 259 1279 c 0,0,1
EndSplineSet
EndChar

StartChar: ring
Encoding: 730 730 355
Width: 779
GlyphClass: 2
Flags: W
LayerCount: 2
Fore
SplineSet
522 1313.5 m 128,-1,1
 456 1296 456 1296 378 1296 c 128,-1,2
 300 1296 300 1296 232 1318 c 0,3,4
 98 1362 98 1362 49 1480 c 0,5,6
 26 1536 26 1536 26 1604 c 0,7,8
 26 1758 26 1758 146 1840 c 0,9,10
 243 1906 243 1906 395 1906 c 0,11,12
 654 1906 654 1906 728 1734 c 0,13,14
 753 1677 753 1677 752.5 1600 c 128,-1,15
 752 1523 752 1523 721 1464.5 c 128,-1,16
 690 1406 690 1406 639 1368.5 c 128,-1,0
 588 1331 588 1331 522 1313.5 c 128,-1,1
389 1743 m 0,17,18
 231 1743 231 1743 231 1607 c 0,19,20
 231 1510 231 1510 325 1476 c 0,21,22
 354 1465 354 1465 389.5 1465 c 128,-1,23
 425 1465 425 1465 454.5 1471 c 128,-1,24
 484 1477 484 1477 505 1492 c 0,25,26
 549 1525 549 1525 549 1600 c 0,27,28
 549 1700 549 1700 452 1733 c 0,29,30
 423 1743 423 1743 389 1743 c 0,17,18
EndSplineSet
EndChar

StartChar: ogonek
Encoding: 731 731 356
Width: 650
GlyphClass: 2
Flags: W
LayerCount: 2
Fore
SplineSet
566 -451 m 1,0,1
 476 -518 476 -518 328 -518 c 0,2,3
 158 -518 158 -518 90 -423 c 0,4,5
 63 -384 63 -384 63 -327.5 c 128,-1,6
 63 -271 63 -271 81 -224 c 128,-1,7
 99 -177 99 -177 133 -136 c 0,8,9
 191 -65 191 -65 286 -11 c 1,10,-1
 550 29 l 1,11,12
 440 -41 440 -41 399 -84 c 0,13,14
 323 -163 323 -163 323 -233 c 0,15,16
 323 -284 323 -284 356 -300.5 c 128,-1,17
 389 -317 389 -317 444.5 -317 c 128,-1,18
 500 -317 500 -317 563 -304 c 1,19,-1
 566 -451 l 1,0,1
EndSplineSet
EndChar

StartChar: tilde
Encoding: 732 732 357
Width: 933
GlyphClass: 2
Flags: W
LayerCount: 2
Fore
SplineSet
303 1434 m 0,0,1
 218 1434 218 1434 141 1333 c 1,2,-1
 8 1466 l 1,3,4
 34 1561 34 1561 113 1624 c 1,5,6
 202 1697 202 1697 320 1697 c 0,7,8
 406 1697 406 1697 448.5 1672.5 c 128,-1,9
 491 1648 491 1648 510.5 1631.5 c 128,-1,10
 530 1615 530 1615 548 1600 c 0,11,12
 590 1566 590 1566 634 1566 c 0,13,14
 720 1566 720 1566 801 1672 c 1,15,-1
 928 1536 l 1,16,17
 902 1441 902 1441 825 1374 c 1,18,19
 738 1300 738 1300 624 1300 c 0,20,21
 547 1300 547 1300 503.5 1325 c 128,-1,22
 460 1350 460 1350 439.5 1367 c 128,-1,23
 419 1384 419 1384 398 1399 c 0,24,25
 351 1434 351 1434 303 1434 c 0,0,1
EndSplineSet
EndChar

StartChar: hungarumlaut
Encoding: 733 733 358
Width: 1041
GlyphClass: 2
Flags: W
LayerCount: 2
Fore
SplineSet
27 1384 m 1,0,1
 78 1452 78 1452 182 1612 c 1,2,3
 318 1825 318 1825 327 1837 c 1,4,-1
 542 1690 l 1,5,6
 494 1597 494 1597 368 1456 c 1,7,8
 250 1326 250 1326 171 1280 c 1,9,-1
 27 1384 l 1,0,1
548 1384 m 1,10,11
 563 1403 563 1403 589.5 1442 c 128,-1,12
 616 1481 616 1481 648.5 1528 c 128,-1,13
 681 1575 681 1575 715 1625.5 c 128,-1,14
 749 1676 749 1676 778 1720 c 0,15,16
 835 1807 835 1807 852 1831 c 1,17,-1
 1068 1684 l 1,18,19
 994 1544 994 1544 816 1378 c 0,20,21
 734 1302 734 1302 688 1280 c 1,22,-1
 548 1384 l 1,10,11
EndSplineSet
EndChar

StartChar: pi
Encoding: 960 960 362
Width: 1603
GlyphClass: 2
Flags: W
LayerCount: 2
Fore
SplineSet
132 127 m 1,0,1
 172 136 172 136 214.5 169 c 128,-1,2
 257 202 257 202 282.5 238 c 128,-1,3
 308 274 308 274 324 314 c 0,4,5
 350 380 350 380 362 487 c 2,6,-1
 406 850 l 1,7,-1
 336 850 l 2,8,9
 239 850 239 850 178 799 c 0,10,11
 162 785 162 785 147 770 c 1,12,-1
 21 865 l 1,13,14
 28 963 28 963 74 1029 c 1,15,16
 118 1085 118 1085 165 1104 c 1,17,18
 249 1140 249 1140 371 1140 c 2,19,-1
 1252 1140 l 2,20,21
 1314 1140 1314 1140 1343.5 1157 c 128,-1,22
 1373 1174 1373 1174 1387 1215 c 1,23,-1
 1583 1215 l 1,24,25
 1577 1018 1577 1018 1500 934 c 0,26,27
 1423 851 1423 851 1252 851 c 2,28,-1
 1231 851 l 1,29,-1
 1215 348 l 2,30,31
 1215 339 1215 339 1215 309 c 128,-1,32
 1215 279 1215 279 1232 254 c 128,-1,33
 1249 229 1249 229 1277 229 c 128,-1,34
 1305 229 1305 229 1329 241.5 c 128,-1,35
 1353 254 1353 254 1375 272.5 c 128,-1,36
 1397 291 1397 291 1415.5 312 c 128,-1,37
 1434 333 1434 333 1450 350 c 1,38,-1
 1560 219 l 1,39,40
 1511 124 1511 124 1402 55 c 0,41,42
 1277 -24 1277 -24 1135.5 -24 c 128,-1,43
 994 -24 994 -24 940.5 46.5 c 128,-1,44
 887 117 887 117 887 225 c 0,45,46
 887 252 887 252 890 282 c 2,47,-1
 947 850 l 1,48,-1
 707 850 l 1,49,-1
 684 400 l 1,50,51
 674 246 674 246 648 189 c 128,-1,52
 622 132 622 132 596.5 103 c 128,-1,53
 571 74 571 74 537 44 c 1,54,55
 453 -19 453 -19 336 -24 c 1,56,-1
 132 127 l 1,0,1
EndSplineSet
EndChar

StartChar: endash
Encoding: 8211 8211 385
Width: 1708
GlyphClass: 2
Flags: W
LayerCount: 2
Fore
SplineSet
248 904 m 1,0,-1
 1460 904 l 1,1,-1
 1460 626 l 1,2,-1
 248 626 l 1,3,-1
 248 904 l 1,0,-1
EndSplineSet
EndChar

StartChar: emdash
Encoding: 8212 8212 386
Width: 2422
GlyphClass: 2
Flags: W
LayerCount: 2
Fore
SplineSet
248 904 m 1,0,-1
 2174 904 l 1,1,-1
 2174 626 l 1,2,-1
 248 626 l 1,3,-1
 248 904 l 1,0,-1
EndSplineSet
EndChar

StartChar: quoteleft
Encoding: 8216 8216 387
Width: 624
GlyphClass: 2
Flags: W
LayerCount: 2
Fore
SplineSet
303 916 m 1,0,1
 230 942 230 942 174 1039 c 0,2,3
 110 1149 110 1149 110 1272 c 128,-1,4
 110 1395 110 1395 133.5 1475 c 128,-1,5
 157 1555 157 1555 190 1612 c 0,6,7
 242 1705 242 1705 313 1756 c 1,8,-1
 467 1661 l 1,9,-1
 467 1632 l 1,10,11
 429 1584 429 1584 414 1462 c 0,12,13
 410 1423 410 1423 410 1379 c 128,-1,14
 410 1335 410 1335 418.5 1295.5 c 128,-1,15
 427 1256 427 1256 440 1226 c 0,16,17
 467 1166 467 1166 500 1147 c 1,18,-1
 500 1068 l 1,19,-1
 303 916 l 1,0,1
EndSplineSet
EndChar

StartChar: quoteright
Encoding: 8217 8217 388
Width: 624
GlyphClass: 2
Flags: W
LayerCount: 2
Fore
SplineSet
146 1012 m 1,0,-1
 146 1041 l 1,1,2
 183 1087 183 1087 198 1212 c 0,3,4
 202 1250 202 1250 202 1294 c 128,-1,5
 202 1338 202 1338 193.5 1377.5 c 128,-1,6
 185 1417 185 1417 172 1447 c 0,7,8
 145 1507 145 1507 113 1525 c 1,9,-1
 113 1604 l 1,10,-1
 315 1756 l 1,11,12
 388 1729 388 1729 441 1636 c 0,13,14
 502 1528 502 1528 502 1405 c 128,-1,15
 502 1282 502 1282 478 1201.5 c 128,-1,16
 454 1121 454 1121 421 1063 c 0,17,18
 367 967 367 967 296 916 c 1,19,-1
 146 1012 l 1,0,-1
EndSplineSet
EndChar

StartChar: quotereversed
Encoding: 8219 8219 390
Width: 624
GlyphClass: 2
Flags: W
LayerCount: 2
Fore
SplineSet
313 916 m 1,0,1
 190 1005 190 1005 134 1198 c 0,2,3
 110 1278 110 1278 110 1368.5 c 128,-1,4
 110 1459 110 1459 128 1522.5 c 128,-1,5
 146 1586 146 1586 174 1634 c 0,6,7
 230 1729 230 1729 303 1756 c 1,8,-1
 500 1604 l 1,9,-1
 500 1525 l 1,10,11
 443 1493 443 1493 418 1378 c 0,12,13
 410 1338 410 1338 410 1294 c 128,-1,14
 410 1250 410 1250 414.5 1211.5 c 128,-1,15
 419 1173 419 1173 426 1140 c 0,16,17
 442 1072 442 1072 467 1041 c 1,18,-1
 467 1012 l 1,19,-1
 313 916 l 1,0,1
EndSplineSet
EndChar

StartChar: dagger
Encoding: 8224 8224 394
Width: 1034
GlyphClass: 2
Flags: W
LayerCount: 2
Fore
SplineSet
370 1041 m 1,0,-1
 92 1041 l 1,1,-1
 93 1288 l 1,2,-1
 370 1287 l 1,3,-1
 371 1658 l 1,4,-1
 663 1658 l 1,5,-1
 663 1287 l 1,6,-1
 942 1288 l 1,7,-1
 942 1041 l 1,8,-1
 663 1041 l 1,9,-1
 649 200 l 1,10,-1
 387 200 l 1,11,-1
 370 1041 l 1,0,-1
EndSplineSet
EndChar

StartChar: daggerdbl
Encoding: 8225 8225 395
Width: 1039
GlyphClass: 2
Flags: W
LayerCount: 2
Fore
SplineSet
92 639 m 1,0,-1
 370 640 l 1,1,-1
 370 1041 l 1,2,-1
 92 1041 l 1,3,-1
 93 1288 l 1,4,-1
 370 1288 l 1,5,-1
 371 1658 l 1,6,-1
 664 1658 l 1,7,-1
 662 1288 l 1,8,-1
 947 1288 l 1,9,-1
 947 1041 l 1,10,-1
 662 1041 l 1,11,-1
 662 640 l 1,12,-1
 946 639 l 1,13,-1
 946 392 l 1,14,-1
 662 392 l 1,15,-1
 641 -356 l 1,16,-1
 388 -356 l 1,17,-1
 370 392 l 1,18,-1
 92 392 l 1,19,-1
 92 639 l 1,0,-1
EndSplineSet
EndChar

StartChar: bullet
Encoding: 8226 8226 396
Width: 911
GlyphClass: 2
Flags: W
LayerCount: 2
Fore
SplineSet
446 440 m 0,0,1
 323 440 323 440 241 520 c 0,2,3
 161 599 161 599 161 721 c 0,4,5
 161 842 161 842 253 932 c 128,-1,6
 345 1022 345 1022 468 1022 c 256,7,8
 591 1022 591 1022 672 943 c 0,9,10
 750 866 750 866 750 742 c 0,11,12
 750 623 750 623 660 531 c 0,13,14
 571 440 571 440 446 440 c 0,0,1
EndSplineSet
EndChar

StartChar: ellipsis
Encoding: 8230 8230 397
Width: 1994
GlyphClass: 2
Flags: W
LayerCount: 2
Fore
SplineSet
1446 189 m 0,0,1
 1446 280 1446 280 1510 348 c 0,2,3
 1575 416 1575 416 1670 416 c 0,4,5
 1762 416 1762 416 1818 356 c 0,6,7
 1873 298 1873 298 1873 206 c 0,8,9
 1873 113 1873 113 1810 46 c 0,10,11
 1745 -22 1745 -22 1652 -22 c 0,12,13
 1560 -22 1560 -22 1503 38 c 0,14,15
 1446 99 1446 99 1446 189 c 0,0,1
783 189 m 0,16,17
 783 279 783 279 848 348 c 0,18,19
 913 416 913 416 1007 416 c 0,20,21
 1099 416 1099 416 1156 356 c 0,22,23
 1210 298 1210 298 1210 206 c 0,24,25
 1210 113 1210 113 1148 46 c 1,26,27
 1083 -22 1083 -22 990 -22 c 0,28,29
 898 -22 898 -22 841 38 c 0,30,31
 783 100 783 100 783 189 c 0,16,17
120 189 m 0,32,33
 120 279 120 279 185 348 c 0,34,35
 250 416 250 416 344 416 c 0,36,37
 437 416 437 416 494 356 c 0,38,39
 548 298 548 298 548 206 c 0,40,41
 548 113 548 113 485 46 c 0,42,43
 420 -22 420 -22 327 -22 c 0,44,45
 235 -22 235 -22 178 38 c 0,46,47
 120 100 120 100 120 189 c 0,32,33
EndSplineSet
EndChar

StartChar: perthousand
Encoding: 8240 8240 398
Width: 3252
GlyphClass: 3
Flags: W
LayerCount: 2
Fore
SplineSet
2273 472 m 0,0,1
 2273 579 2273 579 2311 667.5 c 128,-1,2
 2349 756 2349 756 2412 816 c 0,3,4
 2543 939 2543 939 2731 939 c 0,5,6
 2734 939 2734 939 2737 939 c 0,7,8
 2942 939 2942 939 3052 804 c 0,9,10
 3152 680 3152 680 3152 471 c 0,11,12
 3152 252 3152 252 3012 120 c 1,13,14
 2883 -4 2883 -4 2695 -4 c 0,15,16
 2487 -4 2487 -4 2375 132 c 0,17,18
 2273 257 2273 257 2273 472 c 0,0,1
2597 646 m 128,-1,20
 2556 584 2556 584 2556 501.5 c 128,-1,21
 2556 419 2556 419 2566.5 374 c 128,-1,22
 2577 329 2577 329 2596 297 c 0,23,24
 2637 230 2637 230 2712 230 c 128,-1,25
 2787 230 2787 230 2827.5 292 c 128,-1,26
 2868 354 2868 354 2868 436 c 128,-1,27
 2868 518 2868 518 2857.5 563 c 128,-1,28
 2847 608 2847 608 2828 640 c 0,29,30
 2787 708 2787 708 2712.5 708 c 128,-1,19
 2638 708 2638 708 2597 646 c 128,-1,20
521 589 m 0,31,32
 518 589 518 589 515 589 c 0,33,34
 312 589 312 589 201 724 c 0,35,36
 99 849 99 849 99 1057 c 0,37,38
 99 1276 99 1276 238 1408 c 0,39,40
 368 1532 368 1532 557 1532 c 0,41,42
 560 1532 560 1532 563 1532 c 0,43,44
 768 1532 768 1532 878 1396 c 0,45,46
 978 1271 978 1271 978 1063 c 0,47,48
 978 845 978 845 838 712 c 0,49,50
 709 589 709 589 521 589 c 0,31,32
1283 1530 m 1,51,-1
 1566 1530 l 1,52,-1
 1009 0 l 1,53,-1
 727 0 l 1,54,-1
 1283 1530 l 1,51,-1
653.5 884 m 128,-1,56
 694 946 694 946 694 1028 c 128,-1,57
 694 1110 694 1110 683.5 1155.5 c 128,-1,58
 673 1201 673 1201 654 1233 c 0,59,60
 613 1300 613 1300 538 1300 c 128,-1,61
 463 1300 463 1300 422.5 1238 c 128,-1,62
 382 1176 382 1176 382 1094 c 128,-1,63
 382 1012 382 1012 392.5 967 c 128,-1,64
 403 922 403 922 422 890 c 0,65,66
 463 822 463 822 538 822 c 128,-1,55
 613 822 613 822 653.5 884 c 128,-1,56
1309 472 m 0,67,68
 1309 579 1309 579 1347 667.5 c 128,-1,69
 1385 756 1385 756 1448 816 c 0,70,71
 1579 939 1579 939 1766 939 c 0,72,73
 1769 939 1769 939 1772 939 c 0,74,75
 1978 939 1978 939 2088 804 c 0,76,77
 2188 680 2188 680 2188 471 c 0,78,79
 2188 252 2188 252 2048 120 c 1,80,81
 1919 -4 1919 -4 1730 -4 c 0,82,83
 1521 -4 1521 -4 1410 132 c 1,84,85
 1309 258 1309 258 1309 472 c 0,67,68
1632.5 646 m 128,-1,87
 1592 584 1592 584 1592 501.5 c 128,-1,88
 1592 419 1592 419 1602.5 374 c 128,-1,89
 1613 329 1613 329 1632 297 c 0,90,91
 1673 230 1673 230 1748 230 c 128,-1,92
 1823 230 1823 230 1863 292 c 128,-1,93
 1903 354 1903 354 1903 436 c 128,-1,94
 1903 518 1903 518 1893 563 c 128,-1,95
 1883 608 1883 608 1864 640 c 0,96,97
 1823 708 1823 708 1748 708 c 128,-1,86
 1673 708 1673 708 1632.5 646 c 128,-1,87
EndSplineSet
Ligature2: "'frac' Diagonal Fractions in Latin lookup 10 subtable" zero slash zero zero
EndChar

StartChar: minute
Encoding: 8242 8242 399
Width: 690
GlyphClass: 2
Flags: W
LayerCount: 2
Fore
SplineSet
257 1850 m 1,0,-1
 603 1850 l 1,1,-1
 417 1190 l 1,2,-1
 139 1190 l 1,3,-1
 257 1850 l 1,0,-1
EndSplineSet
EndChar

StartChar: guilsinglleft
Encoding: 8249 8249 401
Width: 1212
GlyphClass: 2
Flags: W
LayerCount: 2
Fore
SplineSet
221 757 m 1,0,-1
 885 1174 l 1,1,-1
 971 921 l 1,2,-1
 575 615 l 1,3,-1
 971 309 l 1,4,-1
 885 56 l 1,5,-1
 221 473 l 1,6,-1
 221 757 l 1,0,-1
EndSplineSet
EndChar

StartChar: fraction
Encoding: 8260 8260 404
Width: 1034
GlyphClass: 2
Flags: W
LayerCount: 2
Fore
SplineSet
653 1530 m 1,0,-1
 919 1530 l 1,1,-1
 377 0 l 1,2,-1
 114 0 l 1,3,-1
 653 1530 l 1,0,-1
EndSplineSet
EndChar

StartChar: foursuperior
Encoding: 8308 8308 405
Width: 1205
GlyphClass: 2
Flags: W
LayerCount: 2
Fore
SplineSet
69 947 m 1,0,-1
 542 1856 l 1,1,-1
 611 1856 l 1,2,-1
 851 1753 l 1,3,-1
 472 1143 l 1,4,-1
 429 1068 l 1,5,-1
 694 1068 l 1,6,-1
 722 1340 l 1,7,-1
 992 1340 l 1,8,-1
 992 1068 l 1,9,-1
 1144 1068 l 1,10,-1
 1144 853 l 1,11,-1
 992 853 l 1,12,-1
 992 588 l 1,13,-1
 692 588 l 1,14,-1
 693 853 l 1,15,-1
 122 853 l 1,16,-1
 69 947 l 1,0,-1
EndSplineSet
EndChar

StartChar: Euro
Encoding: 8364 8364 406
Width: 1478
GlyphClass: 2
Flags: W
LayerCount: 2
Fore
SplineSet
685 472 m 1,0,1
 766 246 766 246 1016 246 c 0,2,3
 1149 246 1149 246 1264 292 c 0,4,5
 1298 306 1298 306 1321 322 c 1,6,-1
 1381 43 l 1,7,8
 1352 39 1352 39 1312.5 25.5 c 128,-1,9
 1273 12 1273 12 1243 3.5 c 128,-1,10
 1213 -5 1213 -5 1173 -12 c 0,11,12
 1082 -28 1082 -28 950 -28 c 128,-1,13
 818 -28 818 -28 706.5 5.5 c 128,-1,14
 595 39 595 39 512 103 c 0,15,16
 347 229 347 229 292 472 c 1,17,-1
 84 472 l 1,18,-1
 84 677 l 1,19,-1
 267 677 l 1,20,-1
 267 720 l 2,21,22
 267 768 267 768 272 843 c 1,23,-1
 114 843 l 1,24,-1
 114 1048 l 1,25,-1
 309 1048 l 1,26,27
 450 1539 450 1539 1010 1539 c 0,28,29
 1161 1539 1161 1539 1288 1496 c 0,30,31
 1321 1484 1321 1484 1353 1477 c 1,32,-1
 1300 1189 l 1,33,34
 1190 1257 1190 1257 1011 1257 c 0,35,36
 771 1257 771 1257 684 1048 c 1,37,-1
 1169 1048 l 1,38,-1
 1169 843 l 1,39,-1
 643 843 l 1,40,41
 642 832 642 832 642 820 c 128,-1,42
 642 808 642 808 642 771.5 c 128,-1,43
 642 735 642 735 646 677 c 1,44,-1
 1124 677 l 1,45,-1
 1124 472 l 1,46,-1
 685 472 l 1,0,1
EndSplineSet
EndChar

StartChar: uni2113
Encoding: 8467 8467 407
Width: 1387
GlyphClass: 2
Flags: W
LayerCount: 2
Fore
SplineSet
624 297 m 1,0,1
 669 241 669 241 731 241 c 128,-1,2
 793 241 793 241 834 261.5 c 128,-1,3
 875 282 875 282 910 316 c 0,4,5
 966 370 966 370 1024 484 c 1,6,-1
 1285 383 l 1,7,8
 1230 276 1230 276 1191.5 223 c 128,-1,9
 1153 170 1153 170 1108.5 126.5 c 128,-1,10
 1064 83 1064 83 1004 49 c 0,11,12
 872 -27 872 -27 695 -27 c 0,13,14
 575 -27 575 -27 462 55 c 0,15,16
 422 84 422 84 386 126 c 1,17,18
 348 102 348 102 310 79 c 128,-1,19
 272 56 272 56 234 33 c 1,20,-1
 -40 192 l 1,21,22
 108 270 108 270 265 384 c 1,23,24
 248 469 248 469 248 575.5 c 128,-1,25
 248 682 248 682 267 805.5 c 128,-1,26
 286 929 286 929 323.5 1049 c 128,-1,27
 361 1169 361 1169 418 1277.5 c 128,-1,28
 475 1386 475 1386 550 1468 c 0,29,30
 714 1649 714 1649 924 1649 c 0,31,32
 1079 1649 1079 1649 1164 1559 c 0,33,34
 1250 1467 1250 1467 1250 1289 c 0,35,36
 1250 912 1250 912 876 526 c 0,37,38
 761 406 761 406 624 297 c 1,0,1
926 1258 m 0,39,40
 926 1361 926 1361 867 1361 c 0,41,42
 809 1361 809 1361 740 1250 c 1,43,44
 641 1086 641 1086 592 808 c 0,45,46
 576 721 576 721 570 634 c 1,47,48
 825 876 825 876 901 1100 c 0,49,50
 926 1174 926 1174 926 1213.5 c 128,-1,51
 926 1253 926 1253 926 1258 c 0,39,40
EndSplineSet
EndChar

StartChar: afii61352
Encoding: 8470 8470 408
Width: 2750
GlyphClass: 2
Flags: W
LayerCount: 2
Fore
SplineSet
2134 398 m 0,0,1
 1591 398 1591 398 1591 964 c 0,2,3
 1591 1238 1591 1238 1744 1386 c 1,4,5
 1891 1530 1891 1530 2153 1530 c 0,6,7
 2418 1530 2418 1530 2554 1366 c 0,8,9
 2674 1221 2674 1221 2674 978 c 0,10,11
 2674 709 2674 709 2528 552 c 0,12,13
 2384 398 2384 398 2134 398 c 0,0,1
173 1522 m 1,14,-1
 524 1522 l 1,15,-1
 1002 699 l 1,16,-1
 1094 487 l 1,17,-1
 1073 788 l 1,18,-1
 1073 1522 l 1,19,-1
 1402 1522 l 1,20,-1
 1402 0 l 1,21,-1
 1044 0 l 1,22,-1
 582 789 l 1,23,-1
 476 1025 l 1,24,-1
 503 686 l 1,25,-1
 503 0 l 1,26,-1
 173 0 l 1,27,-1
 173 1522 l 1,14,-1
2141 1288 m 0,28,29
 1946 1288 1946 1288 1946 962 c 128,-1,30
 1946 636 1946 636 2138 636 c 0,31,32
 2235 636 2235 636 2277 716 c 128,-1,33
 2319 796 2319 796 2319 967 c 0,34,35
 2319 1288 2319 1288 2141 1288 c 0,28,29
1675 246 m 1,36,-1
 2612 246 l 1,37,-1
 2612 0 l 1,38,-1
 1675 0 l 1,39,-1
 1675 246 l 1,36,-1
EndSplineSet
EndChar

StartChar: trademark
Encoding: 8482 8482 409
Width: 2226
GlyphClass: 2
Flags: W
LayerCount: 2
Fore
SplineSet
996 1543 m 1,0,-1
 1382 1543 l 1,1,-1
 1477 1231 l 1,2,-1
 1510 1089 l 1,3,-1
 1538 1231 l 1,4,-1
 1630 1543 l 1,5,-1
 2007 1543 l 1,6,-1
 2077 767 l 1,7,-1
 1836 767 l 1,8,-1
 1804 1219 l 1,9,-1
 1798 1342 l 1,10,-1
 1746 1170 l 1,11,-1
 1604 767 l 1,12,-1
 1429 767 l 1,13,-1
 1272 1170 l 1,14,-1
 1213 1342 l 1,15,-1
 1198 767 l 1,16,-1
 953 767 l 1,17,-1
 996 1543 l 1,0,-1
373 1331 m 1,18,-1
 129 1330 l 1,19,-1
 128 1543 l 1,20,-1
 867 1543 l 1,21,-1
 867 1330 l 1,22,-1
 615 1331 l 1,23,-1
 615 767 l 1,24,-1
 373 767 l 1,25,-1
 373 1331 l 1,18,-1
EndSplineSet
EndChar

StartChar: Omega
Encoding: 8486 8486 410
Width: 1829
GlyphClass: 2
Flags: W
LayerCount: 2
Fore
SplineSet
157 251 m 1,0,-1
 461 251 l 1,1,2
 263 410 263 410 192 669 c 0,3,4
 168 755 168 755 168 846 c 0,5,6
 168 1085 168 1085 282 1255 c 0,7,8
 428 1475 428 1475 732 1528 c 0,9,10
 825 1545 825 1545 954 1545 c 128,-1,11
 1083 1545 1083 1545 1218 1504 c 0,12,13
 1498 1421 1498 1421 1602 1164 c 0,14,15
 1654 1037 1654 1037 1654 863 c 0,16,17
 1654 580 1654 580 1476 362 c 0,18,19
 1423 297 1423 297 1363 251 c 1,20,-1
 1678 251 l 1,21,-1
 1678 0 l 1,22,-1
 1040 0 l 1,23,-1
 1040 213 l 1,24,25
 1123 259 1123 259 1190 408 c 1,26,27
 1271 592 1271 592 1271 819 c 0,28,29
 1271 1052 1271 1052 1166 1174 c 0,30,31
 1073 1282 1073 1282 921 1282 c 0,32,33
 664 1282 664 1282 581 1032 c 0,34,35
 552 944 552 944 552 819 c 128,-1,36
 552 694 552 694 579 590.5 c 128,-1,37
 606 487 606 487 645.5 409.5 c 128,-1,38
 685 332 685 332 730 282 c 128,-1,39
 775 232 775 232 812 213 c 1,40,-1
 812 0 l 1,41,-1
 157 0 l 1,42,-1
 157 251 l 1,0,-1
EndSplineSet
EndChar

StartChar: estimated
Encoding: 8494 8494 411
Width: 1381
GlyphClass: 2
Flags: W
LayerCount: 2
Fore
SplineSet
1273 832 m 1,0,1
 1273 664 1273 664 1262 612 c 1,2,-1
 450 612 l 1,3,-1
 450 242 l 1,4,5
 554 147 554 147 749 147 c 0,6,7
 916 147 916 147 1060 224 c 0,8,9
 1100 245 1100 245 1127 266 c 1,10,-1
 1197 115 l 1,11,12
 1081 31 1081 31 877 -4 c 0,13,14
 808 -16 808 -16 735 -16 c 0,15,16
 437 -16 437 -16 272 166 c 0,17,18
 108 348 108 348 108 671 c 0,19,20
 108 978 108 978 262 1158 c 0,21,22
 430 1356 430 1356 747 1356 c 0,23,24
 964 1356 964 1356 1110 1219 c 0,25,26
 1265 1074 1265 1074 1273 832 c 1,0,1
949 1134 m 1,27,28
 864 1193 864 1193 707.5 1193 c 128,-1,29
 551 1193 551 1193 450 1096 c 1,30,-1
 450 768 l 1,31,-1
 949 768 l 1,32,-1
 949 1134 l 1,27,28
EndSplineSet
EndChar

StartChar: partialdiff
Encoding: 8706 8706 412
Width: 1425
GlyphClass: 2
Flags: W
LayerCount: 2
Fore
SplineSet
1324 797 m 0,0,1
 1324 -30 1324 -30 659 -30 c 0,2,3
 435 -30 435 -30 273 132 c 0,4,5
 107 298 107 298 107 540 c 0,6,7
 107 916 107 916 421 1045 c 0,8,9
 550 1098 550 1098 713 1098 c 0,10,11
 845 1098 845 1098 947 1046 c 1,12,13
 890 1347 890 1347 662 1437 c 0,14,15
 587 1467 587 1467 523.5 1467 c 128,-1,16
 460 1467 460 1467 424 1461 c 128,-1,17
 388 1455 388 1455 352 1444 c 0,18,19
 278 1423 278 1423 227 1387 c 1,20,-1
 109 1587 l 1,21,22
 295 1732 295 1732 541 1732 c 0,23,24
 800 1732 800 1732 986 1595 c 0,25,26
 1154 1471 1154 1471 1242 1250 c 1,27,28
 1324 1047 1324 1047 1324 797 c 0,0,1
479 550 m 0,29,30
 479 216 479 216 726 216 c 0,31,32
 822 216 822 216 880 302 c 0,33,34
 960 421 960 421 960 655 c 0,35,36
 960 732 960 732 962 796 c 1,37,38
 857 874 857 874 727.5 874 c 128,-1,39
 598 874 598 874 538.5 791.5 c 128,-1,40
 479 709 479 709 479 550 c 0,29,30
EndSplineSet
EndChar

StartChar: Delta
Encoding: 8710 8710 413
Width: 1625
GlyphClass: 2
Flags: W
LayerCount: 2
Fore
SplineSet
769 1508 m 1,0,-1
 809 1508 l 1,1,-1
 1544 27 l 1,2,-1
 1528 0 l 1,3,-1
 92 0 l 1,4,-1
 78 22 l 1,5,-1
 769 1508 l 1,0,-1
1071 290 m 1,6,-1
 783 892 l 1,7,-1
 513 290 l 1,8,-1
 1071 290 l 1,6,-1
EndSplineSet
EndChar

StartChar: product
Encoding: 8719 8719 414
Width: 1716
GlyphClass: 2
Flags: W
LayerCount: 2
Fore
SplineSet
294 1245 m 1,0,-1
 69 1246 l 1,1,-1
 69 1522 l 1,2,-1
 1646 1522 l 1,3,-1
 1646 1246 l 1,4,-1
 1415 1245 l 1,5,-1
 1415 -172 l 1,6,-1
 1039 -172 l 1,7,-1
 1039 1245 l 1,8,-1
 671 1245 l 1,9,-1
 671 -172 l 1,10,-1
 294 -172 l 1,11,-1
 294 1245 l 1,0,-1
EndSplineSet
EndChar

StartChar: summation
Encoding: 8721 8721 415
Width: 1503
GlyphClass: 2
Flags: W
LayerCount: 2
Fore
SplineSet
694 683 m 1,0,-1
 147 1442 l 1,1,-1
 177 1522 l 1,2,-1
 1275 1522 l 1,3,-1
 1275 1243 l 1,4,-1
 671 1243 l 1,5,-1
 1062 689 l 1,6,-1
 673 97 l 1,7,-1
 1333 97 l 1,8,-1
 1333 -170 l 1,9,-1
 173 -170 l 1,10,-1
 147 -99 l 1,11,-1
 694 683 l 1,0,-1
EndSplineSet
EndChar

StartChar: minus
Encoding: 8722 8722 416
Width: 1358
GlyphClass: 2
Flags: W
LayerCount: 2
Fore
SplineSet
254 904 m 1,0,-1
 1104 904 l 1,1,-1
 1104 626 l 1,2,-1
 254 626 l 1,3,-1
 254 904 l 1,0,-1
EndSplineSet
EndChar

StartChar: uni2215
Encoding: 8725 8725 417
Width: 854
GlyphClass: 2
Flags: W
LayerCount: 2
Fore
SplineSet
661 1599 m 1,0,-1
 968 1599 l 1,1,-1
 193 -363 l 1,2,-1
 -114 -363 l 1,3,-1
 661 1599 l 1,0,-1
EndSplineSet
EndChar

StartChar: uni2219
Encoding: 8729 8729 418
Width: 671
GlyphClass: 2
Flags: W
LayerCount: 2
Fore
SplineSet
328 543 m 0,0,1
 276 543 276 543 234 561 c 128,-1,2
 192 579 192 579 162 610 c 0,3,4
 97 677 97 677 97 778 c 0,5,6
 97 881 97 881 169 955 c 0,7,8
 243 1031 243 1031 347 1031 c 256,9,10
 451 1031 451 1031 512 964 c 0,11,12
 573 898 573 898 573 797 c 0,13,14
 573 693 573 693 503 619 c 0,15,16
 431 543 431 543 328 543 c 0,0,1
EndSplineSet
EndChar

StartChar: radical
Encoding: 8730 8730 419
Width: 1647
GlyphClass: 2
Flags: W
LayerCount: 2
Fore
SplineSet
99 575 m 1,0,-1
 382 716 l 1,1,-1
 644 716 l 1,2,-1
 858 76 l 1,3,-1
 1338 1870 l 1,4,-1
 1705 1870 l 1,5,-1
 1020 -354 l 1,6,-1
 703 -354 l 1,7,-1
 392 378 l 1,8,-1
 225 294 l 1,9,-1
 99 575 l 1,0,-1
EndSplineSet
EndChar

StartChar: infinity
Encoding: 8734 8734 420
Width: 2101
GlyphClass: 2
Flags: W
LayerCount: 2
Fore
SplineSet
1024 372 m 1,0,1
 832 150 832 150 585 150 c 0,2,3
 339 150 339 150 202 291 c 1,4,5
 74 421 74 421 74 624 c 0,6,7
 74 822 74 822 210 950 c 0,8,9
 353 1084 353 1084 584 1084 c 0,10,11
 897 1084 897 1084 1078 851 c 1,12,13
 1281 1079 1281 1079 1518 1079 c 0,14,15
 1521 1079 1521 1079 1525 1079 c 0,16,17
 1772 1079 1772 1079 1906 941 c 1,18,19
 2028 817 2028 817 2028 613 c 0,20,21
 2028 413 2028 413 1892 282 c 0,22,23
 1749 145 1749 145 1516 145 c 0,24,25
 1194 145 1194 145 1024 372 c 1,0,1
1202 670 m 1,26,27
 1348 400 1348 400 1517 400 c 0,28,29
 1607 400 1607 400 1662 460 c 1,30,31
 1717 522 1717 522 1717 625 c 0,32,33
 1717 767 1717 767 1582 815 c 0,34,35
 1537 831 1537 831 1473 831 c 0,36,37
 1330 831 1330 831 1202 670 c 1,26,27
397.5 702 m 128,-1,39
 383 663 383 663 383 617.5 c 128,-1,40
 383 572 383 572 397.5 533 c 128,-1,41
 412 494 412 494 441 464 c 0,42,43
 505 398 505 398 619 398 c 0,44,45
 765 398 765 398 899 558 c 1,46,47
 802 738 802 738 674 802 c 0,48,49
 628 825 628 825 582 825 c 128,-1,50
 536 825 536 825 500 810.5 c 128,-1,51
 464 796 464 796 438 768.5 c 128,-1,38
 412 741 412 741 397.5 702 c 128,-1,39
EndSplineSet
EndChar

StartChar: integral
Encoding: 8747 8747 421
Width: 1087
GlyphClass: 2
Flags: W
LayerCount: 2
Fore
SplineSet
194 -175 m 1,0,1
 230 -231 230 -231 339 -264 c 0,2,3
 372 -274 372 -274 417 -274 c 128,-1,4
 462 -274 462 -274 500 -255 c 0,5,6
 598 -206 598 -206 598 -36 c 0,7,8
 598 177 598 177 386 566 c 0,9,10
 263 790 263 790 218 932 c 1,11,12
 173 1079 173 1079 173 1185 c 128,-1,13
 173 1291 173 1291 201 1379.5 c 128,-1,14
 229 1468 229 1468 292 1536 c 0,15,16
 428 1684 428 1684 686 1684 c 0,17,18
 852 1684 852 1684 959 1604 c 0,19,20
 993 1578 993 1578 1012 1547 c 1,21,-1
 881 1364 l 1,22,23
 860 1411 860 1411 766 1439 c 0,24,25
 737 1448 737 1448 705 1448 c 0,26,27
 599 1448 599 1448 546.5 1383.5 c 128,-1,28
 494 1319 494 1319 494 1205 c 0,29,30
 494 1041 494 1041 606 808 c 0,31,32
 653 711 653 711 707.5 612.5 c 128,-1,33
 762 514 762 514 808 413 c 0,34,35
 921 169 921 169 921 -9 c 0,36,37
 921 -219 921 -219 808 -356 c 0,38,39
 674 -518 674 -518 424 -518 c 0,40,41
 330 -518 330 -518 257 -490 c 0,42,43
 126 -441 126 -441 91 -387 c 1,44,-1
 194 -175 l 1,0,1
EndSplineSet
EndChar

StartChar: notequal
Encoding: 8800 8800 423
Width: 1430
GlyphClass: 2
Flags: W
LayerCount: 2
Fore
SplineSet
482 395 m 1,0,-1
 253 395 l 1,1,-1
 253 647 l 1,2,-1
 568 647 l 1,3,-1
 653 904 l 1,4,-1
 253 904 l 1,5,-1
 253 1155 l 1,6,-1
 737 1155 l 1,7,-1
 798 1346 l 1,8,-1
 1010 1346 l 1,9,-1
 943 1155 l 1,10,-1
 1177 1155 l 1,11,-1
 1177 904 l 1,12,-1
 857 904 l 1,13,-1
 773 647 l 1,14,-1
 1177 647 l 1,15,-1
 1177 395 l 1,16,-1
 690 395 l 1,17,-1
 619 179 l 1,18,-1
 409 179 l 1,19,-1
 482 395 l 1,0,-1
EndSplineSet
EndChar

StartChar: lessequal
Encoding: 8804 8804 424
Width: 1376
GlyphClass: 2
Flags: W
LayerCount: 2
Fore
SplineSet
167 891 m 1,0,-1
 1136 1311 l 1,1,-1
 1136 1008 l 1,2,-1
 582 804 l 1,3,-1
 1136 605 l 1,4,-1
 1136 312 l 1,5,-1
 167 728 l 1,6,-1
 167 891 l 1,0,-1
167 234 m 1,7,-1
 1136 234 l 1,8,-1
 1136 -2 l 1,9,-1
 167 -2 l 1,10,-1
 167 234 l 1,7,-1
EndSplineSet
EndChar

StartChar: lozenge
Encoding: 9674 9674 426
Width: 1375
GlyphClass: 2
Flags: W
LayerCount: 2
Fore
SplineSet
69 768 m 1,0,-1
 69 781 l 1,1,-1
 684 1549 l 1,2,-1
 688 1549 l 1,3,-1
 1303 781 l 1,4,-1
 1303 768 l 1,5,-1
 688 -2 l 1,6,-1
 683 -2 l 1,7,-1
 69 768 l 1,0,-1
687 415 m 1,8,-1
 960 773 l 1,9,-1
 960 776 l 1,10,-1
 687 1116 l 1,11,-1
 684 1116 l 1,12,-1
 412 776 l 1,13,-1
 412 771 l 1,14,-1
 684 415 l 1,15,-1
 687 415 l 1,8,-1
EndSplineSet
EndChar

StartChar: commaaccent
Encoding: 63171 63171 427
Width: 441
GlyphClass: 2
Flags: W
LayerCount: 2
Fore
SplineSet
67 -488 m 1,0,1
 90 -446 90 -446 90 -388 c 128,-1,2
 90 -330 90 -330 85 -310.5 c 128,-1,3
 80 -291 80 -291 72 -274 c 0,4,5
 57 -240 57 -240 37 -229 c 1,6,-1
 37 -179 l 1,7,-1
 265 -84 l 1,8,9
 323 -102 323 -102 354 -199 c 0,10,11
 364 -232 364 -232 364 -282 c 128,-1,12
 364 -332 364 -332 348.5 -382 c 128,-1,13
 333 -432 333 -432 312 -470 c 0,14,15
 273 -540 273 -540 232 -560 c 1,16,-1
 67 -515 l 1,17,-1
 67 -488 l 1,0,1
EndSplineSet
EndChar

StartChar: grave.cap
Encoding: 65537 -1 433
Width: 677
GlyphClass: 2
Flags: W
LayerCount: 2
Fore
SplineSet
404 1534 m 1,0,1
 340 1555 340 1555 228 1660 c 0,2,3
 115 1767 115 1767 55 1858 c 1,4,-1
 317 1988 l 1,5,6
 345 1909 345 1909 546 1698 c 0,7,8
 567 1676 567 1676 577 1666 c 1,9,-1
 404 1534 l 1,0,1
EndSplineSet
EndChar

StartChar: dieresis.cap
Encoding: 65538 -1 434
Width: 1038
GlyphClass: 2
Flags: W
LayerCount: 2
Fore
SplineSet
785 1582 m 0,0,1
 700 1582 700 1582 647 1633 c 128,-1,2
 594 1684 594 1684 594 1766 c 0,3,4
 594 1847 594 1847 655 1906 c 0,5,6
 715 1964 715 1964 802.5 1964 c 128,-1,7
 890 1964 890 1964 940 1914 c 128,-1,8
 990 1864 990 1864 990 1781 c 0,9,10
 990 1697 990 1697 931 1640 c 0,11,12
 871 1582 871 1582 785 1582 c 0,0,1
244 1582 m 0,13,14
 159 1582 159 1582 106 1633 c 128,-1,15
 53 1684 53 1684 53 1766 c 0,16,17
 53 1847 53 1847 114 1906 c 0,18,19
 174 1964 174 1964 261 1964 c 128,-1,20
 348 1964 348 1964 398.5 1914 c 128,-1,21
 449 1864 449 1864 449 1781 c 0,22,23
 449 1697 449 1697 390 1640 c 0,24,25
 330 1582 330 1582 244 1582 c 0,13,14
EndSplineSet
EndChar

StartChar: circumflex.cap
Encoding: 65539 -1 435
Width: 891
GlyphClass: 2
Flags: W
LayerCount: 2
Fore
SplineSet
44 1656 m 1,0,-1
 328 1964 l 1,1,-1
 562 1964 l 1,2,-1
 847 1658 l 1,3,-1
 669 1542 l 1,4,-1
 445 1735 l 1,5,-1
 222 1542 l 1,6,-1
 44 1656 l 1,0,-1
EndSplineSet
EndChar

StartChar: caron.cap
Encoding: 65540 -1 436
Width: 765
GlyphClass: 2
Flags: W
LayerCount: 2
Fore
SplineSet
44 1849 m 1,0,-1
 220 1964 l 1,1,-1
 443 1797 l 1,2,-1
 667 1964 l 1,3,-1
 842 1849 l 1,4,-1
 560 1558 l 1,5,-1
 326 1558 l 1,6,-1
 44 1849 l 1,0,-1
EndSplineSet
EndChar

StartChar: breve.cap
Encoding: 65541 -1 437
Width: 825
GlyphClass: 2
Flags: W
LayerCount: 2
Fore
SplineSet
412 1595 m 0,0,1
 316 1595 316 1595 243 1622 c 0,2,3
 28 1700 28 1700 28 1957 c 0,4,5
 28 1961 28 1961 28 1964 c 1,6,-1
 252 1964 l 1,7,8
 267 1825 267 1825 414 1825 c 0,9,10
 504 1825 504 1825 544 1877 c 0,11,12
 568 1908 568 1908 577 1964 c 1,13,-1
 797 1964 l 1,14,15
 797 1961 797 1961 797 1958 c 0,16,17
 797 1794 797 1794 699 1696 c 1,18,19
 596 1595 596 1595 412 1595 c 0,0,1
EndSplineSet
EndChar

StartChar: ring.cap
Encoding: 65542 -1 438
Width: 779
GlyphClass: 2
Flags: W
LayerCount: 2
Fore
SplineSet
522 1409.5 m 128,-1,1
 456 1394 456 1394 378 1394 c 128,-1,2
 300 1394 300 1394 232 1414 c 0,3,4
 97 1454 97 1454 49 1568 c 0,5,6
 26 1622 26 1622 26 1690 c 0,7,8
 26 1843 26 1843 146 1918 c 0,9,10
 241 1978 241 1978 395 1978 c 0,11,12
 656 1978 656 1978 728 1816 c 0,13,14
 753 1762 753 1762 752.5 1685 c 128,-1,15
 752 1608 752 1608 721 1551.5 c 128,-1,16
 690 1495 690 1495 639 1460 c 128,-1,0
 588 1425 588 1425 522 1409.5 c 128,-1,1
275.5 1596.5 m 128,-1,18
 320 1564 320 1564 372.5 1564 c 128,-1,19
 425 1564 425 1564 454.5 1568 c 128,-1,20
 484 1572 484 1572 505 1585 c 0,21,22
 549 1612 549 1612 549 1686 c 0,23,24
 549 1781 549 1781 452 1807 c 0,25,26
 423 1815 423 1815 390.5 1815 c 128,-1,27
 358 1815 358 1815 329.5 1810.5 c 128,-1,28
 301 1806 301 1806 279 1792 c 0,29,30
 231 1763 231 1763 231 1696 c 128,-1,17
 231 1629 231 1629 275.5 1596.5 c 128,-1,18
EndSplineSet
EndChar

StartChar: tilde.cap
Encoding: 65543 -1 439
Width: 933
GlyphClass: 2
Flags: W
LayerCount: 2
Fore
SplineSet
16 1731 m 1,0,1
 43 1826 43 1826 120 1890 c 0,2,3
 209 1963 209 1963 324 1963 c 0,4,5
 405 1963 405 1963 446 1938.5 c 128,-1,6
 487 1914 487 1914 506.5 1897.5 c 128,-1,7
 526 1881 526 1881 544 1866 c 0,8,9
 586 1832 586 1832 621 1832 c 128,-1,10
 656 1832 656 1832 680 1842 c 128,-1,11
 704 1852 704 1852 725 1868 c 0,12,13
 765 1897 765 1897 793 1937 c 1,14,-1
 920 1801 l 1,15,16
 894 1705 894 1705 818 1640 c 1,17,18
 733 1565 733 1565 620 1565 c 0,19,20
 543 1565 543 1565 501.5 1590 c 128,-1,21
 460 1615 460 1615 440 1632 c 128,-1,22
 420 1649 420 1649 400 1664 c 0,23,24
 353 1699 353 1699 318 1699 c 128,-1,25
 283 1699 283 1699 260 1689.5 c 128,-1,26
 237 1680 237 1680 216 1666 c 1,27,28
 179 1639 179 1639 149 1599 c 1,29,-1
 16 1731 l 1,0,1
EndSplineSet
EndChar

StartChar: hungarumlaut.cap
Encoding: 65544 -1 440
Width: 968
GlyphClass: 2
Flags: W
LayerCount: 2
Fore
SplineSet
41 1658 m 1,0,1
 99 1716 99 1716 158 1802 c 0,2,3
 242 1924 242 1924 260 1964 c 1,4,-1
 518 1846 l 1,5,6
 425 1700 425 1700 282 1576 c 0,7,8
 244 1543 244 1543 220 1532 c 1,9,-1
 41 1658 l 1,0,1
558 1658 m 1,10,11
 646 1746 646 1746 756 1915 c 0,12,13
 773 1942 773 1942 783 1962 c 1,14,-1
 1039 1843 l 1,15,16
 941 1694 941 1694 804 1576 c 0,17,18
 765 1543 765 1543 740 1532 c 1,19,-1
 558 1658 l 1,10,11
EndSplineSet
EndChar

StartChar: acute.cap
Encoding: 65545 -1 441
Width: 677
GlyphClass: 2
Flags: W
LayerCount: 2
Fore
SplineSet
102 1666 m 1,0,1
 264 1828 264 1828 336 1940 c 0,2,3
 355 1968 355 1968 362 1988 c 1,4,-1
 624 1858 l 1,5,6
 533 1724 533 1724 386 1603 c 0,7,8
 320 1548 320 1548 275 1534 c 1,9,-1
 102 1666 l 1,0,1
EndSplineSet
EndChar

StartChar: dotaccent.cap
Encoding: 65546 -1 442
Width: 533
GlyphClass: 2
Flags: W
LayerCount: 2
Fore
SplineSet
117.5 1642 m 128,-1,1
 66 1688 66 1688 66 1773 c 0,2,3
 66 1856 66 1856 126 1910 c 0,4,5
 185 1963 185 1963 276 1963 c 128,-1,6
 367 1963 367 1963 417 1918 c 128,-1,7
 467 1873 467 1873 467 1787 c 0,8,9
 467 1704 467 1704 408 1650 c 1,10,11
 351 1596 351 1596 260 1596 c 128,-1,0
 169 1596 169 1596 117.5 1642 c 128,-1,1
EndSplineSet
EndChar

StartChar: macron.cap
Encoding: 65547 -1 443
Width: 725
GlyphClass: 2
Flags: W
LayerCount: 2
Fore
SplineSet
53 1909 m 1,0,-1
 672 1909 l 1,1,-1
 672 1675 l 1,2,-1
 53 1675 l 1,3,-1
 53 1909 l 1,0,-1
EndSplineSet
EndChar

StartChar: caronvertical
Encoding: 65548 -1 444
Width: 450
GlyphClass: 2
Flags: W
LayerCount: 2
Fore
SplineSet
328 1723 m 1,0,1
 413 1648 413 1648 413 1434 c 0,2,3
 413 1223 413 1223 314 1055 c 0,4,5
 288 1011 288 1011 264 986 c 1,6,-1
 107 1027 l 1,7,-1
 99 1062 l 1,8,9
 124 1167 124 1167 124 1325 c 0,10,11
 124 1336 124 1336 124 1347 c 0,12,13
 124 1502 124 1502 63 1567 c 1,14,-1
 74 1634 l 1,15,-1
 328 1723 l 1,0,1
EndSplineSet
EndChar

